<?xml version="1.0" standalone="no"?>
<!DOCTYPE svg PUBLIC "-//W3C//DTD SVG 1.1//EN" "http://www.w3.org/Graphics/SVG/1.1/DTD/svg11.dtd" >
<svg xmlns="http://www.w3.org/2000/svg" xmlns:xlink="http://www.w3.org/1999/xlink" version="1.1">
<metadata></metadata>
<defs>
<font id="parkinsonmedium" horiz-adv-x="1542" >
<font-face units-per-em="2048" ascent="1556" descent="-492" />
<missing-glyph horiz-adv-x="409" />
<glyph horiz-adv-x="0" />
<glyph horiz-adv-x="682" />
<glyph unicode=" "  horiz-adv-x="409" />
<glyph unicode="&#x09;" horiz-adv-x="409" />
<glyph unicode="&#xa0;" horiz-adv-x="409" />
<glyph unicode="!" horiz-adv-x="569" d="M47 1425l399 146l-88 -1182l-112 -39q-68 805 -76 973q-3 37 -86 4zM164 74q0 56 43 91.5t98 35.5q52 0 89.5 -29.5t37.5 -75.5q0 -56 -43 -89.5t-104 -33.5q-52 0 -86.5 28t-34.5 73z" />
<glyph unicode="&#x22;" horiz-adv-x="587" d="M72 1554h192l-63 -454h-84zM324 1554h192l-63 -454h-84z" />
<glyph unicode="#" horiz-adv-x="1181" d="M61 504v151h224l43 308h-267v155h289l64 447h161l-65 -447h248l63 447h162l-65 -447h202v-155h-223l-41 -308h264v-151h-286l-68 -502h-162l68 502h-244l-68 -502h-163l67 502h-203zM449 655h245l39 308h-244z" />
<glyph unicode="$" horiz-adv-x="1218" d="M51 381l123 20q13 -69 35.5 -117.5t66.5 -90.5t119.5 -64.5t182.5 -26.5v578q-115 50 -193 94q-254 141 -254 383q0 175 124.5 281.5t322.5 122.5v112h94v-110q81 -2 180 -22.5t119 -20.5q27 0 30 32l123 -18l-61 -354l-129 20q12 40 9.5 72t-11 56t-29.5 42t-44 29.5 t-55 19t-63.5 11t-68.5 4.5v-492q189 -84 246 -121q98 -63 163.5 -162t65.5 -233q0 -130 -65.5 -231.5t-172 -157.5t-237.5 -66v-121h-94v119q-46 3 -93.5 11t-118.5 24.5t-90 20.5q-12 3 -19.5 -7.5t-10.5 -31.5l-123 -19zM389 1200q0 -66 39 -110.5t129 -90.5l21 -10v445 q-90 -12 -139.5 -77t-49.5 -157zM672 100q87 21 147.5 93.5t59.5 168.5q0 87 -44 144t-126 106q-6 3 -18.5 9.5t-18.5 9.5v-531z" />
<glyph unicode="%" horiz-adv-x="1675" d="M70 1120q0 208 97 326.5t245 118.5q144 0 244 -119.5t100 -321.5q0 -109 -30 -198.5t-79.5 -145t-110 -85t-124.5 -29.5q-66 0 -126 28t-109 82t-78 143t-29 201zM283 1120q0 -348 129 -348q62 0 93.5 92.5t31.5 255.5q0 344 -121 344q-60 0 -96.5 -96t-36.5 -248z M324 18l942 1577l104 -57l-938 -1573zM922 424q0 208 97 325t245 117q144 0 244 -119t100 -319q0 -109 -30 -198.5t-79.5 -145t-110 -85.5t-124.5 -30q-66 0 -126 28t-109 82t-78 143.5t-29 201.5zM1135 424q0 -348 129 -348q62 0 93.5 92.5t31.5 255.5q0 342 -121 342 q-60 0 -96.5 -96t-36.5 -246z" />
<glyph unicode="&#x26;" horiz-adv-x="1636" d="M70 453q0 68 21.5 130.5t55.5 109.5t84 91.5t98 76t107 63.5q-58 88 -93.5 168.5t-35.5 162.5q0 145 103.5 227.5t261.5 82.5q141 0 230 -73t89 -212q0 -187 -256 -354q208 -316 350 -506q83 90 131 180t48 150q0 20 -17 24t-78 4v115h396v-117q-58 0 -88.5 -16 t-44.5 -51q-105 -251 -254 -400q8 -9 28.5 -32.5t28.5 -32.5q33 -33 56 -54t49 -36.5t42 -22.5t48 -11t54 -4.5t72 -0.5v-115h-458l-109 135q-104 -76 -199.5 -113.5t-224.5 -37.5q-136 0 -247 54.5t-179 162.5t-69 252zM317 522q0 -106 50.5 -197t127 -140.5t156.5 -49.5 q73 0 124 25.5t120 83.5q-18 23 -38 49t-36.5 47.5t-40 54.5t-36.5 51.5t-40 58.5t-37.5 55t-41 61.5t-37.5 57.5t-41 62.5t-39 59.5q-191 -103 -191 -279zM537 1307q0 -87 122 -258q59 51 95.5 115t36.5 124q0 150 -134 150q-48 0 -84 -36t-36 -95z" />
<glyph unicode="'" horiz-adv-x="335" d="M72 1554h192l-63 -454h-84z" />
<glyph unicode="(" horiz-adv-x="671" d="M92 633q0 150 41.5 304.5t109.5 281.5t149.5 229.5t166.5 165.5l72 -64q-127 -141 -200 -389.5t-73 -527.5q0 -292 66 -562.5t174 -414.5l-74 -59q-77 66 -153 176.5t-139 246t-101.5 297.5t-38.5 316z" />
<glyph unicode=")" horiz-adv-x="671" d="M41 1550l72 64q85 -63 166.5 -165.5t149.5 -229.5t109.5 -281.5t41.5 -304.5q0 -153 -39 -315.5t-101.5 -298t-139 -246t-153.5 -176.5l-73 59q108 144 173.5 414t65.5 563q0 279 -72.5 527.5t-199.5 389.5z" />
<glyph unicode="*" horiz-adv-x="798" d="M61 1239l50 178l241 -114l-45 262h185l-46 -262l242 112l49 -172l-256 -37l176 -184l-141 -100l-115 223l-116 -223l-146 102l178 182z" />
<glyph unicode="+" horiz-adv-x="1269" d="M102 516l54 160h387v364l170 47v-411h454l-53 -160h-401v-383l-170 -47v430h-441z" />
<glyph unicode="," horiz-adv-x="391" d="M61 78q0 57 42.5 91t97.5 34q59 0 94 -31t35 -76q0 -81 -48 -152t-120 -118l-47 47q30 21 60 53t42 58l-27 -7q-52 0 -90.5 25.5t-38.5 75.5z" />
<glyph unicode="-" horiz-adv-x="686" d="M102 504l52 170h354q38 0 76 12l-62 -172h-321q-58 0 -99 -10z" />
<glyph unicode="." horiz-adv-x="391" d="M61 72q0 55 43 90t99 33q52 0 89.5 -29t37.5 -74q-1 -57 -44.5 -90t-103.5 -33q-52 0 -86.5 28.5t-34.5 74.5z" />
<glyph unicode="/" horiz-adv-x="1032" d="M-80 -100l1090 1822l123 -67l-1082 -1819z" />
<glyph unicode="0" horiz-adv-x="1243" d="M102 743q0 96 15.5 192.5t44.5 188.5t74.5 172t102.5 140t132.5 94.5t159.5 34.5q98 0 181.5 -42t143.5 -114.5t102 -170.5t62.5 -209.5t20.5 -231.5q0 -243 -64.5 -430.5t-186 -292.5t-282.5 -105q-121 0 -218.5 64t-159.5 172.5t-95 246.5t-33 291zM377 745 q0 -651 231 -651q65 0 116 57.5t82 156.5t46.5 222.5t15.5 264.5q0 655 -239 655q-50 0 -89.5 -24t-65.5 -61.5t-45 -97.5t-28.5 -116t-15 -134.5t-7 -135.5t-1.5 -136z" />
<glyph unicode="1" horiz-adv-x="729" d="M90 0v113h115q22 0 28 11.5t7 42.5v9v1092q0 28 -13 28q-4 0 -32 -16.5t-45 -28.5l-58 95l367 210l59 -90q-39 -26 -37 -55v-1235q0 -43 10.5 -53t47.5 -10h100v-113h-549z" />
<glyph unicode="2" horiz-adv-x="1105" d="M61 117q189 216 433 532q104 136 156 245.5t52 233.5q0 101 -69 170.5t-184 69.5q-75 0 -141 -41t-103 -82l-84 84q7 8 19.5 22t54 50t84.5 63t107 49.5t126 22.5q217 0 334 -108.5t117 -303.5q0 -79 -22.5 -151.5t-70.5 -143.5t-94.5 -126.5t-121.5 -137.5 q-25 -27 -38 -41q-57 -61 -121.5 -132t-105 -115.5t-57.5 -61.5h438q57 0 95.5 39t68.5 121l110 -37l-108 -338h-793z" />
<glyph unicode="3" horiz-adv-x="1087" d="M49 172l84 94q56 -69 137 -108t172 -39q98 0 167.5 47.5t100.5 121.5t31 165q0 164 -77 242.5t-234 78.5q-6 0 -37.5 1t-52.5 0t-43 -5l31 133q54 -4 78 -4q34 0 67 6t71.5 24t67 47t47.5 81t19 119q0 102 -57.5 161.5t-169.5 59.5q-58 0 -119.5 -28.5t-93.5 -56.5 l-33 -28l-72 86q6 7 18 18t49.5 39.5t77.5 50.5t99.5 40t118.5 18q99 0 180 -27t133.5 -73t80.5 -105t28 -125q0 -74 -25.5 -136t-69.5 -103.5t-93 -68.5t-105 -42q47 -5 95.5 -20t101 -46.5t92.5 -75t66 -111.5t26 -150q0 -142 -69 -250.5t-188.5 -165.5t-269.5 -57 q-142 0 -242.5 51.5t-187.5 140.5z" />
<glyph unicode="4" horiz-adv-x="1284" d="M63 492q108 193 334 548q194 305 334 494h244q-21 -79 -21 -119v-827h64q37 0 58.5 17t39.5 67l86 -27l-76 -250q-66 25 -114 25h-60v-254q0 -53 54 -53h79v-113h-505v113h90q51 0 51 53v254h-393q-135 0 -191 -17zM299 588h420v676q-46 -65 -182 -283q-49 -77 -238 -393 z" />
<glyph unicode="5" horiz-adv-x="1167" d="M41 186l76 93q79 -79 171.5 -116.5t176.5 -37.5q169 0 271 105t102 272q0 169 -86.5 265.5t-239.5 96.5q-94 0 -157.5 -33t-129.5 -102l-114 57q54 243 145 748h594q26 0 37.5 8t23.5 33l97 -33l-68 -227h-573q-3 -15 -20 -93t-35 -162t-29 -140q48 40 124.5 69t163.5 29 q228 0 371 -130t143 -360q0 -151 -75 -276.5t-207 -197.5t-291 -72q-127 0 -252.5 54t-218.5 150z" />
<glyph unicode="6" horiz-adv-x="1210" d="M80 633q0 303 188 550t535 388l55 -88q-158 -75 -301.5 -235t-202.5 -351q125 135 334 135q106 0 195 -44.5t146 -118t88.5 -165.5t31.5 -190q0 -107 -35 -205.5t-97.5 -174t-155.5 -120.5t-202 -45q-136 0 -248.5 57.5t-183 152t-109 212t-38.5 242.5zM317 606 q0 -110 34 -208.5t87.5 -163.5t118 -102.5t125.5 -37.5q112 0 181 82.5t69 216.5q0 114 -42.5 223.5t-123 183.5t-176.5 74q-118 0 -195.5 -78.5t-77.5 -189.5z" />
<glyph unicode="7" horiz-adv-x="1105" d="M61 1225l82 309h871l51 -84q-234 -326 -397 -670q-129 -274 -129 -538q0 -71 9 -100t36 -29h65v-113h-407q7 150 30.5 278.5t64.5 236.5t80 186t97 176q45 78 95 153t120.5 172t85.5 119h-526q-51 0 -78 -29t-43 -92z" />
<glyph unicode="8" horiz-adv-x="1218" d="M61 410q0 65 22.5 125t57 105.5t85.5 88.5t99 73t107 60q-59 39 -101 73.5t-81 79t-59.5 96.5t-20.5 110q0 84 38.5 151t104.5 108t149 62t177 21q187 0 302.5 -83.5t115.5 -217.5q0 -177 -266 -338q53 -36 75.5 -52t70.5 -53t71 -61t57 -64.5t50.5 -76t29 -82.5 t12.5 -97q0 -228 -160.5 -345.5t-443.5 -117.5q-218 0 -355 126t-137 309zM268 412q0 -140 89 -230t235 -90q144 0 232.5 79t88.5 204q0 117 -118 229q-84 79 -248 182q-279 -141 -279 -374zM395 1286q0 -66 74 -137.5t213 -157.5q186 118 186 264q0 87 -57.5 141t-165.5 54 q-105 0 -177.5 -42.5t-72.5 -121.5z" />
<glyph unicode="9" horiz-adv-x="1196" d="M72 1065q0 152 67 266t180.5 173t255.5 59q165 0 286 -81t182 -220t61 -318q0 -198 -87 -372t-243 -308q-201 -173 -455 -303l-65 92q213 123 355.5 278t213.5 367q-126 -108 -297 -108q-125 0 -230 64t-164.5 173.5t-59.5 237.5zM293 1153q0 -109 39 -203.5 t113.5 -153.5t168.5 -59q98 0 172 73.5t74 176.5q0 75 -25 154.5t-68 145.5t-109 108.5t-140 42.5q-96 0 -160.5 -83t-64.5 -202z" />
<glyph unicode=":" horiz-adv-x="391" d="M61 80q0 55 42.5 90t99.5 35q52 0 89.5 -29.5t37.5 -75.5q-1 -57 -44.5 -90t-103.5 -33q-52 0 -86.5 28.5t-34.5 74.5zM61 762q0 55 42.5 90t97.5 35q52 0 89.5 -29.5t37.5 -75.5q0 -56 -43 -88t-103 -32q-52 0 -86.5 27.5t-34.5 72.5z" />
<glyph unicode=";" horiz-adv-x="391" d="M61 80q0 57 42.5 91t97.5 34q59 0 94 -31t35 -76q0 -81 -48 -152t-120 -118l-47 47q30 21 60.5 53t43.5 58l-29 -6q-52 0 -90.5 25t-38.5 75zM61 762q0 55 42.5 90t99.5 35q52 0 89.5 -29.5t37.5 -75.5q-1 -56 -44.5 -88t-103.5 -32q-52 0 -86.5 27.5t-34.5 72.5z" />
<glyph unicode="&#x3c;" horiz-adv-x="884" d="M61 545v106l762 379v-153l-561 -279l561 -279v-153z" />
<glyph unicode="=" horiz-adv-x="1122" d="M102 338l43 151h875l-47 -151h-871zM104 709l46 151h870l-43 -151h-873z" />
<glyph unicode="&#x3e;" horiz-adv-x="884" d="M61 166v153l562 279l-562 279v153l762 -379v-106z" />
<glyph unicode="?" horiz-adv-x="913" d="M61 1409l16.5 16.5t45.5 37t71.5 47t89.5 37t105 16.5q206 0 324 -106.5t118 -309.5q0 -84 -30 -159t-83.5 -132t-118 -100.5t-142.5 -75.5l-25 -297l-110 -31l-39 389q154 60 234.5 152t80.5 242q0 121 -63 206.5t-168 85.5q-38 0 -76.5 -10.5t-66.5 -26t-51 -31 t-35 -25.5l-11 -11zM244 76q0 55 42 90t97 33q52 0 89.5 -29t37.5 -74q-1 -57 -44.5 -90t-103.5 -33q-52 0 -85.5 28.5t-32.5 74.5z" />
<glyph unicode="@" horiz-adv-x="1554" d="M59 760q0 151 53.5 282.5t147.5 225t228 147t290 53.5q114 0 220 -28.5t195.5 -85.5t156.5 -136.5t105 -189t38 -235.5q0 -102 -20.5 -192t-59.5 -160.5t-102.5 -111t-143.5 -40.5q-119 0 -186.5 46.5t-85.5 106.5q-92 -92 -219 -92q-91 0 -157 51t-66 146q0 136 174 219 q112 53 252 63v146q0 34 -27 58t-72 24q-56 0 -100.5 -29t-89.5 -82l-76 72q66 74 158 125t190 51q94 0 144.5 -48.5t50.5 -146.5v-475q0 -40 28 -70t80 -30q74 0 130 94.5t57 274.5q0 161 -75 285.5t-205 191.5t-292 67t-293.5 -75.5t-206.5 -207.5t-75 -294 q0 -158 72.5 -288.5t203 -206t293.5 -75.5q5 0 115 9q-8 -23 -26 -71t-27 -73q-46 -4 -60 -4q-209 0 -372.5 91.5t-253.5 253t-91 364.5zM645 586q0 -36 28.5 -63t71.5 -27q55 0 94.5 41t39.5 98v84q0 12 -5 12q-84 0 -156.5 -40t-72.5 -105z" />
<glyph unicode="A" horiz-adv-x="1519" d="M20 0v113h56q19 -1 34 12t20.5 24t14.5 33l482 1268q8 21 8 40q0 23 -12 44h229l516 -1356q9 -24 28.5 -44.5t41.5 -20.5h61v-113h-510v113h66q18 0 28.5 20.5t3.5 44.5l-98 268h-583l-99 -266q-10 -28 1.5 -47.5t37.5 -19.5h39v-113h-365zM455 582h485 q-15 42 -114 314.5t-124 346.5q-94 -258 -247 -661z" />
<glyph unicode="B" horiz-adv-x="1447" d="M82 0v113h68q36 0 49.5 13t13.5 48v1186q0 32 -12 46.5t-49 14.5h-70v113h604q286 0 437 -98t151 -269q0 -101 -80.5 -199.5t-204.5 -138.5q178 -22 287.5 -122.5t109.5 -253.5q0 -211 -159 -332t-416 -121h-729zM475 129h195q224 0 331 73t107 234t-101.5 233t-320.5 72 h-211v-612zM475 870h193q325 0 325 289q0 246 -352 246h-166v-535z" />
<glyph unicode="C" horiz-adv-x="1478" d="M72 774q0 236 106 417.5t288 277.5t408 96q92 0 169 -17.5t119 -35t48 -17.5q22 0 31 9t14 32l113 -27l-84 -354l-125 27q11 30 12 66v5q0 33 -12 60q-67 109 -254 112q-87 0 -167.5 -25t-150 -75.5t-121 -122t-81 -170t-29.5 -213.5q0 -205 76.5 -364.5t209 -245.5 t296.5 -86q73 0 140 16.5t111 40.5t77.5 48t49.5 40l15 17l86 -99q-217 -217 -514 -217q-249 0 -436 93.5t-291 276.5t-104 435z" />
<glyph unicode="D" horiz-adv-x="1622" d="M84 0v113h72q38 0 49.5 12.5t11.5 50.5v1182q0 38 -12.5 50.5t-48.5 12.5h-72v113h629q388 0 613.5 -195.5t225.5 -525.5q0 -371 -218 -592t-603 -221h-647zM477 131h137q137 0 248 34t187.5 94t128 145t75 184t23.5 213q0 117 -37 223.5t-105.5 191t-177.5 135 t-243 50.5h-236v-1270z" />
<glyph unicode="E" horiz-adv-x="1331" d="M82 0v113h70q39 0 52 12t13 49v1184q0 37 -15.5 50t-54.5 13h-65v113h977q16 0 25.5 6t17.5 27l117 -25l-62 -323l-119 20q10 34 10 66q0 36 -10 47q-16 19 -24 26.5t-31 16t-57 8.5h-449v-504h416q20 0 33 26.5t16 61.5l121 -22q-6 -33 -30.5 -159t-37.5 -194l-114 23 q9 36 9 62q0 23 -7 38q-11 31 -62 31h-344v-631h467q55 0 87 7.5t55.5 32t36.5 58.5t30 99l123 -37l-96 -361l-117 23q3 27 -14.5 35t-65.5 8h-901z" />
<glyph unicode="F" horiz-adv-x="1261" d="M82 0v113h72q36 0 48.5 15t14.5 54l-2 1164q0 46 -12.5 60.5t-46.5 14.5h-74v113h973q34 0 45 31l121 -23l-66 -323l-117 20q9 38 9 67q0 35 -13 57q-23 40 -110 40h-449v-526h385q41 0 58.5 19.5t25.5 68.5l117 -25l-66 -350l-116 22q11 45 11 74q0 15 -3 25 q-10 32 -60 32h-352v-561q0 -39 14 -54t50 -15h67v-113h-524z" />
<glyph unicode="G" horiz-adv-x="1617" d="M70 784q0 149 44 276.5t121.5 219t181.5 157t224.5 97t249.5 31.5q27 0 52.5 -2t57.5 -8.5t44 -9t52 -13t42 -10.5q13 -3 40 -12t49.5 -14t41.5 -5q27 0 35 47l116 -31q-13 -55 -42.5 -177.5t-43.5 -186.5l-123 28q9 29 11 63t-9 60q-33 58 -124 94.5t-211 36.5 q-103 0 -197 -40.5t-167.5 -115.5t-117 -193.5t-43.5 -264.5q0 -170 45.5 -303.5t126 -216.5t184 -125.5t224.5 -42.5q56 0 112 12t100 41.5t44 69.5v338q0 33 -10 46t-39 13h-80v113h493v-115h-59q-33 0 -44 -14.5t-11 -53.5v-510h-16q-37 0 -66 -3q-37 -5 -55.5 -9.5 t-77.5 -21.5q-197 -60 -361 -60q-166 0 -309 53.5t-252 154t-171 257t-62 350.5z" />
<glyph unicode="H" horiz-adv-x="1667" d="M82 0v113h74q37 0 49 15t12 52v1174q0 37 -13 52t-48 15h-74v113h530v-113h-73q-35 0 -48.5 -15t-13.5 -52v-475h713v473q0 39 -12.5 54t-47.5 15h-75v113h530v-113h-74q-35 0 -48 -15t-13 -52v-1174q0 -36 13.5 -51.5t47.5 -15.5h74v-113h-530v113h71q37 0 50.5 15 t13.5 52v568h-713v-568q0 -36 13.5 -51.5t48.5 -15.5h73v-113h-530z" />
<glyph unicode="I" horiz-adv-x="694" d="M82 0v113h74q37 0 49 14t12 53v1174q0 38 -13 52.5t-48 14.5h-74v113h530v-113h-71q-37 0 -50.5 -14t-13.5 -53v-1174q0 -37 13.5 -52t48.5 -15h73v-113h-530z" />
<glyph unicode="J" horiz-adv-x="663" d="M-6 -305q84 44 128.5 83t69.5 102t25 159v1315q0 41 -14.5 54t-48.5 13h-72v113h530v-113h-69q-2 0 -11.5 0.5t-13 0t-11.5 -2t-12 -6t-9 -12t-7 -19.5t-2 -28v-1231q0 -94 -32.5 -177t-91 -148.5t-131.5 -116.5t-163 -91z" />
<glyph unicode="K" horiz-adv-x="1400" d="M82 0v113h72q36 0 49.5 15.5t13.5 53.5v1174q0 39 -13 52t-52 13h-70v113h522v-113h-65q-36 0 -49 -14t-13 -49v-551l494 551q24 26 21.5 44.5t-25.5 18.5h-47v113h413v-113h-47q-61 0 -102 -51l-400 -448q52 -120 104.5 -216t137.5 -233q99 -156 179 -264.5t177 -210.5 l-77 -78q-220 133 -428 361q-196 220 -302 432l-100 -103v-430q0 -37 15.5 -52t50.5 -15h71v-113h-530z" />
<glyph unicode="L" horiz-adv-x="1314" d="M82 0v113h74q36 0 48.5 14t12.5 51v1176q0 37 -13 52t-48 15h-74v113h524v-113h-65q-35 0 -49.5 -15t-14.5 -52v-1219h479q65 0 94.5 13t47.5 38q37 47 55 144l121 -33l-94 -363l-115 23q0 20 -12.5 31.5t-32.5 11.5h-938z" />
<glyph unicode="M" horiz-adv-x="1927" d="M82 0v113h72q39 0 51 13.5t12 55.5v1172q0 38 -12.5 52.5t-48.5 14.5h-74v113h440v-16q0 -67 29 -142q34 -86 204.5 -510.5t213.5 -533.5q8 18 444 1032q14 31 22.5 73.5t10.5 69.5l2 27h407v-113h-67q-37 0 -52.5 -15.5t-15.5 -53.5l-2 -1176q0 -35 16.5 -49t55.5 -14 h65v-113h-530v113h74q38 0 49.5 14.5t11.5 54.5v897q-296 -705 -405 -950q-24 -58 -24 -108q0 -10 1 -21h-211q-305 742 -446 1081v-899q0 -41 12 -55t49 -14h64v-113h-418z" />
<glyph unicode="N" horiz-adv-x="1636" d="M82 0v113h65q37 0 50.5 14.5t13.5 52.5v1174q0 37 -13.5 52t-47.5 15h-68v113h373q4 -47 24 -76l811 -1100v998q0 35 -14 50t-45 15h-66v113h400v-113h-56q-34 0 -47.5 -14.5t-13.5 -52.5v-1252q0 -26 6 -51.5t12 -38.5l7 -12h-238l-866 1167v-985q0 -39 13 -54t46 -15 h66v-113h-412z" />
<glyph unicode="O" horiz-adv-x="1765" d="M72 768q0 232 108 415.5t290.5 282.5t403.5 99q163 0 313.5 -59.5t262 -162t178 -249.5t66.5 -314q0 -190 -67 -346t-179.5 -256t-257.5 -154.5t-305 -54.5q-234 0 -417.5 94t-289.5 276.5t-106 428.5zM350 774q0 -126 37.5 -247t104 -218t169 -156t222.5 -59t223.5 59.5 t171 156.5t105.5 219.5t38 250.5q0 126 -38 244t-106 211t-171.5 149t-224.5 56q-118 0 -219.5 -56t-168.5 -149.5t-105 -213t-38 -247.5z" />
<glyph unicode="P" horiz-adv-x="1320" d="M82 0v113h72q39 0 51 12.5t12 50.5v1184q0 38 -11.5 49.5t-49.5 11.5h-74v113h633q146 0 256 -36t173.5 -98.5t94.5 -138.5t31 -165q0 -70 -23 -136t-71.5 -125t-118 -103t-169 -69.5t-218.5 -25.5h-193v-461q0 -37 12 -50t48 -13h63v-113h-518zM477 772h160 q174 0 269 90.5t95 239.5q0 71 -23 124.5t-61.5 87t-95.5 54.5t-118 29t-136 8h-90v-633z" />
<glyph unicode="Q" horiz-adv-x="1765" d="M72 772q0 173 67.5 324t177.5 251.5t249 158t284 57.5q165 0 305.5 -45.5t238 -122.5t166.5 -179t101.5 -215.5t32.5 -232.5q0 -299 -176.5 -513.5t-448.5 -268.5v-7q0 -133 111 -133q54 0 133 37l43 -90q-154 -88 -275 -88q-124 0 -197 69q-64 62 -64 166q0 14 1 29 q-227 15 -399 125.5t-261 286.5t-89 391zM352 770q0 -101 23.5 -199t69.5 -183t109.5 -150t149 -102.5t181.5 -37.5q99 0 186.5 37.5t151 102.5t110 151t69.5 185t23 202q0 129 -38.5 248.5t-107.5 212.5t-173.5 149t-228.5 56q-115 0 -214.5 -57t-166.5 -151.5 t-105.5 -215.5t-38.5 -248z" />
<glyph unicode="R" horiz-adv-x="1380" d="M82 0v113h72q38 0 50.5 14.5t12.5 56.5v1170q0 38 -12 52.5t-49 14.5h-74v113h639q287 0 438.5 -116t151.5 -304q0 -157 -102 -275t-304 -169q6 -17 18.5 -46t58.5 -112t101 -158q82 -110 157 -198.5t110 -121.5l34 -34l-75 -80q-9 4 -25.5 12.5t-67 39t-100 66t-117 93 t-125.5 119.5q-50 55 -94 113.5t-70 104t-45 82.5t-27 57l-7 20h-154v-443q0 -41 12.5 -56t49.5 -15h59v-113h-516zM477 762h185q172 0 275 89.5t103 229.5q0 69 -20 124.5t-64 102t-123 72t-188 25.5h-168v-643z" />
<glyph unicode="S" horiz-adv-x="1218" d="M51 381l125 20q12 -69 39 -121t76 -94.5t130 -65t191 -22.5t189.5 70.5t79.5 185.5q0 154 -172 256q-40 24 -312 181q-256 146 -256 387q0 125 68 214t181 131t259 42q92 0 196 -24.5t122 -24.5q27 0 30 32l121 -22l-71 -338l-125 26q8 34 8 62q0 71 -50 110 q-70 54 -229 54q-123 0 -187.5 -58t-64.5 -149q0 -66 40.5 -117.5t127.5 -99.5q38 -22 159 -92t179 -103q108 -60 174 -162.5t66 -240.5q0 -105 -42.5 -191t-115.5 -141.5t-168 -86t-201 -30.5q-40 0 -90 6.5t-80 12t-92 19.5t-80 18q-12 3 -19.5 -7.5t-10.5 -31.5 q-56 -9 -119 -19z" />
<glyph unicode="T" horiz-adv-x="1476" d="M20 1219l58 335q61 -20 145 -20h1051q23 0 31 11q5 7 8 20l112 -21l-57 -344l-123 21q11 44 11 76q0 36 -13 59q-28 49 -121 49h-272v-1223q0 -37 17 -53t55 -16h63v-113h-530v113h73q37 0 49.5 14.5t12.5 52.5v1225h-291q-57 0 -101 -48.5t-57 -154.5z" />
<glyph unicode="U" horiz-adv-x="1566" d="M72 1421v113h508v-113h-58q-35 0 -51 -15.5t-16 -51.5v-836q0 -99 20 -170.5t53 -114.5t86 -68t108.5 -33.5t131.5 -8.5q167 0 272 101t105 276l2 823q0 54 -16 76t-58 22h-53v113h399v-113h-49q-35 0 -48 -22t-13 -76l2 -825q0 -259 -155.5 -394t-432.5 -135 q-136 0 -245.5 30.5t-192.5 92.5t-128.5 164t-45.5 236v862q0 35 -15.5 51t-50.5 16h-59z" />
<glyph unicode="V" horiz-adv-x="1517" d="M20 1421v113h508v-113h-59q-26 0 -36 -17.5t-1 -49.5q55 -147 385 -1063q57 154 152.5 408.5t158 422.5t84.5 232q9 19 1 43t-33 24h-43v113h360v-113h-47q-29 0 -43 -15t-23 -44q-442 -1139 -493 -1268q-8 -24 -8 -47t8 -47h-227q-490 1286 -523 1368q-22 53 -71 53h-50 z" />
<glyph unicode="W" horiz-adv-x="2166" d="M20 1421v113h515v-113h-58q-28 0 -38 -19t-1 -48q209 -582 383 -1061q25 69 89 238t96 257q-202 524 -220 580q-18 53 -71 53h-53v113h516v-113h-60q-28 0 -36.5 -20.5t1.5 -46.5q27 -76 383 -1063q61 166 152.5 409.5t155.5 416t88 237.5q9 19 0.5 43t-33.5 24h-43v113 h360v-113h-47q-15 0 -26.5 -4.5t-19 -14t-11.5 -17.5t-10 -23q-443 -1139 -492 -1268q-8 -24 -8 -47t8 -47h-233l-222 582q-40 -101 -82.5 -210.5t-72 -186t-35.5 -91.5q-8 -24 -8 -47t8 -47h-231q-490 1286 -523 1368q-22 53 -71 53h-50z" />
<glyph unicode="X" horiz-adv-x="1488" d="M41 0v113h45q31 0 66 19t51 42q60 82 202 274.5t216 294.5q-23 35 -178 268.5t-236 356.5q-12 21 -39.5 37t-54.5 16h-50v113h545v-113h-59q-28 0 -37 -18t10 -47q103 -159 260 -395q47 65 143.5 196t143.5 197q18 25 4 46t-43 21h-43v113h438v-113h-45 q-30 0 -64.5 -18.5t-53.5 -40.5q-53 -74 -186 -257.5t-204 -281.5q71 -108 216 -328t217 -329q12 -21 39.5 -37t54.5 -16h49v-113h-545v113h60q27 0 36.5 18t-8.5 47q-41 62 -87.5 134t-103.5 160.5t-89 137.5q-187 -264 -301 -430q-17 -26 -3.5 -46.5t42.5 -20.5h43v-113 h-451z" />
<glyph unicode="Y" horiz-adv-x="1380" d="M20 1421v113h521v-113h-45q-34 0 -42 -21q-2 -5 -2 -11q0 -20 17 -50t136 -220t167 -263q11 19 279 479q22 38 22 59q0 27 -35 27h-43v113h365v-113h-2h-2h-2h-2h-2h-2h-2h-2h-2h-9q-41 0 -58 -13.5t-46 -61.5q-12 -19 -106.5 -174t-184.5 -302t-109 -176v-512 q0 -38 13 -53.5t49 -15.5h74v-113h-531v113h74q38 0 49.5 14.5t11.5 52.5v510q-21 35 -215 341t-207 327q-21 35 -40.5 49.5t-49.5 13.5h-37z" />
<glyph unicode="Z" horiz-adv-x="1345" d="M31 104l907 1291h-602q-65 0 -96.5 -42t-55.5 -151l-116 25l79 338q72 -31 156 -31h934l53 -92l-913 -1301h577q51 0 89.5 11.5t62.5 28.5t42 48t27 58.5t19 70.5l121 -30l-96 -394l-125 25q4 41 -35 41h-983z" />
<glyph unicode="[" horiz-adv-x="731" d="M205 -246v2020h526v-109h-278v-1802h278v-109h-526z" />
<glyph unicode="\" horiz-adv-x="1093" d="M-10 1632l100 54l1024 -1840l-98 -55z" />
<glyph unicode="]" horiz-adv-x="731" d="M0 -137h279v1802h-279v109h526v-2020h-526v109z" />
<glyph unicode="^" horiz-adv-x="921" d="M31 592l354 422h152l354 -422h-150l-280 246l-281 -246h-149z" />
<glyph unicode="_" horiz-adv-x="1024" d="M0 -150h1026v-77h-1026v77z" />
<glyph unicode="`" horiz-adv-x="921" d="M238 1417l92 144l354 -269l-43 -61z" />
<glyph unicode="a" horiz-adv-x="1009" d="M53 231q0 95 63.5 165t159.5 112q131 57 340 76v174q0 48 -34.5 84.5t-92.5 36.5q-114 0 -272 -109l-67 100q220 162 428 162q128 0 198 -66t70 -188v-626q0 -32 26 -35q22 0 74 10l4 -113q-100 -8 -151 -12l-176 -18v108q-53 -48 -124.5 -79t-150.5 -31 q-134 0 -214.5 62t-80.5 187zM287 252q0 -49 33 -88t90 -39q77 0 141.5 45t64.5 92v195q0 8 -8 8q-47 -6 -79.5 -11.5t-82.5 -21t-81 -36t-54.5 -58t-23.5 -86.5z" />
<glyph unicode="b" horiz-adv-x="1216" d="M41 1386l367 170v-624q39 36 121 68t163 32q116 0 205.5 -38.5t145 -108t84 -161.5t28.5 -202q0 -257 -142 -398.5t-384 -141.5q-61 0 -154.5 24.5t-114.5 24.5q-56 0 -75 -51l-109 26v1278q0 35 -12 35q-17 0 -76 -35zM408 268q0 -75 56 -118.5t144 -43.5q77 0 135.5 33 t93.5 91.5t52.5 133.5t17.5 164q0 100 -27.5 183.5t-86 137.5t-138.5 54q-97 0 -172 -59.5t-75 -114.5v-461z" />
<glyph unicode="c" horiz-adv-x="1062" d="M61 506q0 223 149.5 374.5t377.5 151.5q45 0 124.5 -15.5t90.5 -15.5q23 0 32.5 7t18.5 28l111 -18l-64 -311l-119 20q11 40 11 71t-11 52q-34 63 -190 63q-128 0 -211.5 -97t-83.5 -249q0 -193 92.5 -316.5t237.5 -123.5q89 0 154.5 30t133.5 91l76 -84 q-83 -90 -184.5 -135t-243.5 -45q-215 0 -358.5 150.5t-143.5 371.5z" />
<glyph unicode="d" horiz-adv-x="1198" d="M61 522q0 232 144.5 371t363.5 139q82 0 149.5 -22t94.5 -47v337q0 19 -10 19q-7 0 -17.5 -4t-17.5 -7.5t-22 -12.5t-19 -11l-49 105l366 167v-1415q0 -11 11 -16.5t22 -5.5l70 10v-115q-111 -10 -164 -14l-162 -14v102q-115 -104 -274 -104q-226 0 -356 140t-130 398z M309 516q0 -189 76 -296t207 -107q77 0 150 56t73 136v438q0 70 -66.5 122.5t-175.5 52.5q-120 0 -192 -110.5t-72 -291.5z" />
<glyph unicode="e" horiz-adv-x="1083" d="M61 524q0 134 65.5 251t180.5 187t250 70q172 0 293.5 -101.5t142.5 -236.5l-682 -250q21 -138 103.5 -226.5t210.5 -88.5q102 0 175.5 32.5t147.5 96.5l70 -94q-56 -47 -95 -74t-92.5 -54.5t-114.5 -39.5t-136 -12q-162 0 -281 72t-178.5 193t-59.5 275zM299 580 q83 28 363 133q20 7 25 13t5 19q0 63 -48.5 110.5t-131.5 47.5q-96 0 -154.5 -93t-58.5 -230z" />
<glyph unicode="f" horiz-adv-x="653" d="M82 0v113h65q30 0 41 11.5t11 39.5v739h-107v115h107v108q0 113 45.5 207t138.5 153.5t217 59.5q40 0 76 -5.5t61 -12t27 -6.5l-43 -248l-105 20q7 23 9.5 46t-1.5 44.5t-19.5 34.5t-41.5 13q-61 0 -97 -58.5t-36 -146.5v-209h203l-19 -127q-54 12 -118 12h-66v-737 q0 -29 12 -41t41 -12h72v-113h-473z" />
<glyph unicode="g" horiz-adv-x="1132" d="M45 -258q0 64 41 105t111 75q-101 56 -101 125q0 39 21 77t56.5 68t66 50t63.5 37q-88 50 -132 140t-44 197q0 172 124.5 294t301.5 122q80 0 159.5 -32t135.5 -89q28 78 84 125q20 16 53 26.5t57 12.5l23 2v-196q-12 6 -39 11t-45 1q-52 -12 -72 -51q68 -96 68 -217 q0 -185 -113 -301.5t-305 -116.5q-81 0 -149 20q-5 -3 -19.5 -10.5t-21.5 -11.5t-19 -11.5t-18 -13.5t-13.5 -14t-10.5 -17t-3 -18q0 -27 68 -31q57 -2 199 -8.5t216 -9.5q135 -6 214 -59.5t79 -157.5q0 -80 -42 -143t-109 -100.5t-159 -62t-182.5 -33.5t-189.5 -9 q-62 0 -121 11.5t-113 36t-87 70.5t-33 107zM227 -229q0 -61 75.5 -95t186.5 -34q163 0 266 44t103 105q0 19 -16.5 33.5t-43 21.5t-49 10.5t-44.5 4.5q-193 11 -373 18q-105 -31 -105 -108zM362 618q0 -117 55 -202.5t132 -85.5q81 0 136.5 86t55.5 205q0 121 -51.5 205.5 t-138.5 84.5q-90 0 -139.5 -84t-49.5 -209z" />
<glyph unicode="h" horiz-adv-x="1228" d="M61 1386l365 170v-690q49 49 53 52q79 58 141.5 86t141.5 28q154 0 228.5 -89.5t74.5 -240.5v-540q0 -29 12.5 -39t42.5 -10h58v-113h-457v113h57q58 0 58 49v522q0 89 -37 129.5t-111 40.5q-60 0 -123 -36t-101 -84t-38 -85v-485q0 -51 57 -51h58v-113h-461v113h59 q33 0 45.5 11.5t12.5 39.5v1130q0 21 -15 25q-10 2 -28.5 -7.5t-31.5 -19.5l-13 -10z" />
<glyph unicode="i" horiz-adv-x="593" d="M61 850l367 170v-854q0 -25 15.5 -39t35.5 -14h64v-113h-463v113h70q22 0 35.5 13.5t13.5 39.5v579q0 35 -13 35q-6 1 -25.5 -8t-35.5 -18l-16 -9zM174 1229q0 57 51 96t109 39q45 0 81 -27.5t36 -72.5q0 -58 -50.5 -99t-111.5 -41q-47 0 -81 29.5t-34 75.5z" />
<glyph unicode="j" horiz-adv-x="573" d="M-12 -442q12 4 86 41q70 41 97.5 89t27.5 130v927q0 35 -13 35q-6 1 -25.5 -8t-35.5 -18l-16 -9l-48 105l367 170v-1172q0 -120 -67.5 -199t-217.5 -155l-96 -45zM174 1229q0 57 51 96t109 39q45 0 81 -27.5t36 -72.5q0 -58 -50.5 -99t-111.5 -41q-47 0 -81 29.5 t-34 75.5z" />
<glyph unicode="k" horiz-adv-x="1083" d="M61 1389l369 170v-973q61 58 144.5 141.5t113.5 118.5q16 20 19 39q0 4 -9 11t-20 7h-33v115h365v-115h-35q-46 -1 -72.5 -16.5t-68.5 -63.5q-76 -87 -127 -141q57 -169 137 -328q91 -183 209 -356l-84 -70q-175 137 -303 299q-97 126 -166 277l-70 -74v-266 q0 -51 51 -51h60v-113h-461v113h65q30 0 42 11.5t12 39.5v1128q0 24 -15 29q-5 1 -15.5 -4t-32.5 -18t-25 -15z" />
<glyph unicode="l" horiz-adv-x="593" d="M61 1386l367 170v-1390q0 -25 15.5 -39t35.5 -14h64v-113h-463v113h70q47 0 47 53v1112q0 38 -11 43q-6 2 -25.5 -7.5t-35.5 -19.5l-16 -10z" />
<glyph unicode="m" horiz-adv-x="1826" d="M61 848l351 172v-172q32 38 59 64t69 57t95 47t113 16q107 0 176 -49.5t94 -138.5q142 188 346 188q77 0 136.5 -26.5t94.5 -72t52.5 -101t17.5 -117.5v-545q0 -34 11.5 -45.5t43.5 -11.5h56v-113h-457v113h57q34 0 46 11.5t12 43.5v522q0 83 -33.5 124.5t-110.5 41.5 q-74 0 -156.5 -62.5t-82.5 -115.5v-512q0 -29 12 -41t43 -12h57v-113h-454v113h57q30 0 42.5 11t12.5 42v508q0 91 -32 135.5t-117 44.5q-89 0 -165.5 -72t-76.5 -127v-489q0 -31 11.5 -42t45.5 -11h56v-113h-461v113h57q33 0 46.5 12.5t13.5 40.5v579q0 33 -17 35 q-6 1 -24.5 -7t-33.5 -17l-15 -8z" />
<glyph unicode="n" horiz-adv-x="1230" d="M63 848l351 170v-168q26 28 73 70q147 112 283 112q150 0 224.5 -91.5t74.5 -242.5v-534q0 -29 11 -40t42 -11h60v-113h-457v113h59q31 0 43.5 12t12.5 39v506q0 95 -30.5 139.5t-107.5 44.5q-102 0 -187 -72.5t-85 -130.5v-487q0 -28 11.5 -39.5t41.5 -11.5h62v-113 h-461v113h66q30 0 40.5 12t10.5 43v580q0 28 -11 32h-3q-15 0 -76 -32z" />
<glyph unicode="o" horiz-adv-x="1157" d="M61 512q0 112 41 209.5t111.5 165t165.5 106.5t201 39q232 0 374 -141t142 -383q0 -237 -144 -380.5t-383 -143.5q-221 0 -364.5 146t-143.5 382zM303 508q0 -105 29 -192.5t91 -144t146 -56.5q135 0 210 113t75 280q0 104 -32 194t-97 148.5t-150 58.5 q-87 0 -150.5 -59.5t-92.5 -148.5t-29 -193z" />
<glyph unicode="p" horiz-adv-x="1245" d="M61 846l355 172v-141q48 61 139 108t197 47q196 0 314 -137.5t118 -359.5q0 -255 -144.5 -404t-377.5 -149q-134 0 -232 53v-352q0 -33 14.5 -47.5t49.5 -14.5h49v-113h-461v113h57q35 0 49 14t13 48v1079q0 18 -13 18h-3q-17 0 -74 -35zM430 227q0 -12 11.5 -31 t35 -40.5t67.5 -36.5t99 -15q123 0 206 118t83 280q0 184 -63.5 282.5t-178.5 98.5q-109 0 -184.5 -70.5t-75.5 -148.5v-437z" />
<glyph unicode="q" horiz-adv-x="1210" d="M61 487q0 245 144 395t383 150q42 0 103.5 -13t106.5 -26.5t48 -13.5q73 0 88 53l110 -28v-1340q0 -33 31 -33l68 9l6 -111q-111 -10 -160 -14l-176 -19v561q-124 -75 -281 -75q-98 0 -179 30t-134 79t-89.5 115.5t-52.5 136.5t-16 144zM307 532q0 -206 68 -313.5 t200 -107.5q93 0 166.5 41t73.5 75v518q0 74 -63 120t-160 46q-89 0 -155.5 -54.5t-98 -139t-31.5 -185.5z" />
<glyph unicode="r" horiz-adv-x="837" d="M61 848l351 170v-174q50 87 123.5 137.5t144.5 50.5t127 -16l-37 -299l-115 14q7 26 7 48q0 17 -4 31q-10 32 -48 32q-82 0 -132 -74t-50 -172v-430q0 -53 41 -53h90v-113h-475v113h72q43 0 43 51v581q0 35 -19 35q-5 0 -23 -8.5t-33 -17.5l-15 -9z" />
<glyph unicode="s" horiz-adv-x="968" d="M72 276l104 27q36 -111 102 -155q65 -44 195 -44h6q89 0 143 42t54 102q0 46 -27.5 76.5t-85.5 52.5q-24 10 -90.5 39t-99.5 43q-102 37 -167 108.5t-65 182.5q0 88 52.5 154t131.5 97t171 31q23 0 51 -4t45 -8t50 -12t44 -11q24 -8 45 -8q13 0 19 6t12 25l108 -19 q-1 -3 -21.5 -113.5t-31.5 -172.5l-115 20q9 33 9 59q0 32 -13 54q-18 33 -73 52.5t-127 19.5q-63 0 -109.5 -35t-46.5 -86q0 -49 33.5 -81t107.5 -63q43 -17 123.5 -53t100.5 -45q194 -81 194 -278q0 -128 -109.5 -211.5t-281.5 -83.5q-86 0 -159 17t-87 17q-10 0 -16.5 -8 t-3.5 -22l-92 -23q-47 172 -80 311z" />
<glyph unicode="t" horiz-adv-x="714" d="M72 887v96l331 285v-258h265l-33 -144q-71 21 -150 21h-82v-643q0 -121 78 -121q65 0 142 47l51 -96q-76 -49 -132 -69.5t-147 -20.5q-221 0 -221 252v651h-102z" />
<glyph unicode="u" horiz-adv-x="1212" d="M51 854l355 164v-678q0 -102 47 -154.5t127 -52.5q101 0 169 58t68 133v432q0 26 -14 26q-7 0 -19.5 -6t-26.5 -14t-18 -10l-47 104l357 162v-873q0 -12 6.5 -20.5t15.5 -7.5l80 8v-111q-51 -4 -156.5 -16t-156.5 -16v149q-61 -74 -137 -111.5t-193 -37.5 q-151 0 -241.5 88t-90.5 262v416v5.5v5v4.5v4.5t-0.5 4t-1 4t-1.5 2.5t-2.5 2t-3 1.5t-3.5 0.5q-14 0 -66 -30z" />
<glyph unicode="v" horiz-adv-x="1089" d="M18 903v115h453v-115h-49q-35 0 -37 -16q-4 -14 10 -56q16 -45 100.5 -287t102.5 -294q22 59 102 279t107 292q15 42 10 60q-5 22 -33 22h-51v115h338v-115h-51q-42 0 -59 -55q-187 -489 -293 -758q-9 -25 -9 -51q0 -19 5 -39h-197q-260 664 -328 840q-13 32 -29.5 47.5 t-43.5 15.5h-48z" />
<glyph unicode="w" horiz-adv-x="1609" d="M18 903v115h453v-115h-59q-31 0 -31 -20q0 -12 18 -68q41 -121 197 -565l141 393q-5 16 -20.5 55t-34 85.5t-23.5 58.5q-13 33 -27.5 47t-41.5 14h-51v115h450v-115h-57q-33 0 -33 -22q0 -3 2.5 -10t7.5 -22t9 -28q128 -370 198 -567q142 391 205 559q14 39 14 57 q4 33 -32 33h-50v115h338v-115h-51q-40 0 -61 -61q-107 -275 -289 -754q-11 -29 -11 -58q0 -15 3 -30h-197l-178 455q-21 -55 -73.5 -193t-65.5 -172q-10 -26 -10 -54q0 -18 4 -36h-195q-256 650 -330 840q-22 63 -71 63h-48z" />
<glyph unicode="x" horiz-adv-x="1112" d="M41 0v113h53q62 0 101 49q168 210 254 321q-133 189 -246 355q-19 26 -27.5 36.5t-23.5 19.5t-35 9h-58v115h447v-113h-39q-25 0 -25 -20q0 -23 37 -72l111 -154q20 25 110 146q8 11 17.5 23.5t14.5 19t9.5 13t6.5 11t2 7.5q0 7 -1.5 11.5t-7 8.5t-16.5 4h-43v115h367 v-115h-54q-10 0 -19 -2t-15 -3t-14 -7t-11 -7.5t-11 -10.5t-9.5 -10.5t-10.5 -13.5t-10 -13q-130 -171 -227 -291q87 -123 252 -365q24 -35 42.5 -51t45.5 -16h63v-113h-471v113h45q35 0 35 20q0 17 -21 45q-11 17 -131 187q-47 -59 -141 -181q-1 -1 -10.5 -12.5t-16 -21 t-6.5 -13.5q0 -24 27 -24h65v-113h-405z" />
<glyph unicode="y" horiz-adv-x="1116" d="M18 903v115h459v-115h-41q-37 0 -41 -22q0 -16 21 -74l198 -516q13 33 97.5 243.5t115.5 288.5q15 38 15 62q0 18 -33 18h-59v115h348v-115h-47q-26 0 -43.5 -19t-24.5 -44l-545 -1334h-239q56 62 131 203q142 269 159 303l-354 828q-14 33 -30 48t-42 15h-45z" />
<glyph unicode="z" horiz-adv-x="1007" d="M61 80l572 807h-279q-71 0 -103 -31t-54 -106l-105 24l78 266q74 -24 125 -24h600l47 -86l-563 -795h283q78 0 116 38t62 136l106 -28l-84 -330l-108 22q0 16 -7.5 21.5t-25.5 5.5h-627z" />
<glyph unicode="{" horiz-adv-x="692" d="M41 709v114q83 0 132.5 41.5t49.5 108.5v344q0 95 23.5 171.5t61.5 123t83.5 80.5t91 49t83.5 23.5t62 9.5h23v-121q-102 0 -157.5 -75t-55.5 -198v-305q0 -220 -168 -311q86 -38 128 -120t42 -191v-277q0 -43 4.5 -81t18.5 -79t36.5 -70t61.5 -48t90 -19v-121 q-9 0 -24.5 0.5t-60 8.5t-85.5 23t-90.5 48t-85 78.5t-60 120t-24.5 166.5v364q0 59 -49.5 100.5t-130.5 41.5z" />
<glyph unicode="|" horiz-adv-x="352" d="M102 -244v2018h148v-2018h-148z" />
<glyph unicode="}" horiz-adv-x="692" d="M41 -121q51 0 90 19t61.5 48t36.5 70t18.5 79t4.5 81v277q0 109 42 191t128 120q-168 91 -168 311v305q0 123 -55.5 198t-157.5 75v121q9 0 24.5 -0.5t60 -9t85 -23.5t89.5 -49t84.5 -80.5t60 -123t24.5 -171.5v-344q0 -67 49.5 -108.5t132.5 -41.5v-114 q-81 0 -130.5 -41.5t-49.5 -100.5v-364q0 -92 -23.5 -166.5t-61.5 -120t-84 -78.5t-92 -47.5t-84 -23t-62 -9.5h-23v121z" />
<glyph unicode="~" horiz-adv-x="1150" d="M82 782q49 66 82 104t76.5 74.5t90.5 52t105 15.5q46 0 97.5 -21.5t88 -47t78 -47t70.5 -21.5q70 0 119.5 25.5t101.5 93.5l78 -74q-70 -107 -162.5 -172.5t-199.5 -65.5q-43 0 -106 34t-122 68t-92 34q-64 0 -111.5 -27.5t-111.5 -97.5z" />
<glyph unicode="&#xa1;" horiz-adv-x="569" d="M123 -27l88 1182l113 39q67 -805 75 -973q3 -37 86 -4l37 -98zM137 1448q0 56 43.5 89.5t104.5 33.5q52 0 86.5 -28t34.5 -73q0 -56 -43 -91.5t-99 -35.5q-52 0 -89.5 29.5t-37.5 75.5z" />
<glyph unicode="&#xa2;" horiz-adv-x="1073" d="M72 774q0 200 123 345.5t319 174.5v242h113v-236q40 -3 111.5 -16.5t84.5 -13.5q23 0 32.5 7t18.5 28l111 -19l-63 -311l-119 20q22 81 0 123q-16 29 -67.5 46.5t-133.5 17.5q-128 0 -211.5 -97t-83.5 -249q0 -192 93 -312.5t237 -120.5q93 0 162 29.5t129 89.5l73 -92 q-140 -162 -374 -176v-254h-113v256q-193 22 -317.5 168t-124.5 350z" />
<glyph unicode="&#xa3;" horiz-adv-x="1200" d="M63 76q97 141 150 229q93 155 98 299h-200l18 101h172q-13 81 -76 235q-51 147 -51 244q0 195 127.5 297t345.5 102q72 0 138 -22t111.5 -55.5t75.5 -64t46 -57.5l-84 -67q-22 31 -51.5 60t-82.5 55t-110 26q-127 0 -190.5 -71t-65.5 -189q-3 -100 39 -252 q41 -159 51 -241h236l-23 -103h-217q-38 -182 -209 -383h469q82 0 122 32.5t61 110.5l88 -18l-97 -344h-815z" />
<glyph unicode="&#xa4;" d="M102 420q0 147 73 214.5t216 67.5q81 0 146 -26q0 12 2 18q2 87 57.5 136t161.5 49q40 0 78.5 -17.5t60.5 -36t59 -55.5t54 -51q42 -37 103 -66.5t112 -29.5q47 0 76.5 25t29.5 67q0 20 -12 39t-12 30q0 14 16 22.5t33 6.5q22 -3 39 -14q17 -12 31 -53t14 -78 q0 -73 -40 -143.5t-110 -127t-174.5 -91t-224.5 -34.5q-97 0 -178.5 24t-137 81t-55.5 139q0 28 19 76q-59 26 -125 26q-99 0 -144 -42t-45 -123q0 -26 15 -60t14 -43q0 -21 -27 -29.5t-55 1.5q-38 12 -54 33.5t-16 64.5z" />
<glyph unicode="&#xa5;" horiz-adv-x="1380" d="M20 1421v113h521v-113h-45q-33 0 -41 -20.5t14 -61.5q9 -15 68.5 -109.5t134.5 -214t100 -159.5q122 200 279 479q17 30 21.5 48.5t-4 28t-30.5 9.5h-43v113h365v-113h-2h-2h-2h-2h-2h-2h-2h-2h-2h-9q-41 0 -58 -13.5t-46 -61.5q-35 -56 -104 -168.5t-154 -252 t-113 -184.5h270l-49 -118h-250v-129h299l-47 -117h-252v-195q0 -38 13 -53.5t49 -15.5h74v-113h-531v113h74q38 0 49.5 14.5t11.5 52.5v197h-286l45 117h241v129h-288l49 118h207q-94 155 -390 617q-21 35 -40.5 49t-49.5 14h-37z" />
<glyph unicode="&#xa6;" d="M102 420q0 147 73 214.5t216 67.5q81 0 146 -26q0 12 2 18q2 87 57.5 136t161.5 49q40 0 78.5 -17.5t60.5 -36t59 -55.5t54 -51q42 -37 103 -66.5t112 -29.5q47 0 76.5 25t29.5 67q0 20 -12 39t-12 30q0 14 16 22.5t33 6.5q22 -3 39 -14q17 -12 31 -53t14 -78 q0 -73 -40 -143.5t-110 -127t-174.5 -91t-224.5 -34.5q-97 0 -178.5 24t-137 81t-55.5 139q0 28 19 76q-59 26 -125 26q-99 0 -144 -42t-45 -123q0 -26 15 -60t14 -43q0 -21 -27 -29.5t-55 1.5q-38 12 -54 33.5t-16 64.5z" />
<glyph unicode="&#xa7;" horiz-adv-x="972" d="M123 1266q0 139 108.5 234t284.5 95q178 0 326 -55l-56 -260l-90 16q6 48 6 60q0 75 -45 104t-131 29q-68 0 -121 -50t-53 -116q0 -58 19 -99.5t94 -123.5q23 -24 118 -115.5t105 -101.5q92 -90 124 -159t32 -171q0 -54 -20 -104t-58 -93t-72 -73t-84 -66 q143 -145 186.5 -232.5t43.5 -201.5q0 -122 -108 -215.5t-281 -93.5q-197 0 -326 53l39 254l96 -14q-8 -36 -8 -66q0 -61 51.5 -92t134.5 -31q59 0 101.5 30.5t59.5 68.5t17 75q0 49 -14 86.5t-31 59t-61 69.5q-19 20 -99 102t-98 101q-102 102 -145 172.5t-43 163.5 q0 81 30 145.5t78 108t123 86.5q-59 60 -89 94t-69.5 90t-57 113.5t-17.5 122.5zM338 582q0 -31 4.5 -53.5t19.5 -45.5t24 -33.5t38 -41.5q34 -38 108 -111q3 3 24.5 25.5t26 28.5t19 25.5t19 31.5t9.5 31.5t5 39.5q0 53 -21 92t-65 86q-61 64 -115 113q-46 -48 -71 -91 t-25 -97z" />
<glyph unicode="&#xa8;" horiz-adv-x="921" d="M137 1382q0 54 44 89.5t102 35.5q42 0 78 -28.5t36 -69.5q0 -55 -40.5 -91t-100.5 -36q-44 0 -81.5 30t-37.5 70zM528 1382q0 54 44 89.5t102 35.5q42 0 78 -28.5t36 -69.5q-1 -55 -41.5 -91t-99.5 -36q-44 0 -81.5 30t-37.5 70z" />
<glyph unicode="&#xa9;" horiz-adv-x="1474" d="M49 881q0 187 91 344t249.5 248.5t347.5 91.5q186 0 344 -92t250 -250t92 -344q0 -187 -92 -345t-250 -249.5t-346 -91.5q-186 0 -344 92t-250 250.5t-92 345.5zM139 872q0 -122 47.5 -233.5t127.5 -191.5t191.5 -127.5t233.5 -47.5t233.5 47.5t191.5 127.5t127.5 191.5 t47.5 233.5q0 163 -80 301.5t-218.5 219t-301.5 80.5t-301.5 -80.5t-218.5 -219t-80 -301.5zM367 874q0 178 113.5 286t287.5 108q49 0 102 -16.5t64 -16.5q20 0 24 22l56 -14l-41 -180l-62 12q5 13 5 34t-7 34q-14 23 -48 39t-79 16q-114 0 -194 -80t-80 -221 q0 -161 82 -252.5t213 -91.5q37 0 71.5 8t57.5 20t40.5 24t25.5 20l8 8l38 -51q-107 -107 -258 -107q-195 0 -307 105t-112 294z" />
<glyph unicode="&#xaa;" horiz-adv-x="831" d="M61 580v135h709v-135h-709zM72 975q0 73 47.5 127.5t118.5 83.5q104 41 251 45v129q0 36 -25.5 63t-70.5 27q-88 0 -200 -80l-50 74q164 121 318 121q95 0 146.5 -49.5t51.5 -141.5v-465q0 -23 21 -26q11 0 57 8v-82q-73 -8 -112 -12l-131 -13v80q-90 -83 -207 -80 q-104 0 -160 48.5t-55 142.5zM246 983q0 -37 24 -65.5t66 -28.5q58 0 107 32.5t49 67.5v146q0 7 -7 4q-40 0 -78.5 -7t-76.5 -23.5t-61 -49t-23 -76.5z" />
<glyph unicode="&#xab;" horiz-adv-x="1220" d="M102 457v98l504 334v-152l-336 -231l336 -232v-151zM614 457v98l504 334v-152l-336 -231l336 -232v-151z" />
<glyph unicode="&#xac;" d="M102 420q0 147 73 214.5t216 67.5q81 0 146 -26q0 12 2 18q2 87 57.5 136t161.5 49q40 0 78.5 -17.5t60.5 -36t59 -55.5t54 -51q42 -37 103 -66.5t112 -29.5q47 0 76.5 25t29.5 67q0 20 -12 39t-12 30q0 14 16 22.5t33 6.5q22 -3 39 -14q17 -12 31 -53t14 -78 q0 -73 -40 -143.5t-110 -127t-174.5 -91t-224.5 -34.5q-97 0 -178.5 24t-137 81t-55.5 139q0 28 19 76q-59 26 -125 26q-99 0 -144 -42t-45 -123q0 -26 15 -60t14 -43q0 -21 -27 -29.5t-55 1.5q-38 12 -54 33.5t-16 64.5z" />
<glyph unicode="&#xad;" horiz-adv-x="686" d="M102 504l52 170h354q38 0 76 12l-62 -172h-321q-58 0 -99 -10z" />
<glyph unicode="&#xae;" horiz-adv-x="1474" d="M49 881q0 186 92 343.5t250.5 249t345.5 91.5q186 0 344 -92t250 -250t92 -344q0 -187 -92 -345.5t-250.5 -250t-345.5 -90.5q-186 0 -344 92t-250 250.5t-92 345.5zM139 872q0 -122 47.5 -233.5t127.5 -191.5t191.5 -127.5t233.5 -47.5t233.5 47.5t191.5 127.5 t127.5 191.5t47.5 233.5q0 163 -80 301.5t-218.5 219t-301.5 80.5t-301.5 -80.5t-218.5 -219t-80 -301.5zM451 535v55h34q20 0 26.5 7t6.5 28v583q0 19 -6.5 27t-24.5 8h-36v57h319q144 0 219.5 -57.5t75.5 -152.5q0 -78 -51 -137.5t-152 -84.5q27 -73 90 -157 q41 -56 78.5 -100.5t54.5 -61.5l17 -17l-37 -38q-13 6 -35 17.5t-79.5 54t-102.5 91.5q-40 44 -71 91.5t-41 73.5l-11 26h-76v-223q0 -21 6 -28t25 -7h29v-55h-258zM649 913h90q87 0 139 45.5t52 116.5q0 72 -46.5 117t-152.5 45h-82v-324z" />
<glyph unicode="&#xaf;" horiz-adv-x="921" d="M121 1362v92h686v-92h-686z" />
<glyph unicode="&#xb0;" horiz-adv-x="534" d="M61 1358q0 84 59.5 140t145.5 56q95 0 151 -51.5t56 -144.5q0 -90 -59.5 -146.5t-147.5 -56.5q-86 0 -145.5 57t-59.5 146zM156 1360q0 -48 32 -85t78 -38q47 0 80 36.5t33 84.5q0 47 -32.5 78.5t-80.5 31.5q-47 0 -78.5 -31t-31.5 -77z" />
<glyph unicode="&#xb1;" horiz-adv-x="1783" d="M82 0v113h65q30 0 41 11.5t11 39.5v739h-109v115h109v108q0 113 46 207t139.5 153.5t217.5 59.5q40 0 76 -5.5t61 -12t27 -6.5l-45 -248l-105 20q10 32 11 61t-14 52t-50 23q-61 0 -97 -58.5t-36 -144.5v-209h361v108q0 113 46 207t139.5 153.5t217.5 59.5 q63 0 172.5 -20.5t120.5 -20.5q66 0 131 43v-1382q0 -53 51 -53h64v-113h-463v113h71q45 0 45 53v1126q0 65 -63 107.5t-131 42.5q-79 0 -124.5 -62.5t-45.5 -150.5v-211h203l-19 -127q-54 12 -119 12h-65v-737q0 -29 12 -41t41 -12h62v-113h-463v113h65q30 0 41 11.5 t11 39.5v739h-361v-737q0 -29 12 -41t41 -12h62v-113h-463z" />
<glyph unicode="&#xb2;" d="M102 420q0 147 73 214.5t216 67.5q81 0 146 -26q0 12 2 18q2 87 57.5 136t161.5 49q40 0 78.5 -17.5t60.5 -36t59 -55.5t54 -51q42 -37 103 -66.5t112 -29.5q47 0 76.5 25t29.5 67q0 20 -12 39t-12 30q0 14 16 22.5t33 6.5q22 -3 39 -14q17 -12 31 -53t14 -78 q0 -73 -40 -143.5t-110 -127t-174.5 -91t-224.5 -34.5q-97 0 -178.5 24t-137 81t-55.5 139q0 28 19 76q-59 26 -125 26q-99 0 -144 -42t-45 -123q0 -26 15 -60t14 -43q0 -21 -27 -29.5t-55 1.5q-38 12 -54 33.5t-16 64.5z" />
<glyph unicode="&#xb3;" d="M102 420q0 147 73 214.5t216 67.5q81 0 146 -26q0 12 2 18q2 87 57.5 136t161.5 49q40 0 78.5 -17.5t60.5 -36t59 -55.5t54 -51q42 -37 103 -66.5t112 -29.5q47 0 76.5 25t29.5 67q0 20 -12 39t-12 30q0 14 16 22.5t33 6.5q22 -3 39 -14q17 -12 31 -53t14 -78 q0 -73 -40 -143.5t-110 -127t-174.5 -91t-224.5 -34.5q-97 0 -178.5 24t-137 81t-55.5 139q0 28 19 76q-59 26 -125 26q-99 0 -144 -42t-45 -123q0 -26 15 -60t14 -43q0 -21 -27 -29.5t-55 1.5q-38 12 -54 33.5t-16 64.5z" />
<glyph unicode="&#xb4;" horiz-adv-x="921" d="M238 1294l354 269l92 -144l-403 -186z" />
<glyph unicode="&#xb5;" d="M102 420q0 147 73 214.5t216 67.5q81 0 146 -26q0 12 2 18q2 87 57.5 136t161.5 49q40 0 78.5 -17.5t60.5 -36t59 -55.5t54 -51q42 -37 103 -66.5t112 -29.5q47 0 76.5 25t29.5 67q0 20 -12 39t-12 30q0 14 16 22.5t33 6.5q22 -3 39 -14q17 -12 31 -53t14 -78 q0 -73 -40 -143.5t-110 -127t-174.5 -91t-224.5 -34.5q-97 0 -178.5 24t-137 81t-55.5 139q0 28 19 76q-59 26 -125 26q-99 0 -144 -42t-45 -123q0 -26 15 -60t14 -43q0 -21 -27 -29.5t-55 1.5q-38 12 -54 33.5t-16 64.5z" />
<glyph unicode="&#xb6;" horiz-adv-x="1304" d="M82 958q0 115 33 218t95.5 183.5t161 127.5t220.5 47h631v-113l-58 -2q-38 0 -49 -11t-12 -52l2 -1766h-549v113h133q53 0 53 66l2 602h-151q-122 0 -220.5 46.5t-161.5 127.5t-96.5 186.5t-33.5 226.5zM563 940q0 -436 137 -436q31 -2 45 -2v901h-40 q-66 0 -104.5 -115.5t-37.5 -347.5zM877 -291h96v1694h-96v-1694z" />
<glyph unicode="&#xb7;" horiz-adv-x="391" d="M61 743q0 55 42.5 90t99.5 35q52 0 89.5 -28.5t37.5 -73.5q0 -57 -43.5 -90t-104.5 -33q-52 0 -86.5 27.5t-34.5 72.5z" />
<glyph unicode="&#xb8;" horiz-adv-x="921" d="M258 -367l35 35q44 -41 94 -41q54 0 81.5 25.5t27.5 62.5q0 63 -41.5 85t-128.5 22l51 205h78l-35 -144q229 -19 229 -162q0 -79 -64 -121t-153 -40q-44 0 -94 20t-80 53z" />
<glyph unicode="&#xb9;" d="M102 420q0 147 73 214.5t216 67.5q81 0 146 -26q0 12 2 18q2 87 57.5 136t161.5 49q40 0 78.5 -17.5t60.5 -36t59 -55.5t54 -51q42 -37 103 -66.5t112 -29.5q47 0 76.5 25t29.5 67q0 20 -12 39t-12 30q0 14 16 22.5t33 6.5q22 -3 39 -14q17 -12 31 -53t14 -78 q0 -73 -40 -143.5t-110 -127t-174.5 -91t-224.5 -34.5q-97 0 -178.5 24t-137 81t-55.5 139q0 28 19 76q-59 26 -125 26q-99 0 -144 -42t-45 -123q0 -26 15 -60t14 -43q0 -21 -27 -29.5t-55 1.5q-38 12 -54 33.5t-16 64.5z" />
<glyph unicode="&#xba;" horiz-adv-x="913" d="M61 582v135h791v-135h-791zM80 1180q0 168 108.5 276.5t270.5 108.5q173 0 282 -104.5t109 -282.5q0 -177 -106 -284.5t-283 -107.5q-165 0 -272.5 109t-108.5 285zM262 1178q0 -122 51.5 -207.5t143.5 -85.5q97 0 155 87t58 206t-59 208t-154 89t-145 -87t-50 -210z" />
<glyph unicode="&#xbb;" horiz-adv-x="1220" d="M102 123v151l336 232l-336 231v152l504 -334v-98zM614 123v151l336 232l-336 231v152l504 -334v-98z" />
<glyph unicode="&#xbc;" d="M102 420q0 147 73 214.5t216 67.5q81 0 146 -26q0 12 2 18q2 87 57.5 136t161.5 49q40 0 78.5 -17.5t60.5 -36t59 -55.5t54 -51q42 -37 103 -66.5t112 -29.5q47 0 76.5 25t29.5 67q0 20 -12 39t-12 30q0 14 16 22.5t33 6.5q22 -3 39 -14q17 -12 31 -53t14 -78 q0 -73 -40 -143.5t-110 -127t-174.5 -91t-224.5 -34.5q-97 0 -178.5 24t-137 81t-55.5 139q0 28 19 76q-59 26 -125 26q-99 0 -144 -42t-45 -123q0 -26 15 -60t14 -43q0 -21 -27 -29.5t-55 1.5q-38 12 -54 33.5t-16 64.5z" />
<glyph unicode="&#xbd;" d="M102 420q0 147 73 214.5t216 67.5q81 0 146 -26q0 12 2 18q2 87 57.5 136t161.5 49q40 0 78.5 -17.5t60.5 -36t59 -55.5t54 -51q42 -37 103 -66.5t112 -29.5q47 0 76.5 25t29.5 67q0 20 -12 39t-12 30q0 14 16 22.5t33 6.5q22 -3 39 -14q17 -12 31 -53t14 -78 q0 -73 -40 -143.5t-110 -127t-174.5 -91t-224.5 -34.5q-97 0 -178.5 24t-137 81t-55.5 139q0 28 19 76q-59 26 -125 26q-99 0 -144 -42t-45 -123q0 -26 15 -60t14 -43q0 -21 -27 -29.5t-55 1.5q-38 12 -54 33.5t-16 64.5z" />
<glyph unicode="&#xbe;" d="M102 420q0 147 73 214.5t216 67.5q81 0 146 -26q0 12 2 18q2 87 57.5 136t161.5 49q40 0 78.5 -17.5t60.5 -36t59 -55.5t54 -51q42 -37 103 -66.5t112 -29.5q47 0 76.5 25t29.5 67q0 20 -12 39t-12 30q0 14 16 22.5t33 6.5q22 -3 39 -14q17 -12 31 -53t14 -78 q0 -73 -40 -143.5t-110 -127t-174.5 -91t-224.5 -34.5q-97 0 -178.5 24t-137 81t-55.5 139q0 28 19 76q-59 26 -125 26q-99 0 -144 -42t-45 -123q0 -26 15 -60t14 -43q0 -21 -27 -29.5t-55 1.5q-38 12 -54 33.5t-16 64.5z" />
<glyph unicode="&#xbf;" horiz-adv-x="913" d="M82 391q0 84 30.5 159t84 132t118 100.5t142.5 75.5l24 297l111 31l39 -389q-154 -60 -235 -152t-81 -242q0 -121 63.5 -206.5t168.5 -85.5q60 0 119.5 26t89.5 52l30 26l66 -86l-16.5 -16.5t-45.5 -37t-71.5 -47t-89.5 -37t-105 -16.5q-206 0 -324 106.5t-118 309.5z M403 1442q1 57 44.5 90t103.5 33q52 0 86 -28.5t33 -74.5q0 -55 -42.5 -90t-97.5 -33q-52 0 -89.5 29t-37.5 74z" />
<glyph unicode="&#xc0;" horiz-adv-x="1519" d="M20 0v113h56q19 -1 34 12t20.5 24t14.5 33l482 1268q17 46 -4 84h229l516 -1356q9 -24 28.5 -44.5t41.5 -20.5h61v-113h-510v113h66q18 0 28.5 20.5t3.5 44.5l-98 268h-583l-99 -266q-10 -28 1.5 -47.5t37.5 -19.5h39v-113h-365zM455 582h485q-15 42 -114 314.5 t-124 346.5q-94 -258 -247 -661zM526 1800l92 144l355 -269l-43 -61z" />
<glyph unicode="&#xc1;" horiz-adv-x="1519" d="M20 0v113h56q19 -1 34 12t20.5 24t14.5 33l482 1268q17 46 -4 84h229l516 -1356q9 -24 28.5 -44.5t41.5 -20.5h61v-113h-510v113h66q18 0 28.5 20.5t3.5 44.5l-98 268h-583l-99 -266q-10 -28 1.5 -47.5t37.5 -19.5h39v-113h-365zM455 582h485q-15 42 -114 314.5 t-124 346.5q-94 -258 -247 -661zM539 1675l354 269l92 -144l-403 -186z" />
<glyph unicode="&#xc2;" horiz-adv-x="1519" d="M20 0v113h56q19 -1 34 12t20.5 24t14.5 33l482 1268q17 46 -4 84h229l516 -1356q9 -24 28.5 -44.5t41.5 -20.5h61v-113h-510v113h66q18 0 28.5 20.5t3.5 44.5l-98 268h-583l-99 -266q-10 -28 1.5 -47.5t37.5 -19.5h39v-113h-365zM428 1669l254 254h139l254 -254l-53 -57 l-272 168l-271 -168zM455 582h485q-15 42 -114 314.5t-124 346.5q-94 -258 -247 -661z" />
<glyph unicode="&#xc3;" horiz-adv-x="1519" d="M20 0v113h56q19 -1 34 12t20.5 24t14.5 33l482 1268q17 46 -4 84h229l516 -1356q9 -24 28.5 -44.5t41.5 -20.5h61v-113h-510v113h66q18 0 28.5 20.5t3.5 44.5l-98 268h-583l-99 -266q-10 -28 1.5 -47.5t37.5 -19.5h39v-113h-365zM385 1677q36 43 58 67.5t52 52t54.5 41 t55.5 23t65 9.5q33 0 73 -27t77.5 -53.5t64.5 -26.5q54 0 84.5 19t79.5 76l63 -54q-65 -93 -130 -142.5t-140 -49.5q-31 0 -73.5 26.5t-81.5 53t-62 26.5q-51 0 -85.5 -20t-88.5 -78zM455 582h485q-15 42 -114 314.5t-124 346.5q-94 -258 -247 -661z" />
<glyph unicode="&#xc4;" horiz-adv-x="1519" d="M20 0v113h56q19 -1 34 12t20.5 24t14.5 33l482 1268q17 46 -4 84h229l516 -1356q9 -24 28.5 -44.5t41.5 -20.5h61v-113h-510v113h66q18 0 28.5 20.5t3.5 44.5l-98 268h-583l-99 -266q-10 -28 1.5 -47.5t37.5 -19.5h39v-113h-365zM426 1714q0 54 43.5 89.5t101.5 35.5 q42 0 78.5 -28.5t36.5 -69.5q0 -55 -40.5 -91t-100.5 -36q-44 0 -81.5 30t-37.5 70zM455 582h485q-15 42 -114 314.5t-124 346.5q-94 -258 -247 -661zM817 1714q0 54 44 89.5t102 35.5q42 0 78 -28.5t36 -69.5q-1 -55 -41.5 -91t-99.5 -36q-44 0 -81.5 30t-37.5 70z" />
<glyph unicode="&#xc5;" horiz-adv-x="1519" d="M20 0v113h56q19 -1 34 12t20.5 24t14.5 33l482 1268q17 46 -4 84h229l516 -1356q9 -24 28.5 -44.5t41.5 -20.5h61v-113h-510v113h66q18 0 28.5 20.5t3.5 44.5l-98 268h-583l-99 -266q-10 -28 1.5 -47.5t37.5 -19.5h39v-113h-365zM455 582h485q-15 42 -114 314.5 t-124 346.5q-94 -258 -247 -661zM575 1792q0 74 53 127t126 53q74 0 127 -52.5t53 -127.5q1 -73 -51.5 -125.5t-124.5 -52.5q-75 0 -129 52.5t-54 125.5zM662 1796q0 -40 28 -68t68 -28q38 0 67 28t29 66q0 39 -28.5 67.5t-65.5 28.5q-41 0 -69.5 -27.5t-28.5 -66.5z" />
<glyph unicode="&#xc6;" horiz-adv-x="2195" d="M20 0v115l50 -4q10 0 19.5 4t15.5 8t14.5 14.5t11.5 14.5t11 16.5t8 13.5q118 171 418 600t390 553q21 29 25 49t-4 28.5t-23 8.5h-43v113h1004q16 0 25.5 6t17.5 27l117 -25l-62 -323l-119 20q10 36 9.5 69t-9.5 44q-16 19 -24 26.5t-31 16t-57 8.5h-449v-504h414 q18 0 33.5 27.5t17.5 60.5l121 -22q-6 -33 -30.5 -159t-37.5 -194l-116 21q1 4 5 25t5 29t0 22.5t-6 25.5q-11 31 -62 31h-344v-631h467q55 0 87 7.5t55.5 32t36.5 58.5t30 99l123 -37l-96 -361l-117 23q3 26 -15.5 34.5t-64.5 8.5h-901v113h70q38 0 51.5 12t13.5 47v274 h-551q-21 -32 -66 -97.5t-81 -117t-37 -51.5q-16 -25 -2 -46t41 -21h39v-113h-398zM621 584h452v663q-367 -542 -452 -663z" />
<glyph unicode="&#xc7;" horiz-adv-x="1478" d="M72 774q0 236 106 417.5t288 277.5t408 96q92 0 169 -17.5t119 -35t48 -17.5q22 0 31 9t14 32l113 -27l-84 -354l-125 27q11 29 12 65.5t-12 65.5q-67 109 -254 112q-87 0 -167.5 -25t-150 -75.5t-121 -122t-81 -170t-29.5 -213.5q0 -205 76.5 -364.5t209 -245.5 t296.5 -86q73 0 140 16.5t111 40.5t77.5 48t49.5 40l15 17l86 -99q-217 -217 -514 -217l-20 -86q229 -19 229 -162q1 -78 -63.5 -120.5t-153.5 -40.5q-44 0 -94 20t-80 53l35 35q44 -41 94 -41q54 0 81 25.5t27 62.5q0 63 -41.5 85t-128.5 22l37 149q-228 15 -397 112.5 t-262.5 274.5t-93.5 416z" />
<glyph unicode="&#xc8;" horiz-adv-x="1331" d="M82 0v113h70q39 0 52 12t13 49v1184q0 37 -15.5 50t-54.5 13h-65v113h977q16 0 25.5 6t17.5 27l117 -25l-62 -323l-119 20q10 36 9.5 69t-9.5 44q-16 19 -24 26.5t-31 16t-57 8.5h-449v-504h416q20 0 33 26.5t16 61.5l121 -22q-6 -33 -30.5 -159t-37.5 -194l-114 23 q16 68 2 100q-11 31 -62 31h-344v-631h467q55 0 87 7.5t55.5 32t36.5 58.5t30 99l123 -37l-96 -361l-117 23q3 27 -14.5 35t-65.5 8h-901zM457 1798l92 144l354 -269l-43 -61z" />
<glyph unicode="&#xc9;" horiz-adv-x="1331" d="M82 0v113h70q39 0 52 12t13 49v1184q0 37 -15.5 50t-54.5 13h-65v113h977q16 0 25.5 6t17.5 27l117 -25l-62 -323l-119 20q10 36 9.5 69t-9.5 44q-16 19 -24 26.5t-31 16t-57 8.5h-449v-504h416q20 0 33 26.5t16 61.5l121 -22q-6 -33 -30.5 -159t-37.5 -194l-114 23 q16 68 2 100q-11 31 -62 31h-344v-631h467q55 0 87 7.5t55.5 32t36.5 58.5t30 99l123 -37l-96 -361l-117 23q3 27 -14.5 35t-65.5 8h-901zM485 1673l355 269l92 -144l-404 -186z" />
<glyph unicode="&#xca;" horiz-adv-x="1331" d="M82 0v113h70q39 0 52 12t13 49v1184q0 37 -15.5 50t-54.5 13h-65v113h977q16 0 25.5 6t17.5 27l117 -25l-62 -323l-119 20q10 36 9.5 69t-9.5 44q-16 19 -24 26.5t-31 16t-57 8.5h-449v-504h416q20 0 33 26.5t16 61.5l121 -22q-6 -33 -30.5 -159t-37.5 -194l-114 23 q16 68 2 100q-11 31 -62 31h-344v-631h467q55 0 87 7.5t55.5 32t36.5 58.5t30 99l123 -37l-96 -361l-117 23q3 27 -14.5 35t-65.5 8h-901zM354 1671l254 254h140l253 -254l-53 -57l-272 168l-270 -168z" />
<glyph unicode="&#xcb;" horiz-adv-x="1331" d="M82 0v113h70q39 0 52 12t13 49v1184q0 37 -15.5 50t-54.5 13h-65v113h977q16 0 25.5 6t17.5 27l117 -25l-62 -323l-119 20q10 36 9.5 69t-9.5 44q-16 19 -24 26.5t-31 16t-57 8.5h-449v-504h416q20 0 33 26.5t16 61.5l121 -22q-6 -33 -30.5 -159t-37.5 -194l-114 23 q16 68 2 100q-11 31 -62 31h-344v-631h467q55 0 87 7.5t55.5 32t36.5 58.5t30 99l123 -37l-96 -361l-117 23q3 27 -14.5 35t-65.5 8h-901zM352 1714q0 54 44 89.5t102 35.5q42 0 78 -28.5t36 -69.5q0 -55 -40.5 -91t-100.5 -36q-44 0 -81.5 30t-37.5 70zM743 1714 q0 54 44 89.5t102 35.5q42 0 78.5 -28.5t36.5 -69.5q-1 -55 -42 -91t-100 -36q-44 0 -81.5 30t-37.5 70z" />
<glyph unicode="&#xcc;" horiz-adv-x="694" d="M82 0v113h74q37 0 49 14t12 53v1174q0 38 -13 52.5t-48 14.5h-74v113h530v-113h-71q-37 0 -50.5 -14t-13.5 -53v-1174q0 -37 13.5 -52t48.5 -15h73v-113h-530zM115 1798l92 144l354 -269l-43 -61z" />
<glyph unicode="&#xcd;" horiz-adv-x="694" d="M82 0v113h74q37 0 49 14t12 53v1174q0 38 -13 52.5t-48 14.5h-74v113h530v-113h-71q-37 0 -50.5 -14t-13.5 -53v-1174q0 -37 13.5 -52t48.5 -15h73v-113h-530zM127 1675l354 269l92 -144l-403 -186z" />
<glyph unicode="&#xce;" horiz-adv-x="694" d="M31 1671l254 254h139l254 -254l-53 -57l-273 168l-270 -168zM82 0v113h74q37 0 49 14t12 53v1174q0 38 -13 52.5t-48 14.5h-74v113h530v-113h-71q-37 0 -50.5 -14t-13.5 -53v-1174q0 -37 13.5 -52t48.5 -15h73v-113h-530z" />
<glyph unicode="&#xcf;" horiz-adv-x="694" d="M31 1714q0 54 43.5 89.5t101.5 35.5q42 0 78.5 -28.5t36.5 -69.5q0 -55 -40.5 -91t-100.5 -36q-44 0 -81.5 30t-37.5 70zM82 0v113h74q37 0 49 14t12 53v1174q0 38 -13 52.5t-48 14.5h-74v113h530v-113h-71q-37 0 -50.5 -14t-13.5 -53v-1174q0 -37 13.5 -52t48.5 -15h73 v-113h-530zM422 1714q0 54 43.5 89.5t101.5 35.5q42 0 78.5 -28.5t36.5 -69.5q-1 -55 -41.5 -91t-99.5 -36q-44 0 -81.5 30t-37.5 70z" />
<glyph unicode="&#xd0;" horiz-adv-x="1601" d="M80 707v129h135v522q0 37 -12.5 49t-48.5 12h-72v115h629q388 0 613.5 -195.5t225.5 -525.5q0 -371 -218 -592t-603 -221h-647v115h72q38 0 49.5 12t11.5 49v531h-135zM475 131h139q170 0 299 51.5t206.5 144t116 211.5t38.5 263q1 117 -36 223.5t-105.5 191t-178 135 t-243.5 50.5h-236v-565h279v-129h-279v-576z" />
<glyph unicode="&#xd1;" horiz-adv-x="1636" d="M82 0v113h65q37 0 50.5 14.5t13.5 52.5v1174q0 37 -13.5 52t-47.5 15h-68v113h373q4 -47 24 -76l811 -1100v998q0 35 -14 50t-45 15h-66v113h400v-113h-56q-34 0 -47.5 -14.5t-13.5 -52.5v-1252q0 -26 6 -51.5t12 -38.5l7 -12h-238l-866 1167v-985q0 -39 13 -54t46 -15 h66v-113h-412zM492 1679q46 55 72.5 83t62.5 57.5t71 41t78 11.5q33 0 73 -27t77.5 -53.5t64.5 -26.5q54 0 84.5 19t79.5 76l64 -54q-65 -93 -130.5 -142.5t-140.5 -49.5q-31 0 -73.5 26.5t-81.5 53t-62 26.5q-51 0 -85.5 -20t-88.5 -78z" />
<glyph unicode="&#xd2;" horiz-adv-x="1765" d="M72 768q0 232 108 415.5t290.5 282.5t403.5 99q163 0 313.5 -59.5t262 -162t178 -249.5t66.5 -314q0 -190 -67 -346t-179.5 -256t-257.5 -154.5t-305 -54.5q-234 0 -417.5 94t-289.5 276.5t-106 428.5zM350 774q0 -126 37.5 -247t104 -218t169 -156t222.5 -59t223.5 59.5 t171 156.5t105.5 219.5t38 250.5q0 126 -38 244t-106 211t-171.5 149t-224.5 56q-118 0 -219.5 -56t-168.5 -149.5t-105 -213t-38 -247.5zM647 1798l92 144l355 -269l-43 -61z" />
<glyph unicode="&#xd3;" horiz-adv-x="1765" d="M72 768q0 232 108 415.5t290.5 282.5t403.5 99q163 0 313.5 -59.5t262 -162t178 -249.5t66.5 -314q0 -190 -67 -346t-179.5 -256t-257.5 -154.5t-305 -54.5q-234 0 -417.5 94t-289.5 276.5t-106 428.5zM350 774q0 -126 37.5 -247t104 -218t169 -156t222.5 -59t223.5 59.5 t171 156.5t105.5 219.5t38 250.5q0 126 -38 244t-106 211t-171.5 149t-224.5 56q-118 0 -219.5 -56t-168.5 -149.5t-105 -213t-38 -247.5zM672 1675l354 269l92 -144l-403 -186z" />
<glyph unicode="&#xd4;" horiz-adv-x="1765" d="M72 768q0 232 108 415.5t290.5 282.5t403.5 99q163 0 313.5 -59.5t262 -162t178 -249.5t66.5 -314q0 -190 -67 -346t-179.5 -256t-257.5 -154.5t-305 -54.5q-234 0 -417.5 94t-289.5 276.5t-106 428.5zM350 774q0 -126 37.5 -247t104 -218t169 -156t222.5 -59t223.5 59.5 t171 156.5t105.5 219.5t38 250.5q0 126 -38 244t-106 211t-171.5 149t-224.5 56q-118 0 -219.5 -56t-168.5 -149.5t-105 -213t-38 -247.5zM551 1669l254 254h139l254 -254l-53 -57l-273 168l-270 -168z" />
<glyph unicode="&#xd5;" horiz-adv-x="1765" d="M72 768q0 232 108 415.5t290.5 282.5t403.5 99q163 0 313.5 -59.5t262 -162t178 -249.5t66.5 -314q0 -190 -67 -346t-179.5 -256t-257.5 -154.5t-305 -54.5q-234 0 -417.5 94t-289.5 276.5t-106 428.5zM350 774q0 -126 37.5 -247t104 -218t169 -156t222.5 -59t223.5 59.5 t171 156.5t105.5 219.5t38 250.5q0 126 -38 244t-106 211t-171.5 149t-224.5 56q-118 0 -219.5 -56t-168.5 -149.5t-105 -213t-38 -247.5zM504 1677q46 55 72.5 83t62.5 57.5t71 41t78 11.5q40 0 112 -53.5t104 -53.5q54 0 84 18.5t79 76.5l64 -54q-65 -93 -130 -142.5 t-140 -49.5q-31 0 -73.5 26.5t-82 53t-62.5 26.5q-51 0 -85.5 -20t-88.5 -78z" />
<glyph unicode="&#xd6;" horiz-adv-x="1765" d="M72 768q0 232 108 415.5t290.5 282.5t403.5 99q163 0 313.5 -59.5t262 -162t178 -249.5t66.5 -314q0 -190 -67 -346t-179.5 -256t-257.5 -154.5t-305 -54.5q-234 0 -417.5 94t-289.5 276.5t-106 428.5zM350 774q0 -126 37.5 -247t104 -218t169 -156t222.5 -59t223.5 59.5 t171 156.5t105.5 219.5t38 250.5q0 126 -38 244t-106 211t-171.5 149t-224.5 56q-118 0 -219.5 -56t-168.5 -149.5t-105 -213t-38 -247.5zM555 1714q0 54 43.5 89.5t101.5 35.5q42 0 78.5 -28.5t36.5 -69.5q0 -55 -40.5 -91t-100.5 -36q-44 0 -81.5 30t-37.5 70zM946 1714 q0 54 44 89.5t102 35.5q42 0 78 -28.5t36 -69.5q-1 -55 -41.5 -91t-99.5 -36q-44 0 -81.5 30t-37.5 70z" />
<glyph unicode="&#xd7;" d="M102 420q0 147 73 214.5t216 67.5q81 0 146 -26q0 12 2 18q2 87 57.5 136t161.5 49q40 0 78.5 -17.5t60.5 -36t59 -55.5t54 -51q42 -37 103 -66.5t112 -29.5q47 0 76.5 25t29.5 67q0 20 -12 39t-12 30q0 14 16 22.5t33 6.5q22 -3 39 -14q17 -12 31 -53t14 -78 q0 -73 -40 -143.5t-110 -127t-174.5 -91t-224.5 -34.5q-97 0 -178.5 24t-137 81t-55.5 139q0 28 19 76q-59 26 -125 26q-99 0 -144 -42t-45 -123q0 -26 15 -60t14 -43q0 -21 -27 -29.5t-55 1.5q-38 12 -54 33.5t-16 64.5z" />
<glyph unicode="&#xd8;" horiz-adv-x="1765" d="M72 768q0 174 63.5 323.5t172 252t256 161t313.5 58.5q204 0 360 -76l141 239l111 -65l-141 -234q162 -105 255 -273.5t93 -373.5q0 -188 -66.5 -344t-179 -257t-258 -156.5t-307.5 -55.5q-196 0 -371 74l-115 -193l-102 62q97 163 111 188q-150 96 -243 275.5t-93 394.5 zM350 776q0 -133 46.5 -269t123.5 -226l637 1071q-112 84 -272 84q-152 0 -276 -91t-191.5 -242t-67.5 -327zM608 190q126 -96 277 -96q121 0 224.5 60.5t171.5 158.5t106 220t38 247q0 138 -45 265.5t-129 220.5z" />
<glyph unicode="&#xd9;" horiz-adv-x="1566" d="M72 1421v113h508v-113h-58q-35 0 -51 -15.5t-16 -51.5v-836q0 -99 20 -170.5t53 -114.5t86 -68t108.5 -33.5t131.5 -8.5q167 0 272 101t105 276l2 823q0 54 -16 76t-58 22h-53v113h399v-113h-49q-35 0 -48 -22t-13 -76l2 -825q0 -259 -155.5 -394t-432.5 -135 q-136 0 -245.5 30.5t-192.5 92.5t-128.5 164t-45.5 236v862q0 35 -15.5 51t-50.5 16h-59zM612 1798l93 144l354 -269l-43 -61z" />
<glyph unicode="&#xda;" horiz-adv-x="1566" d="M72 1421v113h508v-113h-58q-35 0 -51 -15.5t-16 -51.5v-836q0 -99 20 -170.5t53 -114.5t86 -68t108.5 -33.5t131.5 -8.5q167 0 272 101t105 276l2 823q0 54 -16 76t-58 22h-53v113h399v-113h-49q-35 0 -48 -22t-13 -76l2 -825q0 -259 -155.5 -394t-432.5 -135 q-136 0 -245.5 30.5t-192.5 92.5t-128.5 164t-45.5 236v862q0 35 -15.5 51t-50.5 16h-59zM623 1673l354 269l92 -144l-403 -186z" />
<glyph unicode="&#xdb;" horiz-adv-x="1566" d="M72 1421v113h508v-113h-58q-35 0 -51 -15.5t-16 -51.5v-836q0 -99 20 -170.5t53 -114.5t86 -68t108.5 -33.5t131.5 -8.5q167 0 272 101t105 276l2 823q0 54 -16 76t-58 22h-53v113h399v-113h-49q-35 0 -48 -22t-13 -76l2 -825q0 -259 -155.5 -394t-432.5 -135 q-136 0 -245.5 30.5t-192.5 92.5t-128.5 164t-45.5 236v862q0 35 -15.5 51t-50.5 16h-59zM510 1669l254 254h139l254 -254l-53 -57l-273 168l-270 -168z" />
<glyph unicode="&#xdc;" horiz-adv-x="1566" d="M72 1421v113h508v-113h-58q-35 0 -51 -15.5t-16 -51.5v-836q0 -99 20 -170.5t53 -114.5t86 -68t108.5 -33.5t131.5 -8.5q167 0 272 101t105 276l2 823q0 54 -16 76t-58 22h-53v113h399v-113h-49q-35 0 -48 -22t-13 -76l2 -825q0 -259 -155.5 -394t-432.5 -135 q-136 0 -245.5 30.5t-192.5 92.5t-128.5 164t-45.5 236v862q0 35 -15.5 51t-50.5 16h-59zM518 1714q0 54 44 89.5t102 35.5q42 0 78 -28.5t36 -69.5q0 -55 -40.5 -91t-100.5 -36q-44 0 -81.5 30t-37.5 70zM909 1714q0 54 44 89.5t102 35.5q42 0 78 -28.5t36 -69.5 q-1 -55 -41.5 -91t-99.5 -36q-44 0 -81.5 30t-37.5 70z" />
<glyph unicode="&#xdd;" horiz-adv-x="1380" d="M20 1421v113h521v-113h-45q-34 0 -42 -20.5t15 -61.5q17 -30 136 -220t167 -263q11 19 279 479q50 86 -13 86h-43v113h365v-113h-2h-2h-2h-2h-2h-2h-2h-2h-2h-9q-41 0 -58 -13.5t-46 -61.5q-12 -19 -106.5 -174t-184.5 -302t-109 -176v-512q0 -38 13 -53.5t49 -15.5h74 v-113h-531v113h74q38 0 49.5 14.5t11.5 52.5v510q-21 35 -215 341t-207 327q-21 35 -40.5 49.5t-49.5 13.5h-37zM539 1673l354 269l92 -144l-403 -186z" />
<glyph unicode="&#xde;" horiz-adv-x="1323" d="M82 0v113h78q57 0 57 63v1180q0 37 -13.5 51t-45.5 14h-74v113h528v-113h-80q-29 0 -42 -14.5t-13 -48.5v-103h250q117 0 210 -25.5t153 -67t99.5 -99.5t56 -118.5t16.5 -127.5q0 -90 -34.5 -170.5t-102.5 -147t-183 -106t-262 -39.5h-203v-176q0 -65 51 -65h84v-113 h-530zM477 479l158 2q160 0 269.5 100.5t109.5 241.5q0 73 -27 137t-74 97q-60 42 -129.5 54.5t-216.5 12.5h-90v-645z" />
<glyph unicode="&#xdf;" horiz-adv-x="1327" d="M82 0v111h72q45 0 45 47v745h-107v115h107v98q0 197 116 315.5t289 118.5q201 0 305.5 -67.5t104.5 -216.5q0 -33 -9 -62.5t-32.5 -61.5t-38.5 -49.5t-53.5 -56l-51.5 -51.5q-25 -25 -34.5 -35.5t-21 -33t-11.5 -46.5q0 -18 17.5 -39.5t53.5 -47t63 -43t75 -45.5t61 -36 q244 -149 244 -352q0 -152 -86.5 -237.5t-237.5 -85.5q-48 0 -108 19.5t-76 19.5q-4 0 -6.5 -0.5t-4.5 -1.5t-3 -4t-1.5 -5l-2 -8l-2.5 -10l-97 -21l-92 293l105 39q42 -109 103 -154t165 -45q59 0 94 41t35 101q0 44 -25.5 91t-70.5 75q-27 17 -77 46.5t-81 48.5t-73 47.5 t-68.5 53t-51.5 55.5t-37 65t-12 71q0 44 21.5 87.5t52.5 81t62.5 77t53 91.5t21.5 109q0 109 -41 152t-131 43q-79 0 -126.5 -55t-47.5 -134l-2 -1097q0 -45 43 -45h64v-111h-453z" />
<glyph unicode="&#xe0;" horiz-adv-x="1009" d="M53 231q0 95 63.5 165t159.5 112q131 57 340 76v174q0 48 -34.5 84.5t-92.5 36.5q-114 0 -272 -109l-67 100q220 162 428 162q128 0 198 -66t70 -188v-626q0 -32 26 -35q22 0 74 10l4 -113q-100 -8 -151 -12l-176 -18v108q-53 -48 -124.5 -79t-150.5 -31 q-134 0 -214.5 62t-80.5 187zM287 252q0 -49 33 -88t90 -39q77 0 141.5 45t64.5 92v195q0 8 -8 8q-47 -6 -79.5 -11.5t-82.5 -21t-81 -36t-54.5 -58t-23.5 -86.5zM305 1323l92 143l355 -268l-43 -61z" />
<glyph unicode="&#xe1;" horiz-adv-x="1009" d="M53 231q0 95 63.5 165t159.5 112q131 57 340 76v174q0 48 -34.5 84.5t-92.5 36.5q-114 0 -272 -109l-67 100q220 162 428 162q128 0 198 -66t70 -188v-626q0 -32 26 -35q22 0 74 10l4 -113q-100 -8 -151 -12l-176 -18v108q-53 -48 -124.5 -79t-150.5 -31 q-134 0 -214.5 62t-80.5 187zM287 252q0 -49 33 -88t90 -39q77 0 141.5 45t64.5 92v195q0 8 -8 8q-47 -6 -79.5 -11.5t-82.5 -21t-81 -36t-54.5 -58t-23.5 -86.5zM311 1200l355 268l92 -143l-404 -186z" />
<glyph unicode="&#xe2;" horiz-adv-x="1009" d="M53 231q0 95 63.5 165t159.5 112q131 57 340 76v174q0 48 -34.5 84.5t-92.5 36.5q-114 0 -272 -109l-67 100q220 162 428 162q128 0 198 -66t70 -188v-626q0 -32 26 -35q22 0 74 10l4 -113q-100 -8 -151 -12l-176 -18v108q-53 -48 -124.5 -79t-150.5 -31 q-134 0 -214.5 62t-80.5 187zM197 1196l254 254h139l254 -254l-53 -57l-273 168l-270 -168zM287 252q0 -49 33 -88t90 -39q77 0 141.5 45t64.5 92v195q0 8 -8 8q-47 -6 -79.5 -11.5t-82.5 -21t-81 -36t-54.5 -58t-23.5 -86.5z" />
<glyph unicode="&#xe3;" horiz-adv-x="1009" d="M53 231q0 95 63.5 165t159.5 112q131 57 340 76v174q0 48 -34.5 84.5t-92.5 36.5q-114 0 -272 -109l-67 100q220 162 428 162q128 0 198 -66t70 -188v-626q0 -32 26 -35q22 0 74 10l4 -113q-100 -8 -151 -12l-176 -18v108q-53 -48 -124.5 -79t-150.5 -31 q-134 0 -214.5 62t-80.5 187zM160 1204q46 55 72.5 83t62.5 57.5t71 41t78 11.5q26 0 57 -16.5t55 -37t52.5 -37t50.5 -16.5q55 0 85.5 18.5t78.5 75.5l64 -53q-65 -93 -130.5 -142.5t-140.5 -49.5q-31 0 -73.5 26.5t-81.5 53t-62 26.5q-51 0 -85.5 -20t-88.5 -78zM287 252 q0 -49 33 -88t90 -39q77 0 141.5 45t64.5 92v195q0 8 -8 8q-47 -6 -79.5 -11.5t-82.5 -21t-81 -36t-54.5 -58t-23.5 -86.5z" />
<glyph unicode="&#xe4;" horiz-adv-x="1009" d="M53 231q0 95 63.5 165t159.5 112q131 57 340 76v174q0 48 -34.5 84.5t-92.5 36.5q-114 0 -272 -109l-67 100q220 162 428 162q128 0 198 -66t70 -188v-626q0 -32 26 -35q22 0 74 10l4 -113q-100 -8 -151 -12l-176 -18v108q-53 -48 -124.5 -79t-150.5 -31 q-134 0 -214.5 62t-80.5 187zM182 1239q0 54 44 89.5t102 35.5q42 0 78 -28.5t36 -69.5q0 -55 -40.5 -91t-100.5 -36q-44 0 -81.5 30t-37.5 70zM287 252q0 -49 33 -88t90 -39q77 0 141.5 45t64.5 92v195q0 8 -8 8q-47 -6 -79.5 -11.5t-82.5 -21t-81 -36t-54.5 -58 t-23.5 -86.5zM573 1239q0 54 44 89.5t102 35.5q42 0 78.5 -28.5t36.5 -69.5q-1 -55 -42 -91t-100 -36q-44 0 -81.5 30t-37.5 70z" />
<glyph unicode="&#xe5;" horiz-adv-x="1009" d="M53 231q0 95 63.5 165t159.5 112q131 57 340 76v174q0 48 -34.5 84.5t-92.5 36.5q-114 0 -272 -109l-67 100q220 162 428 162q128 0 198 -66t70 -188v-626q0 -32 26 -35q22 0 74 10l4 -113q-100 -8 -151 -12l-176 -18v108q-53 -48 -124.5 -79t-150.5 -31 q-134 0 -214.5 62t-80.5 187zM287 252q0 -49 33 -88t90 -39q77 0 141.5 45t64.5 92v195q0 8 -8 8q-47 -6 -79.5 -11.5t-82.5 -21t-81 -36t-54.5 -58t-23.5 -86.5zM342 1315q0 75 53 127.5t125 52.5q74 0 127 -52.5t53 -127.5q1 -73 -51.5 -125.5t-124.5 -52.5 q-75 0 -128.5 52.5t-53.5 125.5zM428 1319q0 -40 28 -68t68 -28q39 0 68 28t29 66q0 39 -29 67.5t-66 28.5q-41 0 -69.5 -27.5t-28.5 -66.5z" />
<glyph unicode="&#xe6;" horiz-adv-x="1642" d="M63 244q0 97 64 169t160 109q141 54 340 62v174q0 48 -34.5 84.5t-94.5 36.5q-113 0 -271 -109l-67 100q220 162 430 162q161 0 227 -104q135 104 297 104q172 0 293 -101.5t141 -236.5l-680 -252q21 -137 103 -225t209 -88q112 0 179.5 29.5t145.5 95.5l70 -90 q-56 -47 -95 -74t-92.5 -54.5t-115 -39.5t-137.5 -12q-133 0 -241 47t-175 131q-167 -178 -361 -178q-142 0 -218.5 65.5t-76.5 194.5zM297 254q0 -49 32.5 -88t88.5 -39q78 0 159.5 56.5t75.5 101.5q-26 101 -26 172q0 8 -9 8q-54 0 -105.5 -9.5t-102.5 -31.5t-82 -66 t-31 -104zM854 578q44 15 181.5 67.5t178.5 67.5q21 9 26 14.5t5 17.5q0 65 -47.5 111t-140.5 47q-84 0 -143 -94t-60 -231z" />
<glyph unicode="&#xe7;" horiz-adv-x="1062" d="M61 506q0 223 149.5 374.5t377.5 151.5q45 0 124.5 -15.5t90.5 -15.5q23 0 32.5 7t18.5 28l111 -18l-64 -311l-119 20q22 81 0 123q-34 63 -190 63q-128 0 -211.5 -97t-83.5 -249q0 -193 92.5 -316.5t237.5 -123.5q89 0 154.5 30t133.5 91l76 -84q-152 -165 -375 -178 l-24 -103q229 -19 229 -162q0 -79 -64 -121t-153 -40q-44 0 -94 20t-80 53l35 35q44 -41 94 -41q54 0 81.5 25.5t27.5 62.5q0 63 -41.5 85t-128.5 22l41 162q-206 9 -342 158t-136 364z" />
<glyph unicode="&#xe8;" horiz-adv-x="1083" d="M61 524q0 134 65.5 251t180.5 187t250 70q172 0 293.5 -101.5t142.5 -236.5l-682 -250q21 -138 103.5 -226.5t210.5 -88.5q102 0 175.5 32.5t147.5 96.5l70 -94q-56 -47 -95 -74t-92.5 -54.5t-114.5 -39.5t-136 -12q-162 0 -281 72t-178.5 193t-59.5 275zM299 580 q83 28 363 133q20 7 25 13t5 19q0 63 -48.5 110.5t-131.5 47.5q-96 0 -154.5 -93t-58.5 -230zM317 1323l93 143l354 -268l-43 -61z" />
<glyph unicode="&#xe9;" horiz-adv-x="1083" d="M61 524q0 134 65.5 251t180.5 187t250 70q172 0 293.5 -101.5t142.5 -236.5l-682 -250q21 -138 103.5 -226.5t210.5 -88.5q102 0 175.5 32.5t147.5 96.5l70 -94q-56 -47 -95 -74t-92.5 -54.5t-114.5 -39.5t-136 -12q-162 0 -281 72t-178.5 193t-59.5 275zM299 580 q83 28 363 133q20 7 25 13t5 19q0 63 -48.5 110.5t-131.5 47.5q-96 0 -154.5 -93t-58.5 -230zM326 1200l354 268l92 -143l-403 -186z" />
<glyph unicode="&#xea;" horiz-adv-x="1083" d="M61 524q0 134 65.5 251t180.5 187t250 70q172 0 293.5 -101.5t142.5 -236.5l-682 -250q21 -138 103.5 -226.5t210.5 -88.5q102 0 175.5 32.5t147.5 96.5l70 -94q-56 -47 -95 -74t-92.5 -54.5t-114.5 -39.5t-136 -12q-162 0 -281 72t-178.5 193t-59.5 275zM217 1196 l254 254h139l254 -254l-53 -57l-272 168l-271 -168zM299 580q83 28 363 133q20 7 25 13t5 19q0 63 -48.5 110.5t-131.5 47.5q-96 0 -154.5 -93t-58.5 -230z" />
<glyph unicode="&#xeb;" horiz-adv-x="1083" d="M61 524q0 134 65.5 251t180.5 187t250 70q172 0 293.5 -101.5t142.5 -236.5l-682 -250q21 -138 103.5 -226.5t210.5 -88.5q102 0 175.5 32.5t147.5 96.5l70 -94q-56 -47 -95 -74t-92.5 -54.5t-114.5 -39.5t-136 -12q-162 0 -281 72t-178.5 193t-59.5 275zM215 1239 q0 54 43.5 89.5t101.5 35.5q42 0 78.5 -28.5t36.5 -69.5q0 -55 -40.5 -91t-100.5 -36q-44 0 -81.5 30t-37.5 70zM299 580q83 28 363 133q20 7 25 13t5 19q0 63 -48.5 110.5t-131.5 47.5q-96 0 -154.5 -93t-58.5 -230zM606 1239q0 54 44 89.5t102 35.5q42 0 78 -28.5 t36 -69.5q-1 -55 -41.5 -91t-99.5 -36q-44 0 -81.5 30t-37.5 70z" />
<glyph unicode="&#xec;" horiz-adv-x="593" d="M61 850l367 170v-854q0 -25 15.5 -39t35.5 -14h64v-113h-463v113h70q47 0 47 53v579q0 35 -11 35q-6 1 -25.5 -8t-35.5 -18l-16 -9zM66 1323l92 143l354 -268l-43 -61z" />
<glyph unicode="&#xed;" horiz-adv-x="593" d="M61 850l367 170v-854q0 -25 15.5 -39t35.5 -14h64v-113h-463v113h70q47 0 47 53v579q0 35 -11 35q-6 1 -25.5 -8t-35.5 -18l-16 -9zM80 1200l354 268l92 -143l-403 -186z" />
<glyph unicode="&#xee;" horiz-adv-x="593" d="M-27 1196l254 254h140l254 -254l-54 -57l-272 168l-270 -168zM61 850l367 170v-854q0 -25 15.5 -39t35.5 -14h64v-113h-463v113h70q47 0 47 53v579q0 35 -11 35q-6 1 -25.5 -8t-35.5 -18l-16 -9z" />
<glyph unicode="&#xef;" horiz-adv-x="593" d="M-31 1239q0 54 44 89.5t102 35.5q42 0 78 -28.5t36 -69.5q0 -55 -40.5 -91t-100.5 -36q-44 0 -81.5 30t-37.5 70zM61 850l367 170v-854q0 -25 15.5 -39t35.5 -14h64v-113h-463v113h70q47 0 47 53v579q0 35 -11 35q-6 1 -25.5 -8t-35.5 -18l-16 -9zM360 1239q0 54 44 89.5 t102 35.5q42 0 78.5 -28.5t36.5 -69.5q-1 -55 -42 -91t-100 -36q-44 0 -81.5 30t-37.5 70z" />
<glyph unicode="&#xf0;" horiz-adv-x="1208" d="M72 508q0 155 70 275.5t187.5 184.5t260.5 64q67 0 132.5 -17t100.5 -44v129h-309v129h309v71q0 16 -8 19q-5 1 -11.5 -0.5t-16 -6t-16.5 -8.5t-18 -10.5t-16 -9.5l-49 105l367 167v-327h135v-129h-135v-959q0 -25 32 -22l70 8v-113q-111 -10 -166 -14l-157 -14v102 q-86 -104 -254 -104q-238 0 -373 134t-135 390zM319 502q0 -188 80 -287.5t224 -99.5q75 0 138.5 54.5t63.5 135.5v449q0 67 -65.5 113t-165.5 46q-120 0 -197.5 -115.5t-77.5 -295.5z" />
<glyph unicode="&#xf1;" horiz-adv-x="1230" d="M63 848l351 170v-168q26 28 73 70q147 112 283 112q150 0 224.5 -91.5t74.5 -242.5v-534q0 -29 11 -40t42 -11h60v-113h-457v113h59q31 0 43.5 12t12.5 39v506q0 95 -30.5 139.5t-107.5 44.5q-102 0 -187 -72.5t-85 -130.5v-487q0 -28 11.5 -39.5t41.5 -11.5h62v-113 h-461v113h66q30 0 40.5 12t10.5 43v580q0 28 -11 32t-79 -32zM274 1202q36 43 58 67.5t52 52t54.5 41t55.5 23t65 9.5q41 0 112 -53.5t103 -53.5q55 0 85.5 18.5t78.5 75.5l63 -53q-65 -93 -130 -142.5t-140 -49.5q-31 0 -73.5 26.5t-81.5 53t-62 26.5q-51 0 -85.5 -20 t-88.5 -78z" />
<glyph unicode="&#xf2;" horiz-adv-x="1157" d="M61 512q0 112 41 209.5t111.5 165t165.5 106.5t201 39q232 0 374 -141t142 -383q0 -237 -144 -380.5t-383 -143.5q-221 0 -364.5 146t-143.5 382zM303 508q0 -105 29 -192.5t91 -144t146 -56.5q135 0 210 113t75 280q0 104 -32 194t-97 148.5t-150 58.5 q-87 0 -150.5 -59.5t-92.5 -148.5t-29 -193zM342 1325l92 143l354 -268l-43 -61z" />
<glyph unicode="&#xf3;" horiz-adv-x="1157" d="M61 512q0 112 41 209.5t111.5 165t165.5 106.5t201 39q232 0 374 -141t142 -383q0 -237 -144 -380.5t-383 -143.5q-221 0 -364.5 146t-143.5 382zM303 508q0 -105 29 -192.5t91 -144t146 -56.5q135 0 210 113t75 280q0 104 -32 194t-97 148.5t-150 58.5 q-87 0 -150.5 -59.5t-92.5 -148.5t-29 -193zM377 1200l354 268l92 -143l-403 -186z" />
<glyph unicode="&#xf4;" horiz-adv-x="1157" d="M61 512q0 112 41 209.5t111.5 165t165.5 106.5t201 39q232 0 374 -141t142 -383q0 -237 -144 -380.5t-383 -143.5q-221 0 -364.5 146t-143.5 382zM248 1196l254 254h139l254 -254l-53 -57l-273 168l-270 -168zM303 508q0 -105 29 -192.5t91 -144t146 -56.5q135 0 210 113 t75 280q0 104 -32 194t-97 148.5t-150 58.5q-87 0 -150.5 -59.5t-92.5 -148.5t-29 -193z" />
<glyph unicode="&#xf5;" horiz-adv-x="1157" d="M61 512q0 112 41 209.5t111.5 165t165.5 106.5t201 39q232 0 374 -141t142 -383q0 -237 -144 -380.5t-383 -143.5q-221 0 -364.5 146t-143.5 382zM221 1202q36 43 58 67.5t52 52t54.5 41t55.5 23t65 9.5q26 0 57 -16.5t55 -37t52.5 -37t50.5 -16.5q55 0 85.5 18.5 t78.5 75.5l63 -53q-65 -93 -130 -142.5t-140 -49.5q-31 0 -73.5 26.5t-81.5 53t-62 26.5q-51 0 -85.5 -20t-88.5 -78zM303 508q0 -105 29 -192.5t91 -144t146 -56.5q135 0 210 113t75 280q0 104 -32 194t-97 148.5t-150 58.5q-87 0 -150.5 -59.5t-92.5 -148.5t-29 -193z" />
<glyph unicode="&#xf6;" horiz-adv-x="1157" d="M61 512q0 112 41 209.5t111.5 165t165.5 106.5t201 39q232 0 374 -141t142 -383q0 -237 -144 -380.5t-383 -143.5q-221 0 -364.5 146t-143.5 382zM264 1239q0 54 44 89.5t102 35.5q42 0 78 -28.5t36 -69.5q0 -55 -40.5 -91t-100.5 -36q-44 0 -81.5 30t-37.5 70zM303 508 q0 -105 29 -192.5t91 -144t146 -56.5q135 0 210 113t75 280q0 104 -32 194t-97 148.5t-150 58.5q-87 0 -150.5 -59.5t-92.5 -148.5t-29 -193zM655 1239q0 54 44 89.5t102 35.5q42 0 78 -28.5t36 -69.5q-1 -55 -41.5 -91t-99.5 -36q-44 0 -81.5 30t-37.5 70z" />
<glyph unicode="&#xf7;" d="M102 420q0 147 73 214.5t216 67.5q81 0 146 -26q0 12 2 18q2 87 57.5 136t161.5 49q40 0 78.5 -17.5t60.5 -36t59 -55.5t54 -51q42 -37 103 -66.5t112 -29.5q47 0 76.5 25t29.5 67q0 20 -12 39t-12 30q0 14 16 22.5t33 6.5q22 -3 39 -14q17 -12 31 -53t14 -78 q0 -73 -40 -143.5t-110 -127t-174.5 -91t-224.5 -34.5q-97 0 -178.5 24t-137 81t-55.5 139q0 28 19 76q-59 26 -125 26q-99 0 -144 -42t-45 -123q0 -26 15 -60t14 -43q0 -21 -27 -29.5t-55 1.5q-38 12 -54 33.5t-16 64.5z" />
<glyph unicode="&#xf8;" horiz-adv-x="1157" d="M61 512q0 112 40 209.5t108 165.5t161.5 106.5t198.5 38.5q136 0 248 -53l113 186l106 -53l-116 -194q176 -152 176 -410q0 -231 -140.5 -377.5t-384.5 -146.5q-109 0 -188 32l-98 -170l-111 60q86 146 100 166q-96 67 -154.5 182.5t-58.5 257.5zM303 508q0 -165 70 -272 l360 602q-27 30 -71.5 49.5t-92.5 19.5q-87 0 -149 -58.5t-89.5 -146.5t-27.5 -194zM457 145q47 -30 114 -30q87 0 152.5 56.5t98 145t32.5 191.5q3 126 -45 221z" />
<glyph unicode="&#xf9;" horiz-adv-x="1212" d="M51 854l355 164v-678q0 -102 47 -154.5t127 -52.5q101 0 169 58t68 133v432q0 26 -14 26q-7 0 -19.5 -6t-26.5 -14t-18 -10l-47 104l357 162v-873q0 -12 6.5 -20.5t15.5 -7.5l80 8v-111q-51 -4 -156.5 -16t-156.5 -16v149q-61 -74 -137 -111.5t-193 -37.5 q-151 0 -241.5 88t-90.5 262v416v5.5v5v4.5v4.5t-0.5 4t-1 4t-1.5 2.5t-2.5 2t-3 1.5t-3.5 0.5q-14 0 -66 -30zM373 1323l92 143l354 -268l-43 -61z" />
<glyph unicode="&#xfa;" horiz-adv-x="1212" d="M51 854l355 164v-678q0 -102 47 -154.5t127 -52.5q101 0 169 58t68 133v432q0 26 -14 26q-7 0 -19.5 -6t-26.5 -14t-18 -10l-47 104l357 162v-873q0 -12 6.5 -20.5t15.5 -7.5l80 8v-111q-51 -4 -156.5 -16t-156.5 -16v149q-61 -74 -137 -111.5t-193 -37.5 q-151 0 -241.5 88t-90.5 262v416v5.5v5v4.5v4.5t-0.5 4t-1 4t-1.5 2.5t-2.5 2t-3 1.5t-3.5 0.5q-14 0 -66 -30zM414 1200l354 268l92 -143l-403 -186z" />
<glyph unicode="&#xfb;" horiz-adv-x="1212" d="M51 854l355 164v-678q0 -102 47 -154.5t127 -52.5q101 0 169 58t68 133v432q0 26 -14 26q-7 0 -19.5 -6t-26.5 -14t-18 -10l-47 104l357 162v-873q0 -12 6.5 -20.5t15.5 -7.5l80 8v-111q-51 -4 -156.5 -16t-156.5 -16v149q-61 -74 -137 -111.5t-193 -37.5 q-151 0 -241.5 88t-90.5 262v416v5.5v5v4.5v4.5t-0.5 4t-1 4t-1.5 2.5t-2.5 2t-3 1.5t-3.5 0.5q-14 0 -66 -30zM293 1196l254 254h139l254 -254l-53 -57l-273 168l-270 -168z" />
<glyph unicode="&#xfc;" horiz-adv-x="1212" d="M51 854l355 164v-678q0 -102 47 -154.5t127 -52.5q101 0 169 58t68 133v432q0 26 -14 26q-7 0 -19.5 -6t-26.5 -14t-18 -10l-47 104l357 162v-873q0 -12 6.5 -20.5t15.5 -7.5l80 8v-111q-51 -4 -156.5 -16t-156.5 -16v149q-61 -74 -137 -111.5t-193 -37.5 q-151 0 -241.5 88t-90.5 262v416v5.5v5v4.5v4.5t-0.5 4t-1 4t-1.5 2.5t-2.5 2t-3 1.5t-3.5 0.5q-14 0 -66 -30zM293 1239q0 54 43.5 89.5t101.5 35.5q42 0 78.5 -28.5t36.5 -69.5q0 -55 -40.5 -91t-100.5 -36q-44 0 -81.5 30t-37.5 70zM684 1239q0 54 43.5 89.5t101.5 35.5 q42 0 78.5 -28.5t36.5 -69.5q-1 -55 -41.5 -91t-99.5 -36q-44 0 -81.5 30t-37.5 70z" />
<glyph unicode="&#xfd;" horiz-adv-x="1116" d="M18 903v115h459v-115h-41q-37 0 -41 -22q0 -16 21 -74l198 -516q13 33 97.5 243.5t115.5 288.5q15 38 15 62q0 18 -33 18h-59v115h348v-115h-47q-26 0 -43.5 -19t-24.5 -44l-545 -1334h-239q56 62 131 203q142 269 159 303l-354 828q-14 33 -30 48t-42 15h-45zM348 1200 l354 268l93 -143l-404 -186z" />
<glyph unicode="&#xfe;" horiz-adv-x="1255" d="M61 1376l355 172v-671q48 61 139 108t197 47q196 0 314 -137.5t118 -359.5q0 -255 -144.5 -404t-377.5 -149q-134 0 -232 53v-352q0 -33 14.5 -47.5t49.5 -14.5h49v-113h-461v113h57q35 0 48.5 14t13.5 48v1609q0 16 -13 19q-7 3 -30.5 -8t-46.5 -27zM430 227 q0 -12 11.5 -31t35 -40.5t67.5 -36.5t99 -15q123 0 206 118t83 280q0 184 -63.5 282.5t-178.5 98.5q-109 0 -184.5 -70.5t-75.5 -148.5v-437z" />
<glyph unicode="&#xff;" horiz-adv-x="1116" d="M18 903v115h459v-115h-41q-37 0 -41 -22q0 -16 21 -74l198 -516q13 33 97.5 243.5t115.5 288.5q15 38 15 62q0 18 -33 18h-59v115h348v-115h-47q-26 0 -43.5 -19t-24.5 -44l-545 -1334h-239q56 62 131 203q142 269 159 303l-354 828q-14 33 -30 48t-42 15h-45zM254 1239 q0 54 43.5 89.5t101.5 35.5q42 0 78.5 -28.5t36.5 -69.5q0 -55 -40.5 -91t-100.5 -36q-44 0 -81.5 30t-37.5 70zM645 1239q0 54 44 89.5t102 35.5q42 0 78 -28.5t36 -69.5q-1 -55 -41.5 -91t-99.5 -36q-44 0 -81.5 30t-37.5 70z" />
<glyph unicode="&#x152;" horiz-adv-x="2330" d="M72 768q0 232 108 415t290.5 281.5t403.5 98.5q40 0 89 -5t106.5 -13.5t75.5 -10.5h907q16 0 25.5 6t17.5 27l117 -25l-62 -323l-118 20q10 36 9.5 69t-9.5 44q-16 19 -24.5 26.5t-31.5 16t-57 8.5h-449v-504h414q18 0 33.5 27.5t17.5 60.5l121 -22q-10 -52 -32.5 -170.5 t-34.5 -182.5l-117 21q1 4 5 25t5 29t0 22.5t-6 25.5q-11 31 -61 31h-345v-631h467q55 0 87 7.5t55.5 32t36.5 58.5t30 99l123 -37l-96 -361l-121 25q5 22 -12 31.5t-64 9.5h-794q-229 -31 -297 -31q-234 0 -417.5 94t-289.5 276.5t-106 428.5zM350 774q0 -126 37.5 -247 t104 -218t169 -156t222.5 -59q127 0 215.5 36t111.5 103v1070q-46 135 -329 135q-119 0 -220 -56t-168.5 -148.5t-105 -212t-37.5 -247.5z" />
<glyph unicode="&#x153;" horiz-adv-x="1882" d="M63 512q0 226 145.5 372t360.5 146q129 0 235 -44.5t177 -127.5q69 80 166 126t205 46q172 0 293.5 -101.5t142.5 -236.5l-682 -250q21 -137 103 -225t210 -88q78 0 138 17t98 40.5t88 67.5l69 -90q-112 -94 -204 -137t-232 -43q-256 0 -397 170q-69 -82 -173.5 -126 t-234.5 -44q-221 0 -364.5 146t-143.5 382zM305 506q0 -105 28.5 -192.5t90 -144.5t145.5 -58q87 0 154 57.5t100 146t33 191.5t-34 193t-100 148t-151 58q-87 0 -149 -59t-89.5 -147t-27.5 -193zM1092 578q43 15 180 66t182 67q21 9 26 14.5t5 17.5q0 65 -48.5 111.5 t-142.5 46.5q-85 0 -143 -92.5t-59 -230.5z" />
<glyph unicode="&#x178;" horiz-adv-x="1380" d="M20 1421v113h521v-113h-45q-34 0 -42 -20.5t15 -61.5q17 -30 136 -220t167 -263q11 19 279 479q50 86 -13 86h-43v113h365v-113h-2h-2h-2h-2h-2h-2h-2h-2h-2h-9q-41 0 -58 -13.5t-46 -61.5q-12 -19 -106.5 -174t-184.5 -302t-109 -176v-512q0 -38 13 -53.5t49 -15.5h74 v-113h-531v113h74q38 0 49.5 14.5t11.5 52.5v510q-21 35 -215 341t-207 327q-21 35 -40.5 49.5t-49.5 13.5h-37zM408 1712q0 54 43.5 89.5t101.5 35.5q42 0 78.5 -28.5t36.5 -69.5q0 -55 -41 -91t-101 -36q-44 0 -81 30t-37 70zM799 1712q0 54 43.5 89.5t101.5 35.5 q42 0 78.5 -28.5t36.5 -69.5q-1 -55 -41.5 -91t-99.5 -36q-44 0 -81.5 30t-37.5 70z" />
<glyph unicode="&#x2c6;" horiz-adv-x="921" d="M135 1298l254 254h139l254 -254l-53 -57l-272 168l-271 -168z" />
<glyph unicode="&#x2dc;" horiz-adv-x="921" d="M94 1333q36 43 58 67.5t52 52t54.5 41t55.5 23t65 9.5q41 0 112 -53.5t103 -53.5q55 0 85.5 18.5t78.5 75.5l63 -53q-65 -93 -130 -142.5t-140 -49.5q-31 0 -73.5 26.5t-81.5 53t-62 26.5q-51 0 -85.5 -20t-88.5 -78z" />
<glyph unicode="&#x2000;" horiz-adv-x="986" />
<glyph unicode="&#x2001;" horiz-adv-x="1972" />
<glyph unicode="&#x2002;" horiz-adv-x="986" />
<glyph unicode="&#x2003;" horiz-adv-x="1972" />
<glyph unicode="&#x2004;" horiz-adv-x="657" />
<glyph unicode="&#x2005;" horiz-adv-x="493" />
<glyph unicode="&#x2006;" horiz-adv-x="328" />
<glyph unicode="&#x2007;" horiz-adv-x="328" />
<glyph unicode="&#x2008;" horiz-adv-x="246" />
<glyph unicode="&#x2009;" horiz-adv-x="394" />
<glyph unicode="&#x200a;" horiz-adv-x="109" />
<glyph unicode="&#x2010;" horiz-adv-x="686" d="M102 504l52 170h354q38 0 76 12l-62 -172h-321q-58 0 -99 -10z" />
<glyph unicode="&#x2011;" horiz-adv-x="686" d="M102 504l52 170h354q38 0 76 12l-62 -172h-321q-58 0 -99 -10z" />
<glyph unicode="&#x2012;" horiz-adv-x="686" d="M102 504l52 170h354q38 0 76 12l-62 -172h-321q-58 0 -99 -10z" />
<glyph unicode="&#x2013;" horiz-adv-x="1009" d="M41 502l51 172h797q39 0 76 12l-62 -174h-764q-57 0 -98 -10z" />
<glyph unicode="&#x2014;" horiz-adv-x="1536" d="M41 502l51 172h1327q39 0 76 12l-61 -174h-1295q-57 0 -98 -10z" />
<glyph unicode="&#x2018;" horiz-adv-x="411" d="M72 1305q0 81 48 152t120 118l47 -47q-30 -21 -61 -53t-44 -58l29 6q52 0 90.5 -25t38.5 -75q0 -57 -42 -91t-97 -34q-59 0 -94 31t-35 76z" />
<glyph unicode="&#x2019;" horiz-adv-x="411" d="M72 1438q0 57 42 92t97 35q59 0 94 -31t35 -76q0 -80 -48 -151.5t-120 -120.5l-47 49q30 21 60 52.5t42 55.5l-26 -6q-52 0 -90.5 25.5t-38.5 75.5z" />
<glyph unicode="&#x201a;" horiz-adv-x="411" d="M72 80q0 57 42 91t97 34q59 0 94 -31t35 -76q0 -81 -48 -152t-120 -118l-47 47q30 21 60 53t42 58l-26 -6q-52 0 -90.5 25t-38.5 75z" />
<glyph unicode="&#x201c;" horiz-adv-x="743" d="M72 1298q0 81 48.5 152.5t119.5 118.5l47 -47q-30 -21 -61 -53t-44 -58l29 6q52 0 90.5 -25t38.5 -75q0 -57 -42 -91t-97 -34q-59 0 -94 30.5t-35 75.5zM403 1303q0 80 48 151.5t120 120.5l47 -49q-29 -20 -60 -52t-44 -57l29 6q52 0 90.5 -25.5t38.5 -76.5 q0 -57 -42.5 -91t-97.5 -34q-59 0 -94 31t-35 76z" />
<glyph unicode="&#x201d;" horiz-adv-x="743" d="M72 1436q0 57 42 92t97 35q59 0 94 -31t35 -76q0 -80 -48 -151.5t-120 -120.5l-47 49q30 21 60 52.5t42 55.5l-26 -6q-52 0 -90.5 25.5t-38.5 75.5zM403 1440q0 57 42.5 91t97.5 34q59 0 94 -31t35 -76q0 -80 -48 -151.5t-120 -120.5l-47 49q30 21 60 52.5t42 55.5 l-27 -6q-52 0 -90.5 26t-38.5 77z" />
<glyph unicode="&#x201e;" horiz-adv-x="743" d="M72 78q0 57 42 91t97 34q59 0 94 -31t35 -76q0 -81 -48 -152t-120 -118l-47 47q30 21 60 53t42 58l-26 -7q-52 0 -90.5 25.5t-38.5 75.5zM403 80q0 57 42.5 91t97.5 36q59 0 94 -31t35 -76q0 -80 -48 -151.5t-120 -120.5l-47 49q30 21 60 53t42 56l-27 -6q-52 0 -90.5 25 t-38.5 75z" />
<glyph unicode="&#x2022;" horiz-adv-x="657" d="M82 768q0 102 73 175t175 73q101 0 173 -73t72 -175q-2 -102 -74 -175t-173 -73t-173.5 73.5t-72.5 174.5z" />
<glyph unicode="&#x2026;" horiz-adv-x="1130" d="M61 82q0 55 43 90t99 33q52 0 89.5 -29t37.5 -74q0 -57 -43.5 -89.5t-104.5 -32.5q-52 0 -86.5 28t-34.5 74zM430 80q0 55 42 90t97 35q52 0 89.5 -29t37.5 -74q0 -57 -43 -89.5t-104 -32.5q-52 0 -85.5 27.5t-33.5 72.5zM799 78q0 55 42 90t97 35q52 0 89.5 -29 t37.5 -74q0 -57 -42.5 -90t-102.5 -33q-52 0 -86.5 28t-34.5 73z" />
<glyph unicode="&#x202f;" horiz-adv-x="394" />
<glyph unicode="&#x2039;" horiz-adv-x="708" d="M102 457v98l504 334v-152l-336 -231l336 -232v-151z" />
<glyph unicode="&#x203a;" horiz-adv-x="708" d="M102 123v151l336 232l-336 231v152l504 -334v-98z" />
<glyph unicode="&#x205f;" horiz-adv-x="493" />
<glyph unicode="&#x2122;" horiz-adv-x="1849" d="M102 1378l29 166q31 -8 74 -8h524h2q12 0 17 14l57 -10l-29 -172l-59 10q4 23 3 43t-5 25q-17 24 -62 24h-137v-612q0 -33 37 -33h31v-57h-265v57h35q20 0 26.5 7t6.5 26v612h-145q-68 0 -78 -102zM858 1479v57h221q-1 -37 15 -80q207 -515 209 -520q108 243 221 516 q7 16 11.5 37t5.5 34l1 13h203v-57h-33q-19 0 -26.5 -7.5t-6.5 -27.5v-586q0 -19 8.5 -26t28.5 -7h31v-57h-266v57h39q19 0 24.5 6.5t5.5 26.5v449q-157 -367 -207 -476q-11 -27 -8 -63h-104q-155 371 -225 541v-451q0 -20 5.5 -26.5t24.5 -6.5h31v-57h-207v57h39 q20 0 25.5 6t3.5 27v588q0 19 -6.5 26t-26.5 7h-37z" />
<glyph unicode="&#x25fc;" horiz-adv-x="1013" d="M0 0v1014h1014v-1014h-1014z" />
<glyph unicode="&#xfb01;" horiz-adv-x="1185" d="M82 0v113h65q30 0 41 11.5t11 39.5v739h-107v115h107l-2 108q0 113 46 207t139.5 153.5t217.5 59.5q40 0 76 -5.5t61 -12t27 -6.5l-43 -248l-105 20q7 23 9.5 46t-1.5 44.5t-19.5 34.5t-41.5 13q-61 0 -97 -58.5t-36 -146.5v-209h322q152 0 268 22l-2 -874 q0 -25 15.5 -39t35.5 -14h66v-113h-463v113h69q47 0 47 53v694q0 34 -10 39q-6 3 -28 4t-41 1l-19 -1h-260v-737q0 -29 12 -41t41 -12h62v-113h-463z" />
<glyph unicode="&#xfb02;" horiz-adv-x="1191" d="M82 0v113h65q30 0 41 11.5t11 39.5v739h-107v115h107l-2 108q0 113 46 207t139.5 153.5t217.5 59.5q64 0 174 -20.5t121 -20.5q66 0 131 43v-1382q0 -53 49 -53h66v-113h-463v113h70q47 0 47 53v1126q0 65 -63.5 107.5t-131.5 42.5q-80 0 -125 -62.5t-45 -152.5v-209h203 l-19 -127q-54 12 -118 12h-66v-737q0 -29 12 -41t41 -12h62v-113h-463z" />
</font>
</defs>
</svg>
