<?xml version="1.0" standalone="no"?>
<!DOCTYPE svg PUBLIC "-//W3C//DTD SVG 1.1//EN" "http://www.w3.org/Graphics/SVG/1.1/DTD/svg11.dtd" >
<svg xmlns="http://www.w3.org/2000/svg" xmlns:xlink="http://www.w3.org/1999/xlink" version="1.1">
<metadata></metadata>
<defs>
<font id="parkinson_blackregular" horiz-adv-x="1419" >
<font-face units-per-em="2048" ascent="1638" descent="-410" />
<missing-glyph horiz-adv-x="409" />
<glyph horiz-adv-x="0" />
<glyph horiz-adv-x="682" />
<glyph unicode=" "  horiz-adv-x="409" />
<glyph unicode="&#x09;" horiz-adv-x="409" />
<glyph unicode="&#xa0;" horiz-adv-x="409" />
<glyph unicode="!" horiz-adv-x="684" d="M49 1233v268l514 96q-83 -833 -112 -1083l-201 -74q-12 84 -39 260t-47 309t-25 173q-4 32 -14 45.5t-29 13.5q-5 0 -14 -1.5t-19 -3.5t-14 -3zM166 129q0 79 66 132.5t151 53.5q63 0 117.5 -43.5t54.5 -103.5q0 -82 -61 -136.5t-150 -54.5q-66 0 -122 46t-56 106z" />
<glyph unicode="&#x22;" horiz-adv-x="1013" d="M121 1534h315l-98 -565h-115zM580 1534h315l-98 -565h-115z" />
<glyph unicode="#" horiz-adv-x="1349" d="M80 397v287h182l25 193h-207v282h242l45 402h297l-50 -402h197l49 402h295l-47 -402h152v-282h-185l-22 -193h207v-287h-242l-51 -430h-297l51 430h-195l-51 -430h-297l53 430h-151zM559 684h197l22 193h-194z" />
<glyph unicode="$" horiz-adv-x="1413" d="M59 455l271 73q48 -139 121.5 -199.5t199.5 -60.5q69 0 105.5 42t36.5 85q0 54 -43.5 93.5t-133.5 89.5q-152 82 -245 143q-242 154 -242 414q0 121 74 225.5t193.5 164.5t252.5 60h6v139h156v-147q64 -6 111 -15.5t68.5 -15.5t29.5 -6q2 1 13 -0.5t23.5 8.5t12.5 31 l270 -39l-57 -461l-289 29q6 7 4 57.5t-14 71.5q-51 84 -170 84q-65 0 -116 -33t-52 -88q-1 -26 11 -49t40 -44t52.5 -35.5t68.5 -38.5q11 -6 17 -9q36 -20 68.5 -38t86 -47.5t107.5 -59.5q111 -61 184.5 -182.5t73.5 -239.5q0 -99 -26 -183.5t-80 -155t-148 -111 t-219 -40.5q-29 0 -70 6v-155h-160v184q-34 9 -83.5 24t-75 21.5t-35.5 5.5q-15 0 -27 -16.5t-6 -36.5l-248 -41z" />
<glyph unicode="%" horiz-adv-x="1515" d="M49 1130q0 121 43 223t121.5 163t175.5 61q153 0 242.5 -125t89.5 -322q0 -191 -98.5 -318.5t-237.5 -127.5q-101 0 -179 62t-117.5 162.5t-39.5 221.5zM244 25l901 1552l127 -70l-910 -1554zM332 1130q0 -178 7 -221t44 -43q13 0 21.5 4t15 17.5t10 29.5t5.5 49.5 t2.5 68.5t0.5 95q0 168 -8.5 218.5t-44.5 50.5q-35 0 -44 -49.5t-9 -219.5zM795 397q0 121 43 223t121.5 163t175.5 61q153 0 242 -125t89 -322q0 -191 -98.5 -318.5t-237.5 -127.5q-101 0 -178.5 62t-117 162.5t-39.5 221.5zM1077 397q0 -179 7 -221.5t44 -42.5q13 0 22 4 t15.5 17t10 30t5.5 50t2.5 68.5t0.5 94.5q0 166 -9 217.5t-45 51.5q-35 0 -44 -49.5t-9 -219.5z" />
<glyph unicode="&#x26;" horiz-adv-x="1808" d="M61 399q0 71 23.5 137t61.5 117t90 96.5t103 77t107 58.5q-151 171 -151 319q0 123 80 214.5t207 135.5q91 29 200 29q105 0 197.5 -38t142.5 -99q60 -72 60 -164q0 -106 -61.5 -180.5t-180.5 -145.5q61 -66 185.5 -196.5t158.5 -167.5q26 25 41.5 55.5t19 46.5t3.5 25 q0 23 -8.5 33t-28.5 10h-39v262h459v-262h-29q-30 0 -47.5 -13t-38.5 -55q-74 -143 -166 -264q6 -6 13 -14t15.5 -16.5t24.5 -22.5q32 -28 51 -43t51.5 -31t59.5 -16h70v-287h-555q-9 22 -29 49t-35 43l-16 17q-212 -164 -518 -164q-142 0 -260 55.5t-189.5 160.5t-71.5 238 zM522 549q0 -128 86 -216.5t201 -88.5q35 0 69 14.5t52 34.5q-266 311 -336 395l-10 -12q-11 -11 -13 -14t-11 -14.5t-12.5 -17.5t-9.5 -17.5t-8.5 -20t-5 -20.5t-2.5 -23zM713 1288q0 -63 86 -153q108 74 108 153q0 41 -28 68.5t-68 27.5q-45 0 -71.5 -25t-26.5 -71z" />
<glyph unicode="'" horiz-adv-x="555" d="M121 1534h315l-98 -565h-115z" />
<glyph unicode="(" horiz-adv-x="741" d="M76 571q0 159 41.5 315t112.5 286.5t156.5 237.5t182.5 189l117 -69q-85 -165 -156 -434t-71 -516q0 -249 68.5 -520.5t156.5 -446.5l-104 -68q-140 129 -250 285t-182 352.5t-72 388.5z" />
<glyph unicode=")" horiz-adv-x="741" d="M49 1530l117 69q97 -82 182.5 -189t156.5 -237.5t112.5 -286.5t41.5 -315q0 -145 -40.5 -293.5t-111 -279t-159 -244.5t-192.5 -209l-105 68q88 175 156.5 446.5t68.5 520.5q0 247 -71 516t-156 434z" />
<glyph unicode="*" horiz-adv-x="1030" d="M109 1192l59 217l285 -129l-50 305h222l-47 -305l284 123l58 -205l-297 -49l200 -217l-168 -119l-137 256l-141 -256l-174 123l203 213z" />
<glyph unicode="+" horiz-adv-x="1064" d="M66 635l63 221h279v285l237 71v-356h356l-65 -221h-291v-295l-237 -72v367h-342z" />
<glyph unicode="," horiz-adv-x="614" d="M102 113q0 85 61 141.5t156 56.5q76 0 125.5 -50t49.5 -118q0 -65 -16 -111.5t-58 -107.5q-47 -66 -160 -145q-74 74 -88 86q47 29 76.5 57.5t56.5 79.5q-29 -20 -69 -20q-53 0 -93.5 36.5t-40.5 94.5z" />
<glyph unicode="-" horiz-adv-x="688" d="M90 512l70 246h370q30 0 68 12l-68 -246h-335q-59 0 -105 -12z" />
<glyph unicode="." horiz-adv-x="614" d="M102 125q0 79 66 132.5t151 53.5q63 0 118 -43.5t55 -103.5q0 -82 -61 -136.5t-150 -54.5q-66 0 -122.5 46t-56.5 106z" />
<glyph unicode="/" horiz-adv-x="1181" d="M-39 -131l1053 1831l172 -98l-1057 -1829z" />
<glyph unicode="0" horiz-adv-x="1353" d="M68 766q0 294 127 506q84 139 213.5 222t275.5 83q185 0 323 -105.5t208.5 -288.5t70.5 -417q0 -246 -90 -435.5t-246 -289.5q-133 -86 -272 -86q-204 0 -365 151q-245 231 -245 660zM524 766q0 -98 1.5 -166t6.5 -142.5t15.5 -122.5t26.5 -89t40.5 -60.5t57.5 -19.5 t58 19.5t41 60.5t26 89.5t15.5 122.5t7 142.5t1.5 165.5q0 74 -0.5 124.5t-2.5 111t-6.5 101.5t-11.5 84.5t-17.5 71t-25 51t-34.5 34t-45 10.5q-45 0 -76 -41.5t-47.5 -123.5t-23.5 -183t-7 -240z" />
<glyph unicode="1" horiz-adv-x="856" d="M39 1284l563 326l127 -211q-36 -23 -48.5 -44.5t-12.5 -68.5v-921q0 -49 9.5 -63.5t35.5 -14.5q30 0 53 4v-291h-627v291q12 -4 45 -4q38 0 48 15t10 65v692q0 28 -19 28q-11 0 -55 -26z" />
<glyph unicode="2" horiz-adv-x="1261" d="M55 158q297 330 434 508q102 133 141.5 229t41.5 199q1 52 -17 90.5t-48.5 58t-62.5 28.5t-67 9q-44 0 -109.5 -36t-109.5 -72l-43 -35l-123 168q10 11 27.5 30t75 67.5t117 85t146.5 67t171 30.5q213 0 352 -135t139 -338q0 -64 -13.5 -118.5t-46 -107t-61 -88.5 t-81.5 -96q-25 -28 -64 -64.5t-74.5 -67.5t-87 -73.5t-80 -65t-76 -59.5t-53.5 -42h344q78 0 103 143l246 -51l-99 -422h-915z" />
<glyph unicode="3" horiz-adv-x="1269" d="M49 193l141 204q63 -66 143 -106.5t154 -40.5q124 0 194.5 72t70.5 172q0 108 -70.5 182t-196.5 74q-29 0 -137 -5l47 228h62q93 0 156 54.5t63 146.5q0 69 -43.5 110t-112.5 43q-54 1 -115 -31t-95 -64l-34 -32l-133 152q7 9 19.5 25t59 55.5t99.5 70t140 55.5t182 25 q113 0 200 -30t135.5 -78.5t72.5 -103t24 -111.5q0 -134 -80 -223t-209 -134q178 -18 289 -133.5t111 -308.5q0 -92 -34.5 -173t-92.5 -139t-134 -100t-160.5 -63t-170.5 -21q-156 0 -302.5 59.5t-242.5 168.5z" />
<glyph unicode="4" horiz-adv-x="1406" d="M-4 614l727 922h362q-24 -74 -24 -100v-740h51q43 0 65 20t35 62l197 -82q-111 -243 -123 -272q-69 22 -225 22v-81q0 -48 10 -63t37 -15q43 0 66 4v-291h-656v291q12 -4 45 -4q42 0 63 17.5t21 62.5v88q-400 0 -520 -27zM295 676q23 3 166.5 2t187.5 2v442 q-64 -83 -189 -239t-165 -207z" />
<glyph unicode="5" horiz-adv-x="1366" d="M55 227l170 193q65 -65 157.5 -105.5t186.5 -40.5q131 0 200 69t69 171q0 109 -64 174.5t-164 65.5q-122 0 -192 -84l-221 161q40 191 69 345q11 56 26 146t24 152l10 62h583q23 -1 39.5 4.5t24 10.5t13.5 20t6.5 18t2.5 19l199 -43l-80 -346h-606q-26 -154 -51 -289 q43 22 75 34t101.5 23.5t159.5 11.5q206 0 345.5 -131.5t139.5 -341.5q0 -115 -40.5 -217.5t-117 -182.5t-197.5 -126.5t-272 -46.5q-97 0 -181 19.5t-157 59t-131.5 85t-126.5 110.5z" />
<glyph unicode="6" horiz-adv-x="1402" d="M117 653q0 225 129 446.5t379 399.5q128 89 264 154l119 -178q-151 -82 -297 -248.5t-189 -343.5q59 85 145 132.5t185 47.5q127 0 235.5 -68.5t172 -188.5t63.5 -265q0 -149 -77.5 -285.5t-206.5 -219.5t-271 -83q-119 0 -223.5 37.5t-181.5 103.5t-133 154t-84.5 191.5 t-28.5 213.5zM567 580q1 -163 67.5 -265t156.5 -102q53 0 99.5 51t45.5 148q-1 82 -28.5 165t-79.5 141t-113 58q-59 0 -104 -56.5t-44 -139.5z" />
<glyph unicode="7" horiz-adv-x="1241" d="M51 1143l117 393h946l94 -137q-223 -299 -334 -492q-104 -180 -163.5 -312.5t-59.5 -229.5q0 -41 13.5 -59.5t50.5 -18.5q59 0 84 4v-291l-633 -4q0 348 180 635q59 94 127 181.5t142 164t118 119t111 102.5h-438q-46 0 -74 -26t-45 -87z" />
<glyph unicode="8" horiz-adv-x="1341" d="M80 426q0 134 75 221.5t234 165.5q-132 93 -181.5 173t-49.5 198q0 116 81 208.5t210.5 141.5t277.5 49q115 0 207.5 -33.5t146 -86t81.5 -111.5t28 -117q0 -87 -57 -167.5t-158 -143.5q162 -108 245 -217t83 -242q0 -145 -78.5 -261.5t-223 -183.5t-329.5 -67 q-94 0 -180.5 18.5t-161.5 57t-130.5 93.5t-87.5 133t-32 171zM395 438q0 -117 79.5 -190.5t193.5 -73.5q53 0 95.5 18.5t66 47t35.5 58.5t12 58q0 43 -18 80.5t-69 81t-86 68.5t-123 82l-18 12q-95 -54 -131.5 -111t-36.5 -131zM563 1270q0 -30 24.5 -63t50 -53.5t76.5 -56 t68 -48.5q105 73 105 178q0 64 -46 106.5t-141 42.5q-65 0 -101 -30t-36 -76z" />
<glyph unicode="9" horiz-adv-x="1314" d="M76 1032q0 178 76 304t221 192q123 55 256 55q147 0 263 -51t187 -138t107.5 -196t36.5 -231q0 -340 -224.5 -604t-648.5 -451l-125 199q198 112 338.5 264.5t190.5 306.5q-38 -48 -97 -84.5t-133 -36.5q-101 0 -205 60q-115 65 -179 171.5t-64 239.5zM496 1223 q-7 -63 12 -156q18 -90 55.5 -145.5t91.5 -61.5q50 -4 81.5 36t39.5 108q7 56 -10 143q-20 101 -62 157t-96 62q-43 5 -73 -31.5t-39 -111.5z" />
<glyph unicode=":" horiz-adv-x="614" d="M102 125q0 79 66 132.5t151 53.5q63 0 118 -43.5t55 -103.5q0 -82 -61 -136.5t-150 -54.5q-66 0 -122.5 46t-56.5 106zM102 819q0 79 66 133t151 54q63 0 118 -44t55 -104q0 -81 -60.5 -135.5t-150.5 -54.5q-66 0 -122.5 45.5t-56.5 105.5z" />
<glyph unicode=";" horiz-adv-x="614" d="M102 113q0 85 61 141.5t156 56.5q76 0 125.5 -50t49.5 -118q0 -65 -16 -111.5t-58 -107.5q-47 -66 -160 -145q-74 74 -88 86q47 29 76.5 57.5t56.5 79.5q-29 -20 -69 -20q-53 0 -93.5 36.5t-40.5 94.5zM104 819q0 79 66.5 133t151.5 54q63 0 117.5 -43.5t54.5 -104.5 q0 -81 -60.5 -135.5t-150.5 -54.5q-66 0 -122.5 45.5t-56.5 105.5z" />
<glyph unicode="&#x3c;" horiz-adv-x="868" d="M51 659v218l762 372v-266l-444 -215l444 -215v-266z" />
<glyph unicode="=" horiz-adv-x="1044" d="M37 813l129 234h768q30 0 67 12l-118 -246h-846zM41 451l125 233h768q30 0 67 12l-118 -245h-842z" />
<glyph unicode="&#x3e;" horiz-adv-x="868" d="M55 287v266l445 215l-445 215v266l762 -372v-218z" />
<glyph unicode="?" horiz-adv-x="1132" d="M74 1354q8 9 23 25t65.5 55.5t105.5 70t139.5 55.5t170.5 25q232 0 365.5 -108t133.5 -293q0 -159 -145 -314q-121 -123 -303 -204l-11 -154l-204 -78l-60 363q64 28 111 56.5t88 67.5t62.5 90.5t21.5 114.5q0 74 -46.5 113t-109.5 39q-34 0 -70.5 -12.5t-64 -30 t-50.5 -35.5t-36 -30l-12 -13zM326 117q0 79 66 132.5t151 53.5q63 0 117.5 -43.5t54.5 -103.5q0 -82 -61 -136.5t-150 -54.5q-66 0 -122 46t-56 106z" />
<glyph unicode="@" horiz-adv-x="1492" d="M35 762q0 197 102.5 367.5t275 271t369.5 100.5q146 0 273 -52.5t212.5 -140t134 -201.5t48.5 -237q0 -236 -112 -379t-304 -143q-48 0 -87.5 14.5t-62.5 35t-39 40.5t-22 34l-6 15q-29 -64 -80.5 -102.5t-115.5 -38.5q-99 0 -157 67t-58 162q0 115 100 196t258 81h49 q0 60 -18 82t-66 22q-57 0 -131 -49l-76 160q150 92 309 92q269 0 269 -239v-258q0 -93 33 -93q40 0 71 45t46.5 113t15.5 143q0 84 -33 165t-93 147t-153.5 106.5t-204.5 40.5q-150 0 -275 -78.5t-195 -209.5t-70 -283t69.5 -278.5t194.5 -200.5t278 -74q72 0 88 2v-176 h-44.5h-46.5t-39.5 0.5t-44 2t-37 3.5t-42 5.5t-36.5 8.5q-265 71 -406 257t-141 454zM682 631q0 -24 14 -40t43 -16q24 0 43 22t25 52v62q-125 0 -125 -80z" />
<glyph unicode="A" horiz-adv-x="1642" d="M23 0v287h45q42 0 59 21t46 95q7 19 11 29q23 61 173.5 448.5t205.5 534.5q20 49 24 68.5t1 52.5h379q413 -940 491 -1116q42 -95 58.5 -114t60.5 -19h43v-287h-752v287h47q37 0 46.5 15.5t-0.5 35.5q-15 46 -27 53h-438q-8 -14 -17 -51q-8 -32 6 -42.5t47 -10.5h41v-287 h-550zM592 653h244q-97 222 -115 265q-8 15 -16 43q-95 -259 -113 -308z" />
<glyph unicode="B" horiz-adv-x="1660" d="M82 1249v287h1001q98 0 183 -29.5t140 -76.5t86.5 -105.5t31.5 -118.5q0 -116 -77 -210.5t-226 -139.5q103 -17 182 -56.5t124.5 -92t68 -110t22.5 -118.5q0 -88 -43.5 -172.5t-123 -153.5t-206.5 -111t-280 -42h-881v287h61q58 0 80.5 20.5t22.5 69.5v756q0 116 -88 116 h-78zM731 934h39q64 0 112 16.5t74 43.5t38 55t12 57q0 64 -48.5 102.5t-136.5 38.5h-90v-313zM737 305q20 -2 64 -2q65 0 114.5 18t77 47.5t41 62.5t13.5 69q0 75 -58 125.5t-166 50.5h-86v-371z" />
<glyph unicode="C" horiz-adv-x="1599" d="M57 784q0 174 66.5 324.5t179.5 254t266 162t322 58.5q76 0 158 -21t96 -22q5 -1 10 -1q43 0 43 40l270 -39l-63 -477l-281 45q3 30 3 54q0 55 -17 81q-29 44 -73 60t-117 16q-107 0 -191 -65.5t-125.5 -161t-42.5 -199.5v-7q0 -122 36 -228q37 -108 97.5 -179 t136.5 -110t156 -39q130 0 222.5 36.5t174.5 110.5l160 -219q-11 -12 -32 -31t-91 -69t-146 -88t-193 -70t-236 -33h-9q-225 -1 -401 97q-179 100 -279 287t-100 433z" />
<glyph unicode="D" horiz-adv-x="1824" d="M78 1249v287h909q176 0 324 -54.5t247 -149.5t154 -222.5t55 -273.5q0 -188 -56.5 -341.5t-165 -264t-276 -170.5t-380.5 -60h-809v287h65q105 0 105 92v774q0 49 -19 72.5t-65 23.5h-88zM741 309q50 -4 72 -4h3q206 0 310 142q106 143 105 387q0 103 -45 197.5t-130 156 t-188 61.5h-127v-940z" />
<glyph unicode="E" horiz-adv-x="1619" d="M74 1249v287h1120q67 0 74 53l258 -33l-62 -456l-272 28q8 12 6 32t-8.5 40t-31 34.5t-60.5 14.5h-367v-311h230q54 0 75.5 21.5t26.5 70.5l223 -26l-49 -439l-238 29q3 18 3 32q0 21 -7 31q-14 21 -84 21h-180v-387h334q34 0 61 3t48.5 11t37 16t28.5 25t21.5 29.5 t18 39t14.5 44.5t15 53l254 -37l-84 -508q-32 13 -134.5 23t-205.5 10h-1063v287h71q52 0 77.5 24t25.5 82v774q0 45 -20.5 63.5t-71.5 18.5h-84z" />
<glyph unicode="F" horiz-adv-x="1521" d="M74 1249v287h1044q53 0 78 11t35 42l260 -35l-76 -471l-258 45q0 64 -10 82q-3 6 -8 11.5t-9 9t-11.5 6.5l-12.5 5t-14.5 3.5t-14.5 2t-17 1t-16 0.5h-18h-18h-258v-311h188q40 0 63.5 24t28.5 64l225 -35l-55 -434l-237 33q3 15 3 27q0 27 -14 40q-24 21 -90 21h-112 v-285q0 -58 25 -82t77 -24h68v-287h-844v287h69q52 0 78.5 24t26.5 82v774q0 45 -20.5 63.5t-71.5 18.5h-84z" />
<glyph unicode="G" horiz-adv-x="1769" d="M57 784q0 244 104.5 426.5t292.5 278.5t435 96q63 0 122.5 -9t109.5 -21.5t69 -14.5q6 -1 11 -1q40 0 42 40l273 -39l-62 -467l-287 35q1 5 3 13t4 31.5t-0.5 44.5t-14 47t-32 44.5t-59 31.5t-91.5 13q-165 0 -270 -134t-105 -339q0 -265 96.5 -420t245.5 -155 q51 0 102 13.5t74 41.5q6 7 9.5 14.5t5.5 12.5t3 14.5t1 13.5v17v18v74q0 40 -19 70t-57 30q-20 0 -53 -4v240h727v-236h-47q-33 0 -62 -23t-29 -61v-346q-36 -1 -61.5 -4.5t-59.5 -15t-56 -21t-82.5 -36.5t-108.5 -48q-83 -36 -188.5 -57t-204.5 -21q-224 0 -404 109.5 t-278.5 295t-98.5 408.5z" />
<glyph unicode="H" horiz-adv-x="1863" d="M70 0v287h84q51 0 73.5 21t22.5 67v780q0 94 -92 94h-88v287h809v-287h-43q-51 0 -76 -22t-25 -72v-229h393v217q0 53 -19 79.5t-69 26.5h-61v287h805v-287h-78q-92 0 -92 -102v-766q0 -94 92 -94h78v-287h-801v287h57q47 0 67.5 20.5t20.5 67.5v256h-393v-256 q0 -51 16 -69.5t64 -18.5h74v-287h-819z" />
<glyph unicode="I" horiz-adv-x="989" d="M84 0v287h76q94 0 94 98v770q0 48 -20 71t-68 23h-82v287h809v-287h-72q-47 0 -66.5 -24t-19.5 -72v-766q0 -100 96 -100h62v-287h-809z" />
<glyph unicode="J" horiz-adv-x="993" d="M-25 -217q84 18 156 65q51 34 88 88t37 117v1086q0 110 -90 110h-90v287h825v-287h-78q-39 0 -59.5 -29.5t-20.5 -76.5v-1037q0 -170 -82 -286.5t-272 -190.5q-96 -37 -175 -62t-110 -31l-32 -7z" />
<glyph unicode="K" horiz-adv-x="1701" d="M72 0v287h80q49 0 73.5 30.5t24.5 79.5v736q0 116 -96 116h-82v287h786v-287h-51q-49 0 -64.5 -19.5t-15.5 -72.5v-291q34 32 90.5 93t119 130t79.5 87q22 26 22 49q0 24 -37 24h-47v287h607v-287h-56q-16 0 -27 -2.5t-23.5 -10.5t-19 -14t-24.5 -23.5t-29 -27.5 q-19 -18 -52 -55t-74 -84.5t-60 -68.5q36 -134 82 -238q108 -242 205.5 -416t214.5 -315l-174 -199q-145 83 -230 150q-175 134 -294 279.5t-214 342.5l-53 -57v-5v-5v-5v-5v-5v-6v-5v-5v-6v-5v-6v-6v-6v-6v-6v-7v-7v-8v-9v-4q0 -26 0.5 -37t3.5 -28t9 -23.5t18.5 -12 t30.5 -5.5h61v-287h-784z" />
<glyph unicode="L" horiz-adv-x="1527" d="M80 1251v285h842v-287h-72q-105 0 -105 -102v-856h291q60 0 99 12t64.5 42.5t40 67t30.5 101.5l254 -39l-86 -508q-34 14 -119.5 23.5t-149.5 9.5h-1087v287h74q94 0 94 98v770q0 49 -18.5 72.5t-65.5 23.5h-86z" />
<glyph unicode="M" horiz-adv-x="2340" d="M84 1249v287h813q0 -63 23 -123l286 -745q255 684 273 737q23 67 23 107q0 13 -3 24h766v-283h-92q-82 0 -82 -114v-758q0 -41 24.5 -67.5t61.5 -26.5h80v-287h-793v287h52q46 0 68 27t22 85v463q0 13 10 82q-74 -197 -156 -414q-146 -378 -157 -409q-21 -57 -21 -94 q0 -15 4 -27h-330q-82 224 -170 451q-56 147 -141 362q-23 55 -37 131v-555q0 -45 22 -73.5t66 -28.5h62v-287h-672v287h86q33 0 55.5 20.5t22.5 54.5v750q0 137 -111 137h-55z" />
<glyph unicode="N" horiz-adv-x="1871" d="M84 1249v287h680q0 -41 53 -115l449 -614v358q0 37 -21 60.5t-61 23.5h-72v287h686v-287h-82q-54 0 -73 -19.5t-19 -84.5v-1008q0 -99 16 -137h-407l-615 817v-418q0 -59 17.5 -85.5t56.5 -26.5h103v-287h-709v287h90q31 0 52.5 23.5t21.5 68.5v758q0 56 -19.5 84 t-68.5 28h-78z" />
<glyph unicode="O" horiz-adv-x="1728" d="M57 762q0 166 63 317.5t170 261t256.5 174t315.5 64.5q179 0 333 -69.5t257 -184t161 -261.5t58 -302q0 -167 -64.5 -318t-173 -259t-258 -172t-313.5 -64q-166 0 -315.5 64t-256.5 173t-170 259.5t-63 316.5zM604 762q1 -63 5.5 -119t14.5 -118t29 -111.5t46 -90 t68.5 -63t92.5 -22.5q251 0 256 520v26q0 64 -4 120q-5 68 -21.5 142.5t-44 127t-75 86.5t-111.5 34q-256 0 -256 -512v-20z" />
<glyph unicode="P" horiz-adv-x="1611" d="M80 0v287h80q90 0 90 88v770q0 58 -20 81t-68 23h-82v287h903q148 0 262.5 -37t184.5 -102t105.5 -147.5t35.5 -178.5q0 -144 -83 -264.5t-228 -190t-320 -69.5h-201v-166q0 -48 24 -71t81 -23h84v-287h-848zM741 838h99q109 0 166 59.5t57 149.5q0 83 -50 142.5 t-151 59.5h-121v-411z" />
<glyph unicode="Q" horiz-adv-x="1724" d="M57 768q0 163 62.5 312t168.5 259t254.5 175t313.5 65q179 0 334 -69t259 -182.5t163 -258t59 -295.5q0 -274 -161.5 -490.5t-434.5 -287.5q0 -100 86 -100q66 0 123 53l141 -199q-62 -69 -162.5 -116.5t-181.5 -47.5q-116 0 -217 60q-85 47 -126.5 126t-41.5 208 q-129 28 -236.5 90t-180.5 142t-124 175.5t-74.5 191t-23.5 189.5zM604 762q1 -63 5.5 -119t14.5 -118t29 -111.5t46 -90t68.5 -63t92.5 -22.5q256 0 256 520q0 536 -256 536t-256 -512v-20z" />
<glyph unicode="R" horiz-adv-x="1734" d="M86 0v287h74q90 0 90 88v770q0 58 -20 81t-68 23h-76v287h954q146 0 260 -36t183.5 -99t105 -143t35.5 -173q0 -129 -85.5 -244t-195.5 -159q54 -130 87 -203t79 -159.5t98 -160.5t124 -161l-170 -191q-112 57 -215 135.5t-180.5 158t-144 167.5t-110 162t-73.5 143h-88 v-192q0 -48 16.5 -71t56.5 -23h76v-287h-813zM750 848h71q149 0 215 52.5t66 166.5q0 81 -68.5 131.5t-187.5 50.5h-96v-401z" />
<glyph unicode="S" horiz-adv-x="1497" d="M104 455l271 61q47 -137 119.5 -192.5t201.5 -55.5q69 0 105.5 42t36.5 85q0 55 -43 94.5t-133 88.5q-158 86 -246 143q-260 165 -260 414q0 120 78.5 225t202.5 165t257 60q109 0 194 -11.5t127.5 -22.5t49.5 -11q2 1 13 -0.5t23.5 8.5t12.5 31l270 -39l-57 -473 l-289 41q6 12 6 64t-12 73q-46 76 -174 76q-65 0 -116 -33t-52 -88q-1 -26 11 -49t40 -44t52.5 -35.5t68.5 -38.5q11 -6 17 -9q36 -20 68.5 -38t86 -47.5t107.5 -59.5q113 -62 185.5 -175t72.5 -229q0 -96 -34.5 -186t-97.5 -162.5t-161.5 -116t-216.5 -43.5q-73 0 -161 22 q-88 21 -150 43q-60 21 -75 21h-1q-15 0 -27 -16.5t-6 -36.5l-248 -41z" />
<glyph unicode="T" horiz-adv-x="1722" d="M20 1106l62 477q237 -47 303 -47h999q37 0 55.5 10.5t22.5 36.5l248 -41l-63 -459l-271 35q6 17 6 34q0 32 -20 65q-9 14 -49 24t-78 10h-145v-870q0 -55 21.5 -74.5t68.5 -19.5h84v-287h-844v287h94q45 0 68.5 20t23.5 74v858h-119q-41 0 -64.5 -2t-49.5 -10.5 t-41.5 -25t-28.5 -45.5t-22 -73z" />
<glyph unicode="U" horiz-adv-x="1804" d="M63 1249v287h840v-287h-82q-38 0 -64 -21.5t-26 -72.5v-674q0 -69 24 -122t64.5 -83t86.5 -44.5t95 -14.5q77 0 135.5 38.5t86.5 106.5q20 49 20 136v649q0 48 -22 75t-66 27h-78v287h658v-287h-76q-42 0 -67 -26.5t-25 -79.5v-643q0 -186 -91 -318.5t-262 -189.5 q-118 -39 -288 -39q-140 0 -263.5 32t-217.5 92t-148.5 152t-54.5 205v713q0 47 -25 74.5t-70 27.5h-84z" />
<glyph unicode="V" horiz-adv-x="1662" d="M23 1249v287h800v-287h-65q-31 0 -50.5 -17.5t-19.5 -43.5q0 -9 1.5 -18t2.5 -14.5t5 -16t5.5 -14.5t8 -17.5t8.5 -17.5l201 -541q169 459 206 541q31 74 31 100q0 59 -70 59h-45v287h596v-287h-41q-41 0 -66 -22t-50 -80q-4 -10 -93 -231t-184.5 -457t-136.5 -332 q-25 -64 -25 -104q0 -12 2 -23h-387q-409 981 -487 1155q-21 47 -43.5 70.5t-56.5 23.5h-47z" />
<glyph unicode="W" horiz-adv-x="2568" d="M23 1249v287h761v-287h-1h-1h-1h-1h-1h-1h-1h-1h-1h-1h-1h-1h-1h-1h-1h-1h-1h-1h-1h-1h-1h-1h-1h-1h-1h-1h-10q-41 0 -41 -41q0 -16 32 -98l209 -530q149 354 176 417q-53 123 -69 164q-20 46 -43 67t-62 21h-59v287h803v-287h-52q-67 0 -67 -61q0 -22 20 -78l213 -530 q180 448 215 530q3 7 8 18.5t6.5 15.5l4.5 12t4 11t2.5 9t2 10t1 9t0.5 11q0 17 -15 30t-44 13h-66v287h617v-287h-52q-34 0 -57.5 -23t-46.5 -69q-35 -74 -424 -1016l-15 -37.5t-10.5 -28t-8.5 -29t-1.5 -22t2.5 -24.5h-387l-256 604q-154 -352 -213 -493q-17 -61 -17 -95 q0 -9 1 -16h-373q-379 892 -487 1143q-25 59 -47 82.5t-60 23.5h-69z" />
<glyph unicode="X" horiz-adv-x="1673" d="M25 0v287h69q68 0 117 73l295 437q-219 274 -285 354q-8 9 -22.5 27.5t-20.5 25.5t-18.5 18.5t-22 15.5t-24.5 7.5t-33 3.5h-45v287h862v-287h-68q-31 0 -36 -22t14 -45l162 -207q108 162 137 207q20 37 11 52t-40 15h-76v287h646v-287h-43q-28 -1 -39 -2.5t-30.5 -7.5 t-35 -21t-33.5 -40l-303 -441q205 -256 277 -344q49 -60 69 -75q40 -31 90 -31h48v-287h-877v287h68q34 0 38 26.5t-22 57.5l-154 188q-81 -121 -114 -168q-4 -6 -10.5 -15.5t-9.5 -14.5t-6 -13t-3 -16q0 -20 14.5 -32.5t42.5 -12.5h56v-287h-645z" />
<glyph unicode="Y" horiz-adv-x="1703" d="M23 1249v287h909v-287h-55q-28 0 -39 -7t-11 -28q0 -5 1.5 -10.5t5.5 -11.5t7 -9.5t9 -11t8 -10.5l150 -192q131 191 141 207q25 40 22 56.5t-32 16.5h-86v287h624v-287h-73q-35 0 -60 -14t-53 -53l-365 -504v-326q0 -27 19.5 -46t54.5 -19h94v-287h-825v287h72 q98 0 98 94v270q-351 430 -414 512q-65 86 -145 86h-57z" />
<glyph unicode="Z" horiz-adv-x="1556" d="M31 184l772 1082h-240q-103 0 -155.5 -41t-83.5 -162l-244 35l80 456q53 -18 196 -18h1051l80 -178l-782 -1102h239q75 0 128 19t85 58t50 85.5t30 113.5l264 -65l-100 -504q-129 37 -197 37h-1054z" />
<glyph unicode="[" horiz-adv-x="1075" d="M188 -201v1911h766v-225h-329v-1444h331v-242h-768z" />
<glyph unicode="\" horiz-adv-x="1181" d="M-27 1622l168 96l1053 -1831l-164 -94z" />
<glyph unicode="]" horiz-adv-x="1075" d="M117 41h332v1444h-330v227h766v-1911h-768v240z" />
<glyph unicode="^" horiz-adv-x="1024" d="M41 625l379 422h184l379 -422h-262l-209 180l-209 -180h-262z" />
<glyph unicode="_" horiz-adv-x="1024" d="M0 -102h1024v-232h-1024v232z" />
<glyph unicode="`" horiz-adv-x="1280" d="M309 1339l156 267l524 -424l-47 -80z" />
<glyph unicode="a" horiz-adv-x="1132" d="M39 266q0 118 80 210t215 134q107 29 248 29q0 79 -25 109t-88 30q-35 0 -90.5 -19.5t-99.5 -49.5l-115 209q82 53 198.5 91t243.5 38q181 0 271 -81.5t90 -236.5v-401q0 -39 4 -49.5t18 -10.5l94 8l15 -251l-496 -48v164q-38 -72 -115.5 -125t-162.5 -53 q-157 0 -234 125q-51 79 -51 178zM406 344q0 -34 19.5 -61t57.5 -27q32 0 58 28t32 70v95q-167 0 -167 -105z" />
<glyph unicode="b" horiz-adv-x="1249" d="M25 1430l532 120v-626q37 50 110 94.5t162 44.5q158 0 263.5 -147.5t105.5 -370.5q0 -124 -32.5 -235.5t-96.5 -188.5q-63 -78 -158.5 -120t-203.5 -42q-70 0 -127.5 17.5t-98 35t-69.5 17.5q-34 0 -52 -10.5t-32 -45.5l-162 41v1112q0 23 -1.5 35t-9 20.5t-22.5 8.5 l-41 -16zM557 303q18 -76 84 -76q68 0 104.5 67t36.5 183q0 99 -33.5 180.5t-89.5 81.5q-43 0 -68.5 -35t-33.5 -88v-313z" />
<glyph unicode="c" horiz-adv-x="1128" d="M49 512q0 78 21.5 156t66 149.5t105.5 126t147 87t184 32.5q67 0 121 -14q15 -4 37 -11.5t36 -11.5t26 -4t18.5 2.5t8.5 5t5 13.5t6 18l238 -33l-53 -416l-252 31q3 9 6.5 24.5t1.5 49.5t-18 53q-18 22 -39.5 32.5t-33.5 11.5t-38 1q-63 0 -116.5 -77.5t-53.5 -172.5 q0 -133 63 -220t146 -87q112 0 254 129l147 -197q-55 -49 -101.5 -83.5t-107.5 -69t-129 -52.5t-141 -18q-132 0 -240.5 48t-175.5 126.5t-103 174.5t-36 196z" />
<glyph unicode="d" horiz-adv-x="1269" d="M51 492q0 143 54 272t160 214t241 85q73 0 132.5 -31.5t96.5 -79.5v193q0 25 -6 34t-20 9q-24 0 -56 -14l-65 258l518 120v-1212q0 -43 5.5 -57.5t27.5 -14.5q15 0 36 3l35 5l13 3l14 -254l-496 -48v179q-106 -187 -288 -187q-95 0 -173.5 49t-127 127t-75 168.5 t-26.5 178.5zM504 508q0 -205 117 -205q91 0 110 156v137q0 61 -28 119.5t-72 58.5q-59 0 -93 -75t-34 -191z" />
<glyph unicode="e" horiz-adv-x="1175" d="M51 508q0 156 68 282.5t192.5 199.5t282.5 73q113 0 209 -38.5t159 -102.5t102 -140.5t50 -158.5l-557 -299q10 -28 57 -60.5t88 -32.5q123 0 271 148l141 -197q-53 -49 -86 -76q-166 -139 -405 -139q-244 0 -408 158q-164 161 -164 383zM446 668q0 -36 6 -64.5t12 -38.5 l5 -10q182 102 229 129q6 3 0 31q-13 43 -44.5 70.5t-75.5 27.5q-55 0 -93.5 -41t-38.5 -104z" />
<glyph unicode="f" horiz-adv-x="829" d="M72 0v264h45q33 0 45 12.5t12 53.5v420h-98v270h98v104q0 220 124.5 335.5t332.5 115.5q188 0 368 -68l-43 -340l-221 25q2 7 3.5 17.5t4 39t-5.5 39.5q-21 49 -82 49q-44 0 -66 -38t-22 -95v-184h224l-52 -297q-12 13 -41.5 20t-50.5 7h-80v-412q0 -76 56 -76h61v-262 h-612z" />
<glyph unicode="g" horiz-adv-x="1185" d="M-8 -268q0 71 24.5 115t98.5 96q-56 56 -56 135q0 75 61 146.5t142 84.5q-166 129 -166 326q0 93 39.5 174.5t105 136t151 86t177.5 31.5q67 0 127.5 -15t100 -36t75 -49.5t53.5 -48.5t34 -40q4 -6 6 -8q5 33 32.5 73.5t69.5 64.5q20 12 46 15.5t42 0.5l16 -2v-254 q-15 7 -34 7q-21 0 -47 -9q-24 -8 -39.5 -22t-18.5 -24l-4 -9q8 -33 8 -72q0 -79 -32.5 -155.5t-91 -138.5t-148.5 -100t-195 -38q-84 0 -147 24q-29 -19 -29 -53q0 -31 42.5 -42.5t144.5 -18.5q12 -1 30 -1q35 0 96 3q91 4 146 4q52 0 101.5 -17t92.5 -49.5t69 -87.5 t26 -123q0 -77 -35.5 -139t-93.5 -101.5t-137.5 -66.5t-163 -38t-174.5 -11q-105 0 -197.5 13t-173 40t-127.5 76.5t-47 116.5zM242 -215q0 -49 55 -84t178 -35q273 0 273 86q0 31 -38 37q-19 3 -43.5 3t-54.5 -3q-22 -2 -46 -2q-41 0 -87 6q-86 11 -115 19t-94 43 q-28 -28 -28 -70zM485 629q0 -52 6 -96.5t26 -81.5t52 -37q22 0 39 20.5t26 54t13 68.5t4 72t-4 72.5t-13 69.5t-26 54.5t-39 20.5q-43 0 -63.5 -67.5t-20.5 -149.5z" />
<glyph unicode="h" horiz-adv-x="1323" d="M33 1430l530 122v-700q45 97 137 154t199 57q130 0 209.5 -84.5t79.5 -228.5v-402q0 -46 11.5 -66t39.5 -20h53v-262h-579v262h37q49 0 49 68v307q0 36 -20 63t-58 27q-65 0 -111.5 -55t-46.5 -131v-203q0 -38 11 -57t40 -19h33v-262h-571v264h41q33 0 45 12.5t12 53.5 v776q0 46 -5 64t-24 18q-20 0 -47 -17z" />
<glyph unicode="i" horiz-adv-x="706" d="M25 920l534 122v-704q0 -42 17 -60t53 -18l41 2v-262h-602v262h45q32 0 44.5 16.5t12.5 55.5v315q0 10 -8.5 20.5t-14.5 10.5q-26 0 -53 -18zM131 1276q0 96 90.5 177t210.5 81q78 0 124 -43.5t46 -101.5q0 -100 -92.5 -181.5t-198.5 -81.5q-81 0 -130.5 44.5 t-49.5 105.5z" />
<glyph unicode="j" horiz-adv-x="712" d="M-55 -301q84 39 147 84q78 55 78 172v690q0 37 -23 37q-29 0 -53 -20l-65 260l530 122v-1064q0 -114 -73 -219t-193 -167q-70 -36 -130.5 -63.5t-86.5 -36.5l-25 -10zM131 1278q0 93 87.5 175.5t205.5 82.5q76 0 119 -46t43 -106q0 -94 -90 -171.5t-195 -77.5 q-81 0 -125.5 40.5t-44.5 102.5z" />
<glyph unicode="k" horiz-adv-x="1341" d="M29 1430l534 122v-952q11 8 35.5 26.5t56.5 43.5t47 37q19 14 24 19.5t5 14.5q0 15 -37 15h-18v264h551v-264h-43q-17 0 -32 -3t-25 -6t-27 -13t-25.5 -16l-34 -24t-39.5 -28q57 -192 137 -342.5t210 -327.5q-150 -148 -170 -166q-186 112 -330 274.5t-191 294.5l-88 -67 v-37q0 -33 68 -33v-262h-565v262h51q30 0 40.5 16.5t10.5 55.5v801q0 51 -18 51q-36 0 -58 -15z" />
<glyph unicode="l" horiz-adv-x="702" d="M29 1430l530 122v-1214q0 -76 59 -76h50v-262h-596v264h41q33 0 45 12.5t12 53.5v803q0 55 -29 55q-14 0 -25.5 -4t-16.5 -8l-5 -5z" />
<glyph unicode="m" horiz-adv-x="1914" d="M25 922l514 122v-202q63 82 106 119q120 102 250 102q112 0 179 -60t85 -159q54 87 109 131q111 86 221 86q140 0 215.5 -89.5t75.5 -240.5v-405q0 -36 11.5 -50t43.5 -14h51v-262h-573v262h28q29 0 37 13.5t8 41.5v338q0 34 -19.5 58t-51.5 24q-46 0 -89.5 -45 t-58.5 -110v-256q0 -36 12 -50t44 -14h30v-262h-557v262h33q29 0 37 13.5t8 41.5v342q0 34 -16.5 58t-48.5 24q-56 0 -103 -71t-47 -138v-194q0 -44 8 -60t33 -16h37v-262h-569v262h49q33 0 43 14t10 54v317q0 26 -25.5 31.5t-50.5 -14.5z" />
<glyph unicode="n" horiz-adv-x="1302" d="M27 920l512 124v-206q51 70 123 133q44 39 106 65.5t121 26.5q140 0 209 -90.5t69 -259.5v-387q0 -36 11 -50t43 -14h47v-262h-572v262h33q29 0 37 13.5t8 41.5v336q0 31 -22.5 54.5t-55.5 23.5q-53 0 -95 -53t-42 -117v-223q0 -48 7 -62t40 -14h31v-262h-569v262h49 q33 0 43 14t10 54v317q0 23 -26.5 28.5t-49.5 -13.5z" />
<glyph unicode="o" horiz-adv-x="1187" d="M47 514q0 149 73 275t199 199t275 73t275 -73t199 -199t73 -275t-73 -274.5t-199 -198t-275 -72.5t-275 72.5t-199 198t-73 274.5zM467 526q0 -51 6 -99t19 -95t39.5 -75t62.5 -28q40 0 68.5 50.5t39.5 115t11 131.5q0 46 -6 91.5t-18.5 89.5t-37 71t-57.5 27 q-46 0 -76 -47.5t-40.5 -107t-10.5 -124.5z" />
<glyph unicode="p" horiz-adv-x="1249" d="M25 922l514 122v-172q33 73 113.5 132t162.5 59q175 0 287 -176q100 -156 100 -342q0 -117 -24 -218.5t-71 -183.5t-126 -129t-182 -47q-63 0 -112 14.5t-72 30.5t-60 47v-249q0 -43 13.5 -64.5t58.5 -21.5h53v-238h-610v238h32q68 0 68 77v822q0 32 -10.5 46t-26.5 11.5 t-37 -16.5zM559 399q0 -157 98 -157q44 0 79.5 77.5t35.5 182.5t-33.5 169t-70.5 64q-52 0 -80.5 -57t-28.5 -125v-154z" />
<glyph unicode="q" horiz-adv-x="1216" d="M47 492q0 159 64.5 290t179.5 206t256 75q90 0 192 -23.5t109 -23.5q27 0 39.5 12.5t25.5 46.5l170 -65v-1190q0 -51 29 -53q6 -1 28 1.5t41 5.5l19 3l14 -254l-507 -49v600q-90 -107 -242 -107q-125 0 -222.5 77t-146.5 195.5t-49 252.5zM483 532q0 -131 28 -215t79 -84 q47 0 80 49t35 95v297q0 65 -28 107t-69 42q-51 0 -88 -77t-37 -214z" />
<glyph unicode="r" horiz-adv-x="1036" d="M27 922l510 122v-227q34 81 98 144q88 88 201 88q126 0 188 -35l-55 -389l-238 12q2 15 2 28q0 22 -6 40q-11 32 -61 32q-36 0 -71.5 -66t-35.5 -141v-192q0 -44 11.5 -60t45.5 -16h52v-262h-598v262h47q33 0 43 14t10 54v321q0 23 -21.5 27.5t-52.5 -16.5z" />
<glyph unicode="s" horiz-adv-x="1058" d="M33 309l241 47q32 -155 183 -155q86 0 86 67q0 48 -90 92q-70 34 -177 91q-91 49 -131.5 119t-40.5 171q0 104 53 178t139 109t196 35q43 0 128 -23.5t97 -23.5q25 0 34.5 10t16.5 35l225 -39l-53 -373l-233 31q2 11 2 22q0 44 -30 78q-37 42 -87 43q-84 0 -84 -59 q0 -17 7.5 -31t26.5 -27.5t35.5 -22.5t52 -27t58.5 -31q12 -7 63 -33.5t85 -46.5q149 -87 149 -260q0 -133 -98 -225.5t-238 -92.5q-69 0 -131.5 15t-100 30t-46.5 15q-17 0 -27 -9.5t-6 -29.5l-221 -39z" />
<glyph unicode="t" horiz-adv-x="942" d="M43 756v231l516 301v-268h315l-51 -293q-63 26 -168 29h-94v-365q0 -59 21.5 -90.5t74.5 -32.5q16 0 31 2t24 4t25 11t22 12.5t28 18.5t30 20l117 -203q-110 -80 -158 -105q-117 -61 -268 -61q-53 0 -106 14t-85 37q-79 55 -115 123.5t-36 161.5v453h-123z" />
<glyph unicode="u" horiz-adv-x="1312" d="M25 940l528 123v-666q0 -76 12 -104.5t56 -28.5q54 0 96.5 64.5t42.5 134.5v190q0 43 -27 43q-17 0 -39 -14l-65 258l520 123v-748q0 -47 33 -47q16 0 47.5 3.5t38.5 7.5q6 -240 12 -254l-496 -48v183q-32 -77 -124 -136t-209 -59q-121 0 -204 83.5t-83 211.5v389 q0 29 -4.5 38t-16.5 9q-30 0 -55 -14z" />
<glyph unicode="v" horiz-adv-x="1206" d="M16 758v262h650v-262h-37q-29 0 -37 -5t-10 -22q0 -14 16 -51l98 -262q87 229 99 262q16 40 16 51q0 27 -31 27h-35v262h437v-262h-35q-34 0 -48 -13t-36 -63q-18 -41 -124 -291t-114 -268q-29 -65 -29 -108q0 -8 1 -15h-355q-26 57 -153 347t-146 331q-22 48 -39 64 t-47 16h-41z" />
<glyph unicode="w" horiz-adv-x="1847" d="M18 758v262h619v-262h-33q-20 0 -25.5 -5t-7.5 -22q0 -12 17 -51q23 -56 49 -124.5t41 -109.5l14 -40l103 260q-21 46 -33 73q-8 19 -39 19h-27v262h602v-262h-45q-19 0 -27.5 -7t-8.5 -26q0 -13 26 -74l88 -223q80 221 90 252q17 49 17 51q0 27 -29 27h-39v262h457v-262 h-35q-35 0 -54 -15t-40 -63q-52 -117 -252 -580q-17 -39 -17 -79q0 -11 1 -21h-357l-143 340q-64 -135 -113 -244q-20 -44 -20 -85v-11h-357q-22 44 -84 184.5t-134 306.5t-81 187q-22 49 -38.5 64.5t-47.5 15.5h-37z" />
<glyph unicode="x" horiz-adv-x="1265" d="M61 758v262h680v-262h-45q-28 0 -28 -17q0 -11 45 -51q30 -28 73 -74q2 2 68 84q2 2 7.5 8.5t8 9.5t5 8.5t2.5 10.5q0 13 -7.5 17t-25.5 4h-41v262h424v-262h-35q-31 0 -48 -14t-46 -54q-109 -147 -160 -211q8 -7 25 -23t26 -24q21 -20 55.5 -59t40.5 -45q5 -5 17 -17.5 t15.5 -15.5t12.5 -11.5t13.5 -10.5t12 -5.5t14.5 -4.5t16 -1h41v-262h-688v262h51q45 0 45 17q0 10 -47 57q-14 14 -41 46t-45 50q-9 -13 -30 -47.5t-36 -54.5q-26 -36 -26 -47q0 -13 7 -17t25 -4h39v-262h-413v262h41q24 0 39 12t45 48t96.5 133.5t70.5 103.5 q-52 53 -147 141q-37 34 -59 46t-52 12h-41z" />
<glyph unicode="y" horiz-adv-x="1216" d="M31 758v262h633v-262h-37q-26 0 -36.5 -7t-10.5 -24t18 -57q5 -12 45.5 -84t50.5 -94q4 -7 7.5 -20t5.5 -22l2 -10q6 36 14 52q9 18 38 90t36 88q18 45 18 55q0 13 -9.5 23t-25.5 10h-39v262h467v-262h-34q-48 0 -82 -78l-531 -1204h-418q160 203 244 342 q24 40 56.5 98.5t52.5 97.5l20 39q-315 556 -350 617q-29 51 -47 69.5t-47 18.5h-41z" />
<glyph unicode="z" horiz-adv-x="1204" d="M63 168l500 600h-102q-75 0 -102.5 -21t-53.5 -102l-211 39l84 367q26 -10 83.5 -20.5t96.5 -10.5h676l90 -162l-471 -608h123q62 0 87 25.5t52 109.5l222 -51l-88 -418l-236 41q1 5 1 9q0 34 -42 34h-616z" />
<glyph unicode="{" horiz-adv-x="811" d="M45 623v282q78 0 130.5 57t55.5 121q1 9 3.5 59t4 68t5 63t8 71.5t11.5 65t17 71.5t23 65q25 61 65.5 106t86 69t95 39t94 18t80 2.5t56.5 -3.5l21 -3v-287h-76q-33 0 -54 -13.5t-32 -43t-15.5 -61t-7.5 -83.5q-1 -23 -3 -121t-7 -155q-13 -184 -153 -246 q137 -61 151 -248q9 -108 12 -274q2 -102 24 -151.5t85 -49.5h76v-287q-8 -1 -21 -3t-53.5 -3.5t-79 2t-90 17t-95 36.5t-85.5 66.5t-68 101.5q-27 60 -45 153t-23 153.5t-12 173.5q-3 60 -55 116t-129 56z" />
<glyph unicode="|" horiz-adv-x="419" d="M102 -244v2018h217v-2018h-217z" />
<glyph unicode="}" horiz-adv-x="811" d="M10 41h76q63 0 85 49.5t24 151.5q3 166 12 274q14 187 151 248q-140 62 -153 246q-3 56 -6 150t-4 126q-3 52 -7.5 83.5t-15.5 61t-32 43t-54 13.5h-76v287q8 1 22 3t55.5 3.5t81 -2.5t92 -18t96 -38.5t85 -69.5t66.5 -106q13 -32 23 -65t17 -71.5t11.5 -65t8 -71.5 t5 -63t4 -68t3.5 -59q3 -64 55.5 -121t130.5 -57v-282q-77 0 -129 -56t-55 -116q-7 -113 -12 -173.5t-23 -153.5t-45 -153q-36 -80 -100 -131.5t-129.5 -68.5t-126 -22.5t-98.5 -0.5l-38 6v287z" />
<glyph unicode="~" horiz-adv-x="1024" d="M16 672q75 122 172.5 196t196.5 74q67 0 193 -70q8 -4 26.5 -13.5t26 -14t22.5 -12t23 -10.5t18 -7.5t17 -6t12 -1.5q65 0 105 27.5t94 105.5l86 -80q-57 -117 -143.5 -195.5t-188.5 -78.5q-20 0 -40.5 4t-47 15.5t-39 17t-47.5 24t-41 21.5q-94 55 -144 55 q-52 0 -89.5 -25.5t-127.5 -115.5z" />
<glyph unicode="&#xa1;" horiz-adv-x="684" d="M115 -35q83 834 112 1084l201 73q13 -85 39.5 -260.5t46.5 -308t25 -172.5q4 -32 14 -45.5t29 -13.5q5 0 14 1.5t19 3.5t14 3v-269zM123 1395q0 81 60.5 135.5t150.5 54.5q66 0 122 -45.5t56 -105.5q0 -79 -66 -133t-151 -54q-63 0 -117.5 43.5t-54.5 104.5z" />
<glyph unicode="&#xa2;" horiz-adv-x="1196" d="M68 758q0 127 54 245t163.5 203t251.5 99v231h184v-244q1 0 4 -2t4 -2q13 -4 27 -8.5t20.5 -6.5t15.5 -3.5t19 -1.5q7 0 12 0.5t9 2.5l6 3t4 6t2.5 6.5t2.5 9.5t3 11l237 -33l-53 -416l-252 31q3 9 6.5 24.5t1.5 49.5t-18 53q-18 22 -39 32.5t-33 11.5t-38 1 q-63 0 -116.5 -77.5t-53.5 -172.5q0 -133 62.5 -220t145.5 -87q112 0 254 129l148 -197q-99 -87 -186.5 -140t-194.5 -73v-223h-184v217q-112 16 -203 68.5t-148 127.5t-87.5 163.5t-30.5 181.5z" />
<glyph unicode="&#xa3;" horiz-adv-x="1343" d="M84 575l33 209h137q-6 20 -30.5 90.5t-37 128.5t-12.5 121q0 100 31 179.5t82.5 131t122.5 85.5t147.5 48.5t161.5 14.5q81 0 159.5 -21.5t132.5 -51.5t96 -60.5t63 -51.5l20 -22l-172 -207q-4 5 -12 14t-34 31.5t-53 40t-68 31.5t-81 14q-71 0 -114.5 -53.5 t-43.5 -134.5q0 -32 34 -147.5t40 -180.5h242l-33 -209h-227q-24 -73 -53.5 -128.5t-84.5 -106.5q240 -6 394 2q52 3 90 62.5t47 119.5l215 -75l-150 -449h-901l-127 174q88 110 132.5 197t62.5 204h-209z" />
<glyph unicode="&#xa4;" d="M303 354v396h365v-396h-365zM303 831v398h365v-398h-365zM750 354v396h366v-396h-366zM750 831v398h366v-398h-366z" />
<glyph unicode="&#xa5;" horiz-adv-x="1695" d="M25 1245v291h901v-291q-40 4 -56 4q-27 0 -38 -7t-11 -28q0 -5 1.5 -10.5t5.5 -11.5t7 -9.5t9 -11t8 -10.5l149 -192q132 191 142 207q25 40 22 56.5t-32 16.5q-46 0 -86 -4v291h624v-291q-20 4 -74 4q-35 0 -59 -14t-53 -53q-6 -8 -279 -385h213l-47 -172h-252v-76h299 l-45 -166h-256q0 -34 18.5 -65t49.5 -31q16 0 102 4v-291h-825v291q31 -4 86 -4q44 0 64 25.5t20 64.5h-307l47 172h260v76h-305l47 172h145q-201 242 -301 366q-32 41 -70.5 63.5t-74.5 22.5q-3 0 -49 -4z" />
<glyph unicode="&#xa6;" d="M303 354v396h365v-396h-365zM303 831v398h365v-398h-365zM750 354v396h366v-396h-366zM750 831v398h366v-398h-366z" />
<glyph unicode="&#xa7;" horiz-adv-x="1064" d="M82 553q0 75 38.5 144.5t89.5 114t109 73.5q-65 65 -100.5 108t-55 87.5t-24 81.5t-4.5 102q0 141 108.5 234t291.5 93q76 0 173 -16.5t156 -32.5l58 -16l-60 -332l-219 39q16 38 16 96q0 22 -24.5 42t-54.5 20q-48 0 -71.5 -21.5t-23.5 -54.5q0 -50 23 -95.5t96 -123.5 q17 -18 70.5 -70.5t110 -108.5t67.5 -67q87 -87 118 -155t31 -173q0 -100 -65 -191t-172 -153q84 -84 123 -144t48 -104t9 -123q0 -141 -111.5 -238t-293.5 -97q-76 0 -171 17t-152 33l-56 17l61 334l213 -41q-12 -52 -12 -90q0 -23 24 -45.5t54 -22.5q48 0 72 20.5t24 53.5 q0 51 -21 95.5t-94 121.5q-22 23 -130 125.5t-120 114.5q-85 85 -117 162.5t-32 185.5zM440 602q0 -41 25.5 -86t55 -77t89.5 -91q1 2 6 11t7 13t6 14.5t5.5 19.5t3 23.5t1.5 31.5q0 41 -23.5 86t-51.5 78t-85 94q-29 -38 -34 -55q-5 -21 -5 -62z" />
<glyph unicode="&#xa8;" horiz-adv-x="1280" d="M170 1393q0 81 66.5 134.5t152.5 53.5q63 0 117.5 -42.5t54.5 -102.5q0 -83 -60.5 -138t-150.5 -55q-66 0 -123 45.5t-57 104.5zM737 1393q0 81 66.5 134.5t152.5 53.5q62 0 117 -42.5t55 -102.5q0 -83 -61.5 -138t-151.5 -55q-66 0 -122 45.5t-56 104.5z" />
<glyph unicode="&#xa9;" horiz-adv-x="1515" d="M57 883q0 189 94.5 350.5t256 255.5t350.5 94q142 0 271.5 -55.5t223.5 -149.5t149.5 -223.5t55.5 -271.5q0 -189 -94 -350.5t-255.5 -256t-350.5 -94.5q-142 0 -271.5 56t-223.5 150t-150 223.5t-56 271.5zM162 883q0 -122 47 -232.5t126.5 -190t190 -126.5t232.5 -47 t232.5 47t190 126.5t126.5 190t47 232.5t-47 232.5t-126.5 190t-190 126.5t-232.5 47t-232.5 -47t-190 -126.5t-126.5 -190t-47 -232.5zM365 899q0 175 121.5 287t295.5 112q37 0 79 -10.5t48 -11.5q27 0 27 20l135 -20l-33 -238l-139 23q4 49 -8 67q-14 22 -35.5 29.5 t-58.5 7.5q-80 0 -130.5 -66t-50.5 -147q0 -127 65.5 -210t147.5 -83q63 0 108.5 22.5t90.5 63.5l80 -110q-6 -6 -16.5 -16t-45.5 -35t-72.5 -44t-96 -35t-117.5 -16q-176 0 -285.5 112t-109.5 298z" />
<glyph unicode="&#xaa;" horiz-adv-x="890" d="M49 545v190h805v-190h-805zM78 1038q0 83 55 147t150 93q76 20 174 20q0 55 -17.5 77t-60.5 22q-25 0 -64.5 -14t-70.5 -35l-80 145q57 37 138.5 63.5t170.5 26.5q127 0 190.5 -57t63.5 -164v-281q0 -28 2.5 -35.5t11.5 -7.5l66 6l10 -176l-346 -32v114 q-26 -50 -81 -87.5t-114 -37.5q-108 0 -163 88q-35 53 -35 125zM334 1092q0 -23 13.5 -42.5t39.5 -19.5q22 0 40 21t24 49v65q-117 0 -117 -73z" />
<glyph unicode="&#xab;" horiz-adv-x="1187" d="M74 457v143l524 340v-235l-266 -177l266 -176v-239zM598 457v143l524 340v-235l-266 -177l266 -176v-239z" />
<glyph unicode="&#xac;" d="M303 354v396h365v-396h-365zM303 831v398h365v-398h-365zM750 354v396h366v-396h-366zM750 831v398h366v-398h-366z" />
<glyph unicode="&#xad;" horiz-adv-x="688" d="M90 512l70 246h370q30 0 68 12l-68 -246h-335q-59 0 -105 -12z" />
<glyph unicode="&#xae;" horiz-adv-x="1515" d="M57 883q0 189 94.5 350.5t256 255.5t350.5 94q142 0 271.5 -55.5t223.5 -149.5t149.5 -223.5t55.5 -271.5q0 -189 -94 -350.5t-255.5 -256t-350.5 -94.5q-142 0 -271.5 56t-223.5 150t-150 223.5t-56 271.5zM162 883q0 -122 47 -232.5t126.5 -190t190 -126.5t232.5 -47 t232.5 47t190 126.5t126.5 190t47 232.5t-47 232.5t-126.5 190t-190 126.5t-232.5 47t-232.5 -47t-190 -126.5t-126.5 -190t-47 -232.5zM397 549v143h37q45 0 45 47v385q0 29 -10 39.5t-35 10.5h-37v143h477q143 0 217 -64t74 -161q0 -65 -42 -122t-97 -77 q50 -123 87.5 -192.5t105.5 -151.5l-84 -96q-91 47 -169.5 121.5t-122.5 138t-71 123.5h-43v-97q0 -24 8 -35.5t29 -11.5h37v-143h-406zM729 973h35q75 0 108 26.5t33 85.5q0 40 -34 64.5t-95 24.5h-47v-201z" />
<glyph unicode="&#xaf;" horiz-adv-x="1280" d="M113 1397v141h1046v-141h-1046z" />
<glyph unicode="&#xb0;" horiz-adv-x="718" d="M102 1327q0 107 75 181.5t181 74.5q107 0 182.5 -74.5t75.5 -181.5t-75 -180.5t-183 -73.5q-106 0 -181 73.5t-75 180.5zM233 1327q0 -55 36 -94t89 -39q54 0 91.5 39.5t37.5 93.5t-37.5 89.5t-91.5 35.5t-89.5 -35.5t-35.5 -89.5z" />
<glyph unicode="&#xb1;" horiz-adv-x="1957" d="M72 0v264q33 -2 47 -2q55 0 55 68v420h-98v270h98v127q0 203 152 326q48 38 119.5 63t144.5 25q58 0 108.5 -9t94 -27.5t70.5 -33.5t67 -41q68 58 155 95.5t179 37.5q96 0 211 -15.5t151 -15.5q126 0 189 31v-1249q0 -38 10 -55t35 -17h57v-262h-586v262h45q26 0 34.5 14 t8.5 50v907q0 64 -16 93.5t-70 29.5q-46 0 -93.5 -46t-47.5 -106v-184h154q-50 -289 -52 -297q-39 27 -71 27h-31v-412q0 -39 10 -57.5t39 -18.5h33v-262h-569v264h38q26 0 38 14.5t12 53.5v418h-232v-412q0 -38 11 -57t40 -19h35v-262h-575zM563 1020h236v141q0 36 18 101 q-12 21 -50.5 39t-72.5 18q-55 0 -93 -44t-38 -116v-139z" />
<glyph unicode="&#xb2;" d="M303 354v396h365v-396h-365zM303 831v398h365v-398h-365zM750 354v396h366v-396h-366zM750 831v398h366v-398h-366z" />
<glyph unicode="&#xb3;" d="M303 354v396h365v-396h-365zM303 831v398h365v-398h-365zM750 354v396h366v-396h-366zM750 831v398h366v-398h-366z" />
<glyph unicode="&#xb4;" horiz-adv-x="1280" d="M297 1182l524 424l156 -267l-633 -237z" />
<glyph unicode="&#xb5;" d="M303 354v396h365v-396h-365zM303 831v398h365v-398h-365zM750 354v396h366v-396h-366zM750 831v398h366v-398h-366z" />
<glyph unicode="&#xb6;" horiz-adv-x="1740" d="M106 932q-1 86 20 170t67 163t112 139t163.5 96t213.5 36h958v-262h-75q-48 0 -68 -23.5t-20 -81.5v-1579h-932v263h231q48 0 68 23t20 81v408h-190q-129 0 -229 31.5t-162.5 84t-103 127.5t-56.5 153.5t-17 170.5zM668 934q0 -72 5 -125.5t19.5 -108.5t46.5 -84.5 t80 -29.5h62v688h-62q-151 0 -151 -340zM1106 -147h123v1421h-123v-1421z" />
<glyph unicode="&#xb7;" horiz-adv-x="614" d="M102 754q0 81 66.5 134.5t153.5 53.5q63 0 117.5 -42.5t54.5 -102.5q0 -83 -60.5 -138t-150.5 -55q-66 0 -123.5 45.5t-57.5 104.5z" />
<glyph unicode="&#xb8;" horiz-adv-x="1280" d="M414 -541l57 64q62 -53 133 -53q154 0 154 122q0 93 -62 124.5t-192 31.5l74 299h131l-52 -209q181 -14 252.5 -74t71.5 -176q0 -103 -95 -169t-222 -66q-53 0 -131 29.5t-119 76.5z" />
<glyph unicode="&#xb9;" d="M303 354v396h365v-396h-365zM303 831v398h365v-398h-365zM750 354v396h366v-396h-366zM750 831v398h366v-398h-366z" />
<glyph unicode="&#xba;" horiz-adv-x="890" d="M66 1204q0 158 111.5 269.5t271.5 111.5q158 0 270 -111.5t112 -269.5q0 -160 -111.5 -271.5t-270.5 -111.5q-160 0 -271.5 111.5t-111.5 271.5zM68 545v190h759v-190h-759zM358 1212q0 -49 7 -93t28.5 -79.5t55.5 -35.5q40 0 60.5 66t20.5 142q0 74 -19.5 134.5 t-61.5 60.5q-47 0 -69 -60.5t-22 -134.5z" />
<glyph unicode="&#xbb;" horiz-adv-x="1187" d="M66 113v239l266 176l-266 177v235l524 -340v-143zM590 113v239l266 176l-266 177v235l524 -340v-143z" />
<glyph unicode="&#xbc;" d="M303 354v396h365v-396h-365zM303 831v398h365v-398h-365zM750 354v396h366v-396h-366zM750 831v398h366v-398h-366z" />
<glyph unicode="&#xbd;" d="M303 354v396h365v-396h-365zM303 831v398h365v-398h-365zM750 354v396h366v-396h-366zM750 831v398h366v-398h-366z" />
<glyph unicode="&#xbe;" d="M303 354v396h365v-396h-365zM303 831v398h365v-398h-365zM750 354v396h366v-396h-366zM750 831v398h366v-398h-366z" />
<glyph unicode="&#xbf;" horiz-adv-x="1132" d="M45 340q0 158 145 313q122 124 304 205l10 154l205 78l59 -363q-64 -28 -111 -56.5t-88 -68t-62.5 -91t-21.5 -114.5q0 -74 46.5 -112.5t109.5 -38.5q34 0 70.5 12.5t64 30t50.5 35.5t36 30l12 13l175 -197q-8 -9 -23 -25t-65.5 -55.5t-105.5 -70t-139.5 -55.5 t-170.5 -25q-232 0 -366 108t-134 293zM408 1368q0 82 60.5 136.5t149.5 54.5q66 0 122.5 -46t56.5 -106q0 -79 -66 -132.5t-151 -53.5q-63 0 -117.5 43.5t-54.5 103.5z" />
<glyph unicode="&#xc0;" horiz-adv-x="1642" d="M23 0v287h45q42 0 59 21t46 95q7 19 11 29q23 61 173.5 448.5t205.5 534.5q20 49 24 68.5t1 52.5h379q413 -940 491 -1116q42 -95 58.5 -114t60.5 -19h43v-287h-752v287h47q37 0 46.5 15.5t-0.5 35.5q-15 46 -27 53h-438q-8 -14 -17 -51q-8 -32 6 -42.5t47 -10.5h41v-287 h-550zM440 1866l156 266l524 -424l-47 -80zM592 653h244q-97 222 -115 265q-8 15 -16 43q-95 -259 -113 -308z" />
<glyph unicode="&#xc1;" horiz-adv-x="1642" d="M23 0v287h45q42 0 59 21t46 95q7 19 11 29q23 61 173.5 448.5t205.5 534.5q20 49 24 68.5t1 52.5h379q413 -940 491 -1116q42 -95 58.5 -114t60.5 -19h43v-287h-752v287h47q37 0 46.5 15.5t-0.5 35.5q-15 46 -27 53h-438q-8 -14 -17 -51q-8 -32 6 -42.5t47 -10.5h41v-287 h-550zM592 653h244q-97 222 -115 265q-8 15 -16 43q-95 -259 -113 -308zM610 1710l525 424l155 -266l-633 -238z" />
<glyph unicode="&#xc2;" horiz-adv-x="1642" d="M23 0v287h45q42 0 59 21t46 95q7 19 11 29q23 61 173.5 448.5t205.5 534.5q20 49 24 68.5t1 52.5h379q413 -940 491 -1116q42 -95 58.5 -114t60.5 -19h43v-287h-752v287h47q37 0 46.5 15.5t-0.5 35.5q-15 46 -27 53h-438q-8 -14 -17 -51q-8 -32 6 -42.5t47 -10.5h41v-287 h-550zM301 1704l420 414h168l426 -414l-49 -62l-457 248l-461 -248zM592 653h244q-97 222 -115 265q-8 15 -16 43q-95 -259 -113 -308z" />
<glyph unicode="&#xc3;" horiz-adv-x="1642" d="M23 0v287h45q42 0 59 21t46 95q7 19 11 29q23 61 173.5 448.5t205.5 534.5q20 49 24 68.5t1 52.5h379q413 -940 491 -1116q42 -95 58.5 -114t60.5 -19h43v-287h-752v287h47q37 0 46.5 15.5t-0.5 35.5q-15 46 -27 53h-438q-8 -14 -17 -51q-8 -32 6 -42.5t47 -10.5h41v-287 h-550zM279 1747q126 146 223 218.5t203 72.5q43 0 111 -41t135.5 -82t109.5 -41q79 0 127.5 29.5t122.5 111.5l73 -88q-119 -140 -221.5 -215.5t-201.5 -75.5q-45 0 -115.5 41.5t-137.5 83t-102 41.5q-73 0 -128 -33t-128 -112zM592 653h244q-97 222 -115 265q-8 15 -16 43 q-95 -259 -113 -308z" />
<glyph unicode="&#xc4;" horiz-adv-x="1642" d="M23 0v287h45q42 0 59 21t46 95q7 19 11 29q23 61 173.5 448.5t205.5 534.5q20 49 24 68.5t1 52.5h379q413 -940 491 -1116q42 -95 58.5 -114t60.5 -19h43v-287h-752v287h47q37 0 46.5 15.5t-0.5 35.5q-15 46 -27 53h-438q-8 -14 -17 -51q-8 -32 6 -42.5t47 -10.5h41v-287 h-550zM326 1817q0 81 66.5 134.5t152.5 53.5q63 0 117.5 -42.5t54.5 -102.5q0 -83 -60.5 -138t-150.5 -55q-66 0 -123 45.5t-57 104.5zM592 653h244q-97 222 -115 265q-8 15 -16 43q-95 -259 -113 -308zM893 1817q0 81 66.5 134.5t152.5 53.5q62 0 117 -42.5t55 -102.5 q0 -83 -61.5 -138t-151.5 -55q-66 0 -122 45.5t-56 104.5z" />
<glyph unicode="&#xc5;" horiz-adv-x="1642" d="M23 0v287h45q42 0 59 21t46 95q7 19 11 29q23 61 173.5 448.5t205.5 534.5q20 49 24 68.5t1 52.5h379q413 -940 491 -1116q42 -95 58.5 -114t60.5 -19h43v-287h-752v287h47q37 0 46.5 15.5t-0.5 35.5q-15 46 -27 53h-438q-8 -14 -17 -51q-8 -32 6 -42.5t47 -10.5h41v-287 h-550zM528 1888q0 104 73.5 176t176.5 72q102 0 175 -72t73 -176q0 -102 -73 -175t-175 -73q-103 0 -176.5 72.5t-73.5 175.5zM592 653h244q-97 222 -115 265q-8 15 -16 43q-95 -259 -113 -308zM659 1888q0 -47 36.5 -81.5t82.5 -34.5q45 0 81 35t36 81q0 44 -36.5 80.5 t-80.5 36.5q-46 0 -82.5 -36.5t-36.5 -80.5z" />
<glyph unicode="&#xc6;" horiz-adv-x="2445" d="M23 0v287h106q49 0 80 27t92 118q381 563 516 764q20 32 6 44.5t-53 4.5v291h1247q67 0 74 53l258 -33l-61 -456l-273 28q8 12 6 32t-8.5 40t-31 34.5t-60.5 14.5h-367v-311h230q56 0 77 12.5t25 50.5l223 -34l-49 -410l-237 37q8 45 -4 63q-14 21 -84 21h-181v-387h334 q34 0 61 3t48.5 11t37 16t28.5 25t21.5 29.5t18 39t14.5 44.5t15 53l254 -37l-84 -508q-32 13 -134.5 23t-205.5 10h-1059v287h72q52 0 77 23.5t25 80.5h-469q-26 -29 -33 -51q-8 -53 43 -53h76v-287h-671zM778 653h299v449z" />
<glyph unicode="&#xc7;" horiz-adv-x="1599" d="M55 784q0 174 66.5 324.5t179.5 254t266 162t322 58.5q76 0 158 -21t96 -22q53 -5 53 39l270 -39l-63 -477l-281 45q11 98 -14 135q-29 44 -73 60t-117 16q-107 0 -191 -65.5t-125.5 -161t-42.5 -199.5q-1 -128 36 -240t97 -187t137 -118t156 -43q124 0 215 45t182 127 l160 -219q-11 -11 -30.5 -29t-85.5 -65.5t-137 -85t-180 -70.5t-218 -39l-25 -98q178 -14 251 -77.5t73 -174.5q0 -103 -97 -169t-225 -66q-52 0 -127 30.5t-116 77.5l57 64q64 -61 145 -58q65 1 101.5 36.5t36.5 88.5q0 94 -61 127t-189 33l47 188q-151 10 -280.5 72 t-224 166t-148.5 252t-54 323z" />
<glyph unicode="&#xc8;" horiz-adv-x="1619" d="M74 1249v287h1120q67 0 74 53l258 -33l-62 -456l-272 28q8 12 6 32t-8.5 40t-31 34.5t-60.5 14.5h-367v-311h230q54 0 75.5 21.5t26.5 70.5l223 -26l-49 -439l-238 29q8 45 -4 63q-14 21 -84 21h-180v-387h334q34 0 61 3t48.5 11t37 16t28.5 25t21.5 29.5t18 39 t14.5 44.5t15 53l254 -37l-84 -508q-32 13 -134.5 23t-205.5 10h-1063v287h71q52 0 77.5 24t25.5 82v774q0 45 -20.5 63.5t-71.5 18.5h-84zM416 1868l155 266l525 -424l-47 -80z" />
<glyph unicode="&#xc9;" horiz-adv-x="1619" d="M74 1249v287h1120q67 0 74 53l258 -33l-62 -456l-272 28q8 12 6 32t-8.5 40t-31 34.5t-60.5 14.5h-367v-311h230q54 0 75.5 21.5t26.5 70.5l223 -26l-49 -439l-238 29q8 45 -4 63q-14 21 -84 21h-180v-387h334q34 0 61 3t48.5 11t37 16t28.5 25t21.5 29.5t18 39 t14.5 44.5t15 53l254 -37l-84 -508q-32 13 -134.5 23t-205.5 10h-1063v287h71q52 0 77.5 24t25.5 82v774q0 45 -20.5 63.5t-71.5 18.5h-84zM494 1708l524 424l156 -266l-633 -238z" />
<glyph unicode="&#xca;" horiz-adv-x="1619" d="M74 1249v287h1120q67 0 74 53l258 -33l-62 -456l-272 28q8 12 6 32t-8.5 40t-31 34.5t-60.5 14.5h-367v-311h230q54 0 75.5 21.5t26.5 70.5l223 -26l-49 -439l-238 29q8 45 -4 63q-14 21 -84 21h-180v-387h334q34 0 61 3t48.5 11t37 16t28.5 25t21.5 29.5t18 39 t14.5 44.5t15 53l254 -37l-84 -508q-32 13 -134.5 23t-205.5 10h-1063v287h71q52 0 77.5 24t25.5 82v774q0 45 -20.5 63.5t-71.5 18.5h-84zM256 1704l420 414h168l426 -414l-49 -62l-457 248l-461 -248z" />
<glyph unicode="&#xcb;" horiz-adv-x="1619" d="M74 1249v287h1120q67 0 74 53l258 -33l-62 -456l-272 28q8 12 6 32t-8.5 40t-31 34.5t-60.5 14.5h-367v-311h230q54 0 75.5 21.5t26.5 70.5l223 -26l-49 -439l-238 29q8 45 -4 63q-14 21 -84 21h-180v-387h334q34 0 61 3t48.5 11t37 16t28.5 25t21.5 29.5t18 39 t14.5 44.5t15 53l254 -37l-84 -508q-32 13 -134.5 23t-205.5 10h-1063v287h71q52 0 77.5 24t25.5 82v774q0 45 -20.5 63.5t-71.5 18.5h-84zM328 1819q0 81 66.5 134.5t152.5 53.5q63 0 117.5 -42.5t54.5 -102.5q0 -83 -60.5 -138t-150.5 -55q-66 0 -123 45.5t-57 104.5z M895 1819q0 81 66.5 134.5t152.5 53.5q62 0 117 -42.5t55 -102.5q0 -83 -61.5 -138t-151.5 -55q-66 0 -122 45.5t-56 104.5z" />
<glyph unicode="&#xcc;" horiz-adv-x="989" d="M84 0v287h76q94 0 94 98v770q0 48 -20 71t-68 23h-82v287h809v-287h-72q-47 0 -66.5 -24t-19.5 -72v-766q0 -100 96 -100h62v-287h-809zM125 1868l156 266l524 -424l-47 -80z" />
<glyph unicode="&#xcd;" horiz-adv-x="989" d="M84 0v287h76q94 0 94 98v770q0 48 -20 71t-68 23h-82v287h809v-287h-72q-47 0 -66.5 -24t-19.5 -72v-766q0 -100 96 -100h62v-287h-809zM213 1710l524 424l156 -266l-633 -238z" />
<glyph unicode="&#xce;" horiz-adv-x="989" d="M-12 1704l420 414h167l426 -414l-49 -62l-456 248l-461 -248zM84 0v287h76q94 0 94 98v770q0 48 -20 71t-68 23h-82v287h809v-287h-72q-47 0 -66.5 -24t-19.5 -72v-766q0 -100 96 -100h62v-287h-809z" />
<glyph unicode="&#xcf;" horiz-adv-x="989" d="M14 1831q0 81 66.5 134.5t152.5 53.5q64 0 118.5 -42.5t54.5 -102.5q0 -83 -60.5 -138t-150.5 -55q-66 0 -123.5 45.5t-57.5 104.5zM84 0v287h76q94 0 94 98v770q0 48 -20 71t-68 23h-82v287h809v-287h-72q-47 0 -66.5 -24t-19.5 -72v-766q0 -100 96 -100h62v-287h-809z M582 1831q0 81 66.5 134.5t152.5 53.5q62 0 117 -42.5t55 -102.5q0 -83 -61.5 -138t-151.5 -55q-66 0 -122 45.5t-56 104.5z" />
<glyph unicode="&#xd0;" horiz-adv-x="1824" d="M68 655v295h184v203q0 49 -19 72.5t-65 23.5h-88v287h909q176 0 324 -54.5t247 -149.5t154 -222.5t55 -273.5q0 -188 -56.5 -341.5t-165 -264t-276 -170.5t-380.5 -60h-809v287h65q105 0 105 92v276h-184zM743 309q50 -4 72 -4q207 -1 312.5 142t105.5 387 q0 103 -45 197.5t-130 156t-188 61.5h-127v-299h234v-299h-234v-342z" />
<glyph unicode="&#xd1;" horiz-adv-x="1871" d="M84 1249v287h680q0 -41 53 -115l449 -614v358q0 37 -21 60.5t-61 23.5h-72v287h686v-287h-82q-54 0 -73 -19.5t-19 -84.5v-1008q0 -99 16 -137h-407l-615 817v-418q0 -59 17.5 -85.5t56.5 -26.5h103v-287h-709v287h90q31 0 52.5 23.5t21.5 68.5v758q0 56 -19.5 84 t-68.5 28h-78zM418 1726q126 146 223 218.5t203 72.5q43 0 111 -41t135.5 -82t109.5 -41q79 0 127 29.5t123 112.5l74 -88q-119 -139 -222 -215t-202 -76q-45 0 -115.5 41.5t-137.5 83t-102 41.5q-73 0 -128 -33t-128 -113z" />
<glyph unicode="&#xd2;" horiz-adv-x="1728" d="M57 762q0 166 63 317.5t170 261t256.5 174t315.5 64.5q179 0 333 -69.5t257 -184t161 -261.5t58 -302q0 -167 -64.5 -318t-173 -259t-258 -172t-313.5 -64q-166 0 -315.5 64t-256.5 173t-170 259.5t-63 316.5zM514 1868l156 266l524 -424l-47 -80zM604 762 q1 -63 5.5 -119t14.5 -118t29 -111.5t46 -90t68.5 -63t92.5 -22.5q251 0 256 520q1 78 -4 146t-21.5 142.5t-44 127t-75 86.5t-111.5 34q-261 0 -256 -532z" />
<glyph unicode="&#xd3;" horiz-adv-x="1728" d="M57 762q0 166 63 317.5t170 261t256.5 174t315.5 64.5q179 0 333 -69.5t257 -184t161 -261.5t58 -302q0 -167 -64.5 -318t-173 -259t-258 -172t-313.5 -64q-166 0 -315.5 64t-256.5 173t-170 259.5t-63 316.5zM502 1712l524 424l156 -266l-633 -238zM604 762 q1 -63 5.5 -119t14.5 -118t29 -111.5t46 -90t68.5 -63t92.5 -22.5q251 0 256 520q1 78 -4 146t-21.5 142.5t-44 127t-75 86.5t-111.5 34q-261 0 -256 -532z" />
<glyph unicode="&#xd4;" horiz-adv-x="1728" d="M57 762q0 166 63 317.5t170 261t256.5 174t315.5 64.5q179 0 333 -69.5t257 -184t161 -261.5t58 -302q0 -167 -64.5 -318t-173 -259t-258 -172t-313.5 -64q-166 0 -315.5 64t-256.5 173t-170 259.5t-63 316.5zM358 1704l420 414h168l426 -414l-49 -62l-457 248l-460 -248 zM604 762q1 -63 5.5 -119t14.5 -118t29 -111.5t46 -90t68.5 -63t92.5 -22.5q251 0 256 520q1 78 -4 146t-21.5 142.5t-44 127t-75 86.5t-111.5 34q-261 0 -256 -532z" />
<glyph unicode="&#xd5;" horiz-adv-x="1728" d="M57 762q0 166 63 317.5t170 261t256.5 174t315.5 64.5q179 0 333 -69.5t257 -184t161 -261.5t58 -302q0 -167 -64.5 -318t-173 -259t-258 -172t-313.5 -64q-166 0 -315.5 64t-256.5 173t-170 259.5t-63 316.5zM322 1747q126 146 223 218.5t203 72.5q43 0 111 -41 t135.5 -82t109.5 -41q79 0 127.5 29.5t122.5 111.5l73 -88q-119 -140 -221.5 -215.5t-201.5 -75.5q-45 0 -115.5 41.5t-137.5 83t-102 41.5q-73 0 -128 -33t-128 -112zM604 762q1 -63 5.5 -119t14.5 -118t29 -111.5t46 -90t68.5 -63t92.5 -22.5q251 0 256 520q1 78 -4 146 t-21.5 142.5t-44 127t-75 86.5t-111.5 34q-261 0 -256 -532z" />
<glyph unicode="&#xd6;" horiz-adv-x="1728" d="M57 762q0 166 63 317.5t170 261t256.5 174t315.5 64.5q179 0 333 -69.5t257 -184t161 -261.5t58 -302q0 -167 -64.5 -318t-173 -259t-258 -172t-313.5 -64q-166 0 -315.5 64t-256.5 173t-170 259.5t-63 316.5zM387 1817q0 81 66.5 134.5t152.5 53.5q63 0 117.5 -42.5 t54.5 -102.5q0 -83 -60.5 -138t-150.5 -55q-66 0 -123 45.5t-57 104.5zM604 762q1 -63 5.5 -119t14.5 -118t29 -111.5t46 -90t68.5 -63t92.5 -22.5q251 0 256 520q1 78 -4 146t-21.5 142.5t-44 127t-75 86.5t-111.5 34q-261 0 -256 -532zM954 1817q0 81 66.5 134.5 t153.5 53.5q62 0 117 -42.5t55 -102.5q0 -83 -61.5 -138t-151.5 -55q-66 0 -122.5 45.5t-56.5 104.5z" />
<glyph unicode="&#xd7;" d="M303 354v396h365v-396h-365zM303 831v398h365v-398h-365zM750 354v396h366v-396h-366zM750 831v398h366v-398h-366z" />
<glyph unicode="&#xd8;" horiz-adv-x="1724" d="M55 766q0 166 63 317.5t170 261t256.5 174t315.5 64.5q193 0 363 -82l106 187l131 -74l-110 -195q150 -115 234.5 -289t84.5 -364q0 -167 -64.5 -318t-173 -259t-258 -172t-313.5 -64q-165 0 -313 63l-127 -221l-123 74l121 215q-167 111 -265 290.5t-98 391.5zM602 766 q0 -178 33 -299l405 715q-61 116 -182 116q-256 0 -256 -532zM713 307q59 -65 145 -65q256 0 256 520q0 134 -12 223z" />
<glyph unicode="&#xd9;" horiz-adv-x="1804" d="M63 1249v287h840v-287h-82q-38 0 -64 -21.5t-26 -72.5v-674q0 -69 24 -122t64.5 -83t86.5 -44.5t95 -14.5q77 0 135.5 38.5t86.5 106.5q20 49 20 136v649q0 48 -22 75t-66 27h-78v287h658v-287h-76q-42 0 -67 -26.5t-25 -79.5v-643q0 -186 -91 -318.5t-262 -189.5 q-118 -39 -288 -39q-140 0 -263.5 32t-217.5 92t-148.5 152t-54.5 205v713q0 47 -25 74.5t-70 27.5h-84zM643 1866l156 266l524 -424l-47 -80z" />
<glyph unicode="&#xda;" horiz-adv-x="1804" d="M63 1249v287h840v-287h-82q-38 0 -64 -21.5t-26 -72.5v-674q0 -69 24 -122t64.5 -83t86.5 -44.5t95 -14.5q77 0 135.5 38.5t86.5 106.5q20 49 20 136v649q0 48 -22 75t-66 27h-78v287h658v-287h-76q-42 0 -67 -26.5t-25 -79.5v-643q0 -186 -91 -318.5t-262 -189.5 q-118 -39 -288 -39q-140 0 -263.5 32t-217.5 92t-148.5 152t-54.5 205v713q0 47 -25 74.5t-70 27.5h-84zM639 1708l524 424l156 -266l-633 -238z" />
<glyph unicode="&#xdb;" horiz-adv-x="1804" d="M63 1249v287h840v-287h-82q-38 0 -64 -21.5t-26 -72.5v-674q0 -69 24 -122t64.5 -83t86.5 -44.5t95 -14.5q77 0 135.5 38.5t86.5 106.5q20 49 20 136v649q0 48 -22 75t-66 27h-78v287h658v-287h-76q-42 0 -67 -26.5t-25 -79.5v-643q0 -186 -91 -318.5t-262 -189.5 q-118 -39 -288 -39q-140 0 -263.5 32t-217.5 92t-148.5 152t-54.5 205v713q0 47 -25 74.5t-70 27.5h-84zM467 1702l420 414h168l426 -414l-49 -62l-457 248l-461 -248z" />
<glyph unicode="&#xdc;" horiz-adv-x="1804" d="M63 1249v287h840v-287h-82q-38 0 -64 -21.5t-26 -72.5v-674q0 -69 24 -122t64.5 -83t86.5 -44.5t95 -14.5q77 0 135.5 38.5t86.5 106.5q20 49 20 136v649q0 48 -22 75t-66 27h-78v287h658v-287h-76q-42 0 -67 -26.5t-25 -79.5v-643q0 -186 -91 -318.5t-262 -189.5 q-118 -39 -288 -39q-140 0 -263.5 32t-217.5 92t-148.5 152t-54.5 205v713q0 47 -25 74.5t-70 27.5h-84zM489 1810q0 81 67 135t153 54q63 0 117.5 -43t54.5 -103q0 -83 -60.5 -137.5t-150.5 -54.5q-66 0 -123.5 45.5t-57.5 103.5zM1057 1810q0 81 66.5 135t152.5 54 q62 0 117 -43t55 -103q0 -83 -61.5 -137.5t-151.5 -54.5q-66 0 -122 45t-56 104z" />
<glyph unicode="&#xdd;" horiz-adv-x="1703" d="M23 1249v287h909v-287h-55q-28 0 -39 -7t-11 -28q0 -5 1.5 -10.5t5.5 -11.5t7 -9.5t9 -11t8 -10.5l150 -192q131 191 141 207q25 40 22 56.5t-32 16.5h-86v287h624v-287h-73q-35 0 -60 -14t-53 -53l-365 -504v-326q0 -27 19.5 -46t54.5 -19h94v-287h-825v287h72 q98 0 98 94v270q-351 430 -414 512q-65 86 -145 86h-57zM530 1708l525 424l155 -266l-632 -238z" />
<glyph unicode="&#xde;" horiz-adv-x="1611" d="M84 0v287h80q90 0 90 88v770q0 58 -20 81t-68 23h-76v287h631v-287h299q141 0 249 -36.5t172 -101t96 -144.5t32 -174q0 -55 -18 -119t-61.5 -133.5t-106 -125t-161.5 -92t-218 -36.5h-263v-287h-657zM735 580h103q114 0 168.5 57t54.5 149q0 79 -49 128t-152 49h-125 v-383z" />
<glyph unicode="&#xdf;" horiz-adv-x="1738" d="M104 0v268q16 -4 46 -4q33 0 45 12.5t12 53.5v420h-98v268h98v106q0 203 136 327t386 124q268 0 414.5 -110t146.5 -300q0 -59 -22 -118.5t-44 -109t-22 -83.5q0 -14 2.5 -26.5t10.5 -25.5t14.5 -22.5t22 -23t24.5 -21.5t31.5 -23.5t34 -23t40.5 -26t43 -27.5 q44 -29 64 -42.5t54 -38.5t49.5 -41t37 -41.5t30.5 -48.5t16 -53.5t7 -64.5q0 -136 -87.5 -228.5t-237.5 -92.5q-56 0 -105 14t-79.5 28.5t-40.5 14.5q-16 0 -21.5 -11t4.5 -26l-223 -106l-188 397l239 113q33 -74 71.5 -116t94.5 -42q31 0 54.5 16t23.5 53q0 28 -35 65.5 t-84.5 77.5t-99 85t-84.5 103t-35 116t20 117.5t40 110t20 85.5q0 111 -52.5 184.5t-148.5 73.5q-61 0 -95 -33.5t-34 -99.5v-866q0 -76 55 -76q27 0 47 4v-266h-598z" />
<glyph unicode="&#xe0;" horiz-adv-x="1132" d="M39 266q0 118 80 210t215 134q107 29 248 29q0 79 -25 109t-88 30q-35 0 -90.5 -19.5t-99.5 -49.5l-115 209q82 53 198.5 91t243.5 38q181 0 271 -81.5t90 -236.5v-401q0 -39 4 -49.5t18 -10.5l94 8l15 -251l-496 -48v164q-38 -72 -115.5 -125t-162.5 -53 q-157 0 -234 125q-51 79 -51 178zM246 1382l155 267l525 -424l-47 -80zM406 344q0 -34 19.5 -61t57.5 -27q32 0 58 28t32 70v95q-167 0 -167 -105z" />
<glyph unicode="&#xe1;" horiz-adv-x="1132" d="M39 266q0 118 80 210t215 134q107 29 248 29q0 79 -25 109t-88 30q-35 0 -90.5 -19.5t-99.5 -49.5l-115 209q82 53 198.5 91t243.5 38q181 0 271 -81.5t90 -236.5v-401q0 -39 4 -49.5t18 -10.5l94 8l15 -251l-496 -48v164q-38 -72 -115.5 -125t-162.5 -53 q-157 0 -234 125q-51 79 -51 178zM324 1225l524 424l156 -267l-633 -237zM406 344q0 -34 19.5 -61t57.5 -27q32 0 58 28t32 70v95q-167 0 -167 -105z" />
<glyph unicode="&#xe2;" horiz-adv-x="1132" d="M39 266q0 118 80 210t215 134q107 29 248 29q0 79 -25 109t-88 30q-35 0 -90.5 -19.5t-99.5 -49.5l-115 209q82 53 198.5 91t243.5 38q181 0 271 -81.5t90 -236.5v-401q0 -39 4 -49.5t18 -10.5l94 8l15 -251l-496 -48v164q-38 -72 -115.5 -125t-162.5 -53 q-157 0 -234 125q-51 79 -51 178zM102 1217l420 413h168l426 -413l-49 -62l-457 248l-460 -248zM406 344q0 -34 19.5 -61t57.5 -27q32 0 58 28t32 70v95q-167 0 -167 -105z" />
<glyph unicode="&#xe3;" horiz-adv-x="1132" d="M39 266q0 118 80 210t215 134q107 29 248 29q0 79 -25 109t-88 30q-35 0 -90.5 -19.5t-99.5 -49.5l-115 209q82 53 198.5 91t243.5 38q181 0 271 -81.5t90 -236.5v-401q0 -39 4 -49.5t18 -10.5l94 8l15 -251l-496 -48v164q-38 -72 -115.5 -125t-162.5 -53 q-157 0 -234 125q-51 79 -51 178zM98 1243q126 146 223 218.5t203 72.5q43 0 111 -41l136 -82t110 -41q79 0 127 29t122 112l74 -88q-118 -139 -221.5 -214.5t-202.5 -75.5q-45 0 -115.5 41.5t-137 82.5t-101.5 41q-73 0 -128 -33t-128 -112zM406 344q0 -34 19.5 -61 t57.5 -27q32 0 58 28t32 70v95q-167 0 -167 -105z" />
<glyph unicode="&#xe4;" horiz-adv-x="1132" d="M39 266q0 118 80 210t215 134q107 29 248 29q0 79 -25 109t-88 30q-35 0 -90.5 -19.5t-99.5 -49.5l-115 209q82 53 198.5 91t243.5 38q181 0 271 -81.5t90 -236.5v-401q0 -39 4 -49.5t18 -10.5l94 8l15 -251l-496 -48v164q-38 -72 -115.5 -125t-162.5 -53 q-157 0 -234 125q-51 79 -51 178zM131 1335q0 81 66.5 135t152.5 54q63 0 117.5 -43t54.5 -103q0 -83 -60.5 -137.5t-150.5 -54.5q-66 0 -123 45t-57 104zM406 344q0 -34 19.5 -61t57.5 -27q32 0 58 28t32 70v95q-167 0 -167 -105zM698 1335q0 81 67 135t153 54 q62 0 117 -43t55 -103q0 -83 -61.5 -137.5t-151.5 -54.5q-66 0 -122.5 45t-56.5 104z" />
<glyph unicode="&#xe5;" horiz-adv-x="1132" d="M39 266q0 118 80 210t215 134q107 29 248 29q0 79 -25 109t-88 30q-35 0 -90.5 -19.5t-99.5 -49.5l-115 209q82 53 198.5 91t243.5 38q181 0 271 -81.5t90 -236.5v-401q0 -39 4 -49.5t18 -10.5l94 8l15 -251l-496 -48v164q-38 -72 -115.5 -125t-162.5 -53 q-157 0 -234 125q-51 79 -51 178zM352 1403q0 104 73.5 176t176.5 72q102 0 175 -72t73 -176q0 -102 -73 -175t-175 -73q-103 0 -176.5 72.5t-73.5 175.5zM406 344q0 -34 19.5 -61t57.5 -27q32 0 58 28t32 70v95q-167 0 -167 -105zM483 1403q0 -47 36.5 -82t82.5 -35 q45 0 81 35t36 82q0 44 -36.5 80.5t-80.5 36.5q-46 0 -82.5 -36.5t-36.5 -80.5z" />
<glyph unicode="&#xe6;" horiz-adv-x="1710" d="M39 266q0 118 80 210t215 134q107 29 248 29q0 79 -25 109t-88 30q-35 0 -90.5 -19.5t-99.5 -49.5l-115 209q82 53 198.5 91t243.5 38q149 0 238 -58q129 74 284 74q113 0 209 -38.5t159.5 -102.5t102.5 -140.5t50 -158.5l-557 -299q10 -28 57 -60.5t88 -32.5 q122 0 270 148l150 -197q-61 -49 -94 -76q-77 -64 -181.5 -101.5t-224.5 -37.5q-132 0 -227 29t-176 108q-6 6 -18.5 19.5t-18.5 19.5q-56 -72 -164 -126t-229 -54q-131 0 -208 88t-77 215zM406 344q0 -34 19.5 -61t57.5 -27q31 0 55.5 29t34.5 69v95q-167 0 -167 -105z M981 668q0 -36 5.5 -64.5t11.5 -38.5l6 -10q172 96 213 121q17 12 8 35q-13 41 -43.5 67.5t-73.5 26.5q-46 0 -86.5 -38.5t-40.5 -98.5z" />
<glyph unicode="&#xe7;" horiz-adv-x="1128" d="M49 512q0 78 21.5 156t66 149.5t105.5 126t147 87t184 32.5q67 0 121 -14q15 -4 37 -11.5t36 -11.5t26 -4t18.5 2.5t8.5 5t5 13.5t6 18l238 -33l-53 -416l-252 31q3 9 6.5 24.5t1.5 49.5t-18 53q-18 22 -39.5 32.5t-33.5 11.5t-38 1q-63 0 -116.5 -77.5t-53.5 -172.5 q0 -133 63 -220t146 -87q112 0 254 129l147 -197q-110 -96 -209 -153t-219 -68l-22 -90q179 -14 251 -74t72 -170q0 -104 -92 -172.5t-217 -68.5q-54 0 -135 29.5t-121 76.5l55 64q56 -53 150 -53q64 0 100.5 33.5t36.5 86.5q0 93 -62.5 125.5t-191.5 32.5l45 182 q-115 10 -207.5 61.5t-149.5 128t-87.5 167t-30.5 184.5z" />
<glyph unicode="&#xe8;" horiz-adv-x="1175" d="M51 508q0 156 68 282.5t192.5 199.5t282.5 73q113 0 209 -38.5t159 -102.5t102 -140.5t50 -158.5l-557 -299q10 -28 57 -60.5t88 -32.5q123 0 271 148l141 -197q-53 -49 -86 -76q-166 -139 -405 -139q-244 0 -408 158q-164 161 -164 383zM256 1382l156 267l524 -424 l-47 -80zM446 668q0 -36 6 -64.5t12 -38.5l5 -10q182 102 229 129q6 3 0 31q-13 43 -44.5 70.5t-75.5 27.5q-55 0 -93.5 -41t-38.5 -104z" />
<glyph unicode="&#xe9;" horiz-adv-x="1175" d="M51 508q0 156 68 282.5t192.5 199.5t282.5 73q113 0 209 -38.5t159 -102.5t102 -140.5t50 -158.5l-557 -299q10 -28 57 -60.5t88 -32.5q123 0 271 148l141 -197q-53 -49 -86 -76q-166 -139 -405 -139q-244 0 -408 158q-164 161 -164 383zM268 1225l525 424l155 -267 l-633 -237zM446 668q0 -36 6 -64.5t12 -38.5l5 -10q182 102 229 129q6 3 0 31q-13 43 -44.5 70.5t-75.5 27.5q-55 0 -93.5 -41t-38.5 -104z" />
<glyph unicode="&#xea;" horiz-adv-x="1175" d="M51 508q0 156 68 282.5t192.5 199.5t282.5 73q113 0 209 -38.5t159 -102.5t102 -140.5t50 -158.5l-557 -299q10 -28 57 -60.5t88 -32.5q123 0 271 148l141 -197q-53 -49 -86 -76q-166 -139 -405 -139q-244 0 -408 158q-164 161 -164 383zM92 1217l420 413h168l426 -413 l-49 -62l-457 248l-461 -248zM446 668q0 -36 6 -64.5t12 -38.5l5 -10q182 102 229 129q6 3 0 31q-13 43 -44.5 70.5t-75.5 27.5q-55 0 -93.5 -41t-38.5 -104z" />
<glyph unicode="&#xeb;" horiz-adv-x="1175" d="M51 508q0 156 68 282.5t192.5 199.5t282.5 73q113 0 209 -38.5t159 -102.5t102 -140.5t50 -158.5l-557 -299q10 -28 57 -60.5t88 -32.5q123 0 271 148l141 -197q-53 -49 -86 -76q-166 -139 -405 -139q-244 0 -408 158q-164 161 -164 383zM129 1335q0 81 66.5 135 t152.5 54q63 0 117.5 -43t54.5 -103q0 -83 -60.5 -137.5t-150.5 -54.5q-66 0 -123 45t-57 104zM446 668q0 -36 6 -64.5t12 -38.5l5 -10q182 102 229 129q6 3 0 31q-13 43 -44.5 70.5t-75.5 27.5q-55 0 -93.5 -41t-38.5 -104zM696 1335q0 81 66.5 135t152.5 54q62 0 117 -43 t55 -103q0 -83 -61.5 -137.5t-151.5 -54.5q-66 0 -122 45t-56 104z" />
<glyph unicode="&#xec;" horiz-adv-x="706" d="M0 1382l156 267l524 -424l-47 -80zM25 920l534 122v-704q0 -42 17 -60t53 -18l41 2v-262h-602v262h45q32 0 44.5 16.5t12.5 55.5v315q0 10 -8.5 20.5t-14.5 10.5q-26 0 -53 -18z" />
<glyph unicode="&#xed;" horiz-adv-x="706" d="M-6 1225l524 424l156 -267l-633 -237zM25 920l534 122v-704q0 -42 17 -60t53 -18l41 2v-262h-602v262h45q32 0 44.5 16.5t12.5 55.5v315q0 10 -8.5 20.5t-14.5 10.5q-26 0 -53 -18z" />
<glyph unicode="&#xee;" horiz-adv-x="706" d="M-156 1217l420 413h168l426 -413l-49 -62l-457 248l-461 -248zM25 920l534 122v-704q0 -42 17 -60t53 -18l41 2v-262h-602v262h45q32 0 44.5 16.5t12.5 55.5v315q0 10 -8.5 20.5t-14.5 10.5q-26 0 -53 -18z" />
<glyph unicode="&#xef;" horiz-adv-x="706" d="M-141 1335q0 81 66.5 135t152.5 54q63 0 117.5 -43t54.5 -103q0 -83 -60.5 -137.5t-150.5 -54.5q-66 0 -123 45t-57 104zM25 920l534 122v-704q0 -42 17 -60t53 -18l41 2v-262h-602v262h45q32 0 44.5 16.5t12.5 55.5v315q0 10 -8.5 20.5t-14.5 10.5q-26 0 -53 -18z M426 1335q0 81 66.5 135t152.5 54q62 0 117 -43t55 -103q0 -83 -61.5 -137.5t-151.5 -54.5q-66 0 -122 45t-56 104z" />
<glyph unicode="&#xf0;" horiz-adv-x="1269" d="M51 492q0 116 32 219.5t89.5 181.5t144 124t189.5 46q142 0 225 -109v295h-246l-39 287h660v-1196q0 -43 5.5 -57.5t27.5 -14.5q15 0 36 3l35 5l13 3l14 -254l-496 -48v179q-106 -187 -288 -187q-95 0 -173.5 49t-127 127t-75 168.5t-26.5 178.5zM504 508 q0 -205 117 -205q91 0 110 156v137q0 61 -28 119.5t-72 58.5q-59 0 -93 -75t-34 -191z" />
<glyph unicode="&#xf1;" horiz-adv-x="1302" d="M27 920l512 124v-206q51 70 123 133q44 39 106 65.5t121 26.5q140 0 209 -90.5t69 -259.5v-387q0 -36 11 -50t43 -14h47v-262h-572v262h33q29 0 37 13.5t8 41.5v336q0 31 -22.5 54.5t-55.5 23.5q-53 0 -95 -53t-42 -117v-223q0 -48 7 -62t40 -14h31v-262h-569v262h49 q33 0 43 14t10 54v317q0 23 -26.5 28.5t-49.5 -13.5zM92 1268q126 146 223 218.5t203 72.5q43 0 111 -41t135.5 -82t109.5 -41q79 0 127.5 29.5t122.5 111.5l74 -88q-119 -139 -222 -215t-202 -76q-36 0 -88 26t-96.5 57t-93 57t-76.5 26q-73 0 -128 -33t-128 -112z" />
<glyph unicode="&#xf2;" horiz-adv-x="1187" d="M47 514q0 149 73 275t199 199t275 73t275 -73t199 -199t73 -275t-73 -274.5t-199 -198t-275 -72.5t-275 72.5t-199 198t-73 274.5zM250 1382l156 267l524 -424l-47 -80zM467 526q0 -51 6 -99t19 -95t39.5 -75t62.5 -28q40 0 68.5 50.5t39.5 115t11 131.5q0 46 -6 91.5 t-18.5 89.5t-37 71t-57.5 27q-46 0 -76 -47.5t-40.5 -107t-10.5 -124.5z" />
<glyph unicode="&#xf3;" horiz-adv-x="1187" d="M47 514q0 149 73 275t199 199t275 73t275 -73t199 -199t73 -275t-73 -274.5t-199 -198t-275 -72.5t-275 72.5t-199 198t-73 274.5zM291 1225l524 424l156 -267l-633 -237zM467 526q0 -51 6 -99t19 -95t39.5 -75t62.5 -28q40 0 68.5 50.5t39.5 115t11 131.5q0 46 -6 91.5 t-18.5 89.5t-37 71t-57.5 27q-46 0 -76 -47.5t-40.5 -107t-10.5 -124.5z" />
<glyph unicode="&#xf4;" horiz-adv-x="1187" d="M47 514q0 149 73 275t199 199t275 73t275 -73t199 -199t73 -275t-73 -274.5t-199 -198t-275 -72.5t-275 72.5t-199 198t-73 274.5zM102 1217l420 413h168l426 -413l-49 -62l-457 248l-460 -248zM467 526q0 -51 6 -99t19 -95t39.5 -75t62.5 -28q40 0 68.5 50.5t39.5 115 t11 131.5q0 46 -6 91.5t-18.5 89.5t-37 71t-57.5 27q-46 0 -76 -47.5t-40.5 -107t-10.5 -124.5z" />
<glyph unicode="&#xf5;" horiz-adv-x="1187" d="M47 514q0 149 73 275t199 199t275 73t275 -73t199 -199t73 -275t-73 -274.5t-199 -198t-275 -72.5t-275 72.5t-199 198t-73 274.5zM82 1241q126 146 223 218.5t203 72.5q43 0 111 -41t135.5 -82t109.5 -41q79 0 127.5 29.5t122.5 111.5l74 -88q-119 -139 -222 -215 t-202 -76q-36 0 -88 26t-96.5 57t-93 57t-76.5 26q-73 0 -128 -33t-128 -112zM467 526q0 -51 6 -99t19 -95t39.5 -75t62.5 -28q40 0 68.5 50.5t39.5 115t11 131.5q0 46 -6 91.5t-18.5 89.5t-37 71t-57.5 27q-46 0 -76 -47.5t-40.5 -107t-10.5 -124.5z" />
<glyph unicode="&#xf6;" horiz-adv-x="1187" d="M47 514q0 149 73 275t199 199t275 73t275 -73t199 -199t73 -275t-73 -274.5t-199 -198t-275 -72.5t-275 72.5t-199 198t-73 274.5zM125 1335q0 81 66.5 135t152.5 54q63 0 117.5 -43t54.5 -103q0 -83 -60.5 -137.5t-150.5 -54.5q-66 0 -123 45t-57 104zM467 526 q0 -51 6 -99t19 -95t39.5 -75t62.5 -28q40 0 68.5 50.5t39.5 115t11 131.5q0 46 -6 91.5t-18.5 89.5t-37 71t-57.5 27q-46 0 -76 -47.5t-40.5 -107t-10.5 -124.5zM692 1335q0 81 66.5 135t152.5 54q62 0 117 -43t55 -103q0 -83 -61.5 -137.5t-151.5 -54.5q-66 0 -122 45 t-56 104z" />
<glyph unicode="&#xf7;" d="M303 354v396h365v-396h-365zM303 831v398h365v-398h-365zM750 354v396h366v-396h-366zM750 831v398h366v-398h-366z" />
<glyph unicode="&#xf8;" horiz-adv-x="1187" d="M47 514q0 149 73 275t199 199t275 73q103 0 213 -45l70 123l110 -62l-69 -123q103 -75 163 -190.5t60 -249.5q0 -149 -73 -274.5t-199 -198t-275 -72.5q-113 0 -209 41l-78 -137l-106 70l73 129q-105 75 -166 191t-61 251zM467 526q0 -16 3 -50t3 -52l191 338 q-29 43 -70 43q-46 0 -76 -47.5t-40.5 -107t-10.5 -124.5zM526 262q30 -33 68 -33q40 0 68.5 50.5t39.5 115t11 131.5q0 40 -4 60z" />
<glyph unicode="&#xf9;" horiz-adv-x="1312" d="M25 940l528 123v-666q0 -76 12 -104.5t56 -28.5q54 0 96.5 64.5t42.5 134.5v190q0 43 -27 43q-17 0 -39 -14l-65 258l520 123v-748q0 -47 33 -47q16 0 47.5 3.5t38.5 7.5q6 -240 12 -254l-496 -48v183q-32 -77 -124 -136t-209 -59q-121 0 -204 83.5t-83 211.5v389 q0 29 -4.5 38t-16.5 9q-30 0 -55 -14zM285 1382l155 267l525 -424l-47 -80z" />
<glyph unicode="&#xfa;" horiz-adv-x="1312" d="M25 940l528 123v-666q0 -76 12 -104.5t56 -28.5q54 0 96.5 64.5t42.5 134.5v190q0 43 -27 43q-17 0 -39 -14l-65 258l520 123v-748q0 -47 33 -47q16 0 47.5 3.5t38.5 7.5q6 -240 12 -254l-496 -48v183q-32 -77 -124 -136t-209 -59q-121 0 -204 83.5t-83 211.5v389 q0 29 -4.5 38t-16.5 9q-30 0 -55 -14zM342 1225l524 424l156 -267l-633 -237z" />
<glyph unicode="&#xfb;" horiz-adv-x="1312" d="M25 940l528 123v-666q0 -76 12 -104.5t56 -28.5q54 0 96.5 64.5t42.5 134.5v190q0 43 -27 43q-17 0 -39 -14l-65 258l520 123v-748q0 -47 33 -47q16 0 47.5 3.5t38.5 7.5q6 -240 12 -254l-496 -48v183q-32 -77 -124 -136t-209 -59q-121 0 -204 83.5t-83 211.5v389 q0 29 -4.5 38t-16.5 9q-30 0 -55 -14zM121 1214l420 414h168l426 -414l-50 -61l-456 248l-461 -248z" />
<glyph unicode="&#xfc;" horiz-adv-x="1312" d="M25 940l528 123v-666q0 -76 12 -104.5t56 -28.5q54 0 96.5 64.5t42.5 134.5v190q0 43 -27 43q-17 0 -39 -14l-65 258l520 123v-748q0 -47 33 -47q16 0 47.5 3.5t38.5 7.5q6 -240 12 -254l-496 -48v183q-32 -77 -124 -136t-209 -59q-121 0 -204 83.5t-83 211.5v389 q0 29 -4.5 38t-16.5 9q-30 0 -55 -14zM176 1333q0 81 66.5 135t152.5 54q63 0 117.5 -43t54.5 -103q0 -83 -60.5 -137.5t-150.5 -54.5q-66 0 -123 45t-57 104zM743 1333q0 81 67 135t153 54q62 0 117 -43t55 -103q0 -83 -61.5 -137.5t-151.5 -54.5q-66 0 -122.5 45 t-56.5 104z" />
<glyph unicode="&#xfd;" horiz-adv-x="1216" d="M31 758v262h633v-262h-37q-26 0 -36.5 -7t-10.5 -24t18 -57q5 -12 45.5 -84t50.5 -94q4 -7 7.5 -20t5.5 -22l2 -10q6 36 14 52q9 18 38 90t36 88q18 45 18 55q0 13 -9.5 23t-25.5 10h-39v262h467v-262h-34q-48 0 -82 -78l-531 -1204h-418q160 203 244 342 q24 40 56.5 98.5t52.5 97.5l20 39q-315 556 -350 617q-29 51 -47 69.5t-47 18.5h-41zM428 1225l524 424l156 -267l-633 -237z" />
<glyph unicode="&#xfe;" horiz-adv-x="1249" d="M25 1462l524 123v-713q33 74 108.5 132.5t157.5 58.5q175 0 287 -176q100 -156 100 -342q0 -117 -24 -218.5t-71 -183.5t-126 -129t-182 -47q-63 0 -112 14.5t-72 30.5t-60 47v-249q0 -43 13.5 -64.5t58.5 -21.5h53v-238h-610v238h32q68 0 68 77v1362q0 48 -18.5 55.5 t-55.5 -14.5zM559 399q0 -157 98 -157q44 0 79.5 77.5t35.5 182.5t-33.5 169t-70.5 64q-52 0 -80.5 -57t-28.5 -125v-154z" />
<glyph unicode="&#xff;" horiz-adv-x="1216" d="M31 758v262h633v-262h-37q-26 0 -36.5 -7t-10.5 -24t18 -57q5 -12 45.5 -84t50.5 -94q4 -7 7.5 -20t5.5 -22l2 -10q6 36 14 52q9 18 38 90t36 88q18 45 18 55q0 13 -9.5 23t-25.5 10h-39v262h467v-262h-34q-48 0 -82 -78l-531 -1204h-418q160 203 244 342 q24 40 56.5 98.5t52.5 97.5l20 39q-315 556 -350 617q-29 51 -47 69.5t-47 18.5h-41zM207 1335q0 81 66.5 135t152.5 54q63 0 117.5 -43t54.5 -103q0 -83 -60.5 -137.5t-150.5 -54.5q-66 0 -123 45t-57 104zM774 1335q0 81 66.5 135t152.5 54q62 0 117 -43t55 -103 q0 -83 -61.5 -137.5t-151.5 -54.5q-66 0 -122 45t-56 104z" />
<glyph unicode="&#x152;" horiz-adv-x="2441" d="M57 766q0 166 63 317.5t170 261t256.5 174t315.5 64.5q152 0 279 -47h872q67 0 74 53l258 -33l-61 -456l-273 28q8 12 6 32t-8.5 40t-31 34.5t-60.5 14.5h-367v-311h230q56 0 77 12.5t25 50.5l223 -34l-49 -410l-237 37q8 45 -4 63q-14 21 -84 21h-183l-2 -387h338 q34 0 61 3t48.5 11t37 16t28.5 25t21.5 29.5t18 39t14.5 44.5t15 53l254 -37l-84 -508q-32 13 -134.5 23t-205.5 10h-823q-127 -47 -273 -47q-166 0 -315.5 64t-256.5 173t-170 259.5t-63 316.5zM604 766q1 -63 5.5 -119t14.5 -118t29 -111.5t46 -90t68.5 -63t92.5 -22.5 q52 0 92 17.5t61 43t35 51t18 42.5l3 18v710q-18 52 -46.5 88.5t-56 52.5t-52 24.5t-39.5 8.5h-15q-261 0 -256 -532z" />
<glyph unicode="&#x153;" horiz-adv-x="1822" d="M47 514q0 149 73 275t199 199t275 73q180 0 317 -103q143 105 330 105q113 0 209 -38.5t159 -102.5t102 -140.5t50 -158.5l-557 -299q10 -27 57.5 -60t88.5 -33q122 0 270 148l149 -197q-61 -49 -94 -76q-166 -139 -405 -139q-207 0 -350 109q-142 -107 -326 -107 q-149 0 -275 72.5t-199 198t-73 274.5zM467 526q0 -51 6 -99t19 -95t39.5 -75t62.5 -28q40 0 68.5 50.5t39.5 115t11 131.5q0 46 -6 91.5t-18.5 89.5t-37 71t-57.5 27q-46 0 -76 -47.5t-40.5 -107t-10.5 -124.5zM1094 668q0 -36 5.5 -64.5t10.5 -38.5l6 -10q172 96 213 121 q17 12 8 35q-13 41 -43 67.5t-73 26.5q-46 0 -86.5 -38.5t-40.5 -98.5z" />
<glyph unicode="&#x178;" horiz-adv-x="1703" d="M23 1249v287h909v-287h-55q-28 0 -39 -7t-11 -28q0 -5 1.5 -10.5t5.5 -11.5t7 -9.5t9 -11t8 -10.5l150 -192q131 191 141 207q25 40 22 56.5t-32 16.5h-86v287h624v-287h-73q-35 0 -60 -14t-53 -53l-365 -504v-326q0 -27 19.5 -46t54.5 -19h94v-287h-825v287h72 q98 0 98 94v270q-351 430 -414 512q-65 86 -145 86h-57zM455 1821q0 81 66.5 134.5t152.5 53.5q63 0 117.5 -42.5t54.5 -102.5q0 -83 -60.5 -138t-150.5 -55q-66 0 -123 45.5t-57 104.5zM1022 1821q0 81 66.5 134.5t152.5 53.5q62 0 117 -42.5t55 -102.5q0 -83 -61.5 -138 t-151.5 -55q-66 0 -122 45.5t-56 104.5z" />
<glyph unicode="&#x2c6;" horiz-adv-x="1280" d="M129 1147l420 414h168l426 -414l-49 -62l-457 248l-461 -248z" />
<glyph unicode="&#x2dc;" horiz-adv-x="1280" d="M82 1294q126 146 223 218.5t203 72.5q43 0 111 -41t135.5 -82t109.5 -41q79 0 127 29.5t123 112.5l74 -88q-119 -139 -222 -215t-202 -76q-36 0 -88 26t-96.5 57t-93 57t-76.5 26q-73 0 -128 -33t-128 -113z" />
<glyph unicode="&#x2000;" horiz-adv-x="1068" />
<glyph unicode="&#x2001;" horiz-adv-x="2136" />
<glyph unicode="&#x2002;" horiz-adv-x="1068" />
<glyph unicode="&#x2003;" horiz-adv-x="2136" />
<glyph unicode="&#x2004;" horiz-adv-x="712" />
<glyph unicode="&#x2005;" horiz-adv-x="534" />
<glyph unicode="&#x2006;" horiz-adv-x="356" />
<glyph unicode="&#x2007;" horiz-adv-x="356" />
<glyph unicode="&#x2008;" horiz-adv-x="267" />
<glyph unicode="&#x2009;" horiz-adv-x="427" />
<glyph unicode="&#x200a;" horiz-adv-x="118" />
<glyph unicode="&#x2010;" horiz-adv-x="688" d="M90 512l70 246h370q30 0 68 12l-68 -246h-335q-59 0 -105 -12z" />
<glyph unicode="&#x2011;" horiz-adv-x="688" d="M90 512l70 246h370q30 0 68 12l-68 -246h-335q-59 0 -105 -12z" />
<glyph unicode="&#x2012;" horiz-adv-x="688" d="M90 512l70 246h370q30 0 68 12l-68 -246h-335q-59 0 -105 -12z" />
<glyph unicode="&#x2013;" horiz-adv-x="1024" d="M55 522l68 234h776q39 0 76 12l-82 -246h-838z" />
<glyph unicode="&#x2014;" horiz-adv-x="1536" d="M55 522l68 234h1290q39 0 76 12l-82 -246h-1352z" />
<glyph unicode="&#x2018;" horiz-adv-x="614" d="M135 1225q0 65 16 111.5t58 107.5q47 66 160 145q74 -74 88 -86q-47 -29 -76.5 -57.5t-56.5 -79.5q29 20 69 20q53 0 93 -36.5t40 -94.5q0 -85 -61 -141.5t-156 -56.5q-76 0 -125 50t-49 118z" />
<glyph unicode="&#x2019;" horiz-adv-x="614" d="M86 1376q0 85 61 142t156 57q76 0 125 -50t49 -118q0 -65 -16 -111.5t-58 -107.5q-24 -34 -71 -75.5t-88 -70.5q-74 74 -88 86q94 58 133 138q-30 -21 -70 -21q-53 0 -93 36.5t-40 94.5z" />
<glyph unicode="&#x201a;" horiz-adv-x="614" d="M123 113q0 85 61 141.5t156 56.5q76 0 125 -50t49 -118q0 -65 -16 -111.5t-58 -107.5q-48 -67 -159 -145q-74 74 -88 86q47 29 76.5 57.5t56.5 79.5q-29 -20 -70 -20q-53 0 -93 36.5t-40 94.5z" />
<glyph unicode="&#x201c;" horiz-adv-x="1040" d="M123 1225q0 65 16 111.5t58 107.5q48 67 159 145q74 -74 88 -86q-47 -29 -76.5 -57.5t-56.5 -79.5q29 20 70 20q53 0 93 -36.5t40 -94.5q0 -85 -61 -141.5t-156 -56.5q-76 0 -125 50t-49 118zM606 1225q0 65 16 111.5t58 107.5q47 66 160 145q74 -74 88 -86 q-47 -29 -76.5 -57.5t-56.5 -79.5q29 20 69 20q53 0 93 -36.5t40 -94.5q0 -85 -61 -141.5t-156 -56.5q-76 0 -125 50t-49 118z" />
<glyph unicode="&#x201d;" horiz-adv-x="1040" d="M96 1376q0 85 61 142t156 57q76 0 125 -50t49 -118q0 -65 -15.5 -111.5t-57.5 -107.5q-24 -33 -71 -75t-89 -71q-74 74 -88 86q46 29 76 58t57 80q-30 -21 -70 -21q-53 0 -93 36.5t-40 94.5zM580 1376q0 85 61 142t156 57q76 0 125 -50t49 -118q0 -65 -16 -111.5 t-58 -107.5q-24 -33 -71 -75t-89 -71q-74 74 -88 86q46 29 76 58t57 80q-30 -21 -69 -21q-53 0 -93 36.5t-40 94.5z" />
<glyph unicode="&#x201e;" horiz-adv-x="1040" d="M96 113q0 85 61 141.5t156 56.5q76 0 125 -50t49 -118q0 -65 -15.5 -111.5t-57.5 -107.5q-47 -66 -160 -145q-74 74 -88 86q47 29 76.5 57.5t56.5 79.5q-29 -20 -70 -20q-53 0 -93 36.5t-40 94.5zM580 113q0 85 61 141.5t156 56.5q76 0 125 -50t49 -118q0 -65 -16 -111.5 t-58 -107.5q-47 -66 -160 -145q-74 74 -88 86q47 29 76.5 57.5t56.5 79.5q-29 -20 -69 -20q-53 0 -93 36.5t-40 94.5z" />
<glyph unicode="&#x2022;" horiz-adv-x="1056" d="M102 768q0 177 124.5 303.5t299.5 126.5q177 0 302.5 -126.5t125.5 -303.5q0 -175 -126 -301.5t-302 -126.5q-174 0 -299 126.5t-125 301.5z" />
<glyph unicode="&#x2026;" horiz-adv-x="1597" d="M102 123q0 79 66 132.5t151 53.5q63 0 118 -43.5t55 -103.5q0 -82 -61 -136.5t-150 -54.5q-66 0 -122.5 46t-56.5 106zM608 123q0 79 65.5 132.5t151.5 53.5q62 0 117 -43.5t55 -103.5q0 -81 -61.5 -136t-151.5 -55q-65 0 -120.5 46t-55.5 106zM1104 123q0 79 65.5 132.5 t151.5 53.5q63 0 117.5 -43.5t54.5 -103.5q0 -82 -61 -136.5t-152 -54.5q-65 0 -120.5 46t-55.5 106z" />
<glyph unicode="&#x202f;" horiz-adv-x="427" />
<glyph unicode="&#x2039;" horiz-adv-x="663" d="M74 457v143l524 340v-235l-266 -177l266 -176v-239z" />
<glyph unicode="&#x203a;" horiz-adv-x="663" d="M66 113v239l266 176l-266 177v235l524 -340v-143z" />
<glyph unicode="&#x205f;" horiz-adv-x="534" />
<glyph unicode="&#x2122;" horiz-adv-x="2097" d="M43 1309l31 256q118 -25 151 -25h500q33 0 39 25l123 -21l-33 -248l-137 19q10 32 -6 59q-4 7 -25 13t-37 6h-71v-430q0 -28 11 -38t34 -10h41v-143h-422v143h47q23 0 35 10.5t12 37.5v430h-60q-46 0 -70 -20.5t-34 -74.5zM926 1397v143h409q0 -28 13 -61l143 -373 q127 342 135 369q16 40 10 65h383v-141h-45q-41 0 -41 -58v-378q0 -20 12 -34t31 -14h39v-143h-395v143h25q45 0 45 58v231q0 3 0.5 7t2 13l3.5 21q-37 -98 -78 -207q-10 -25 -39.5 -98t-40.5 -106q-14 -42 -8 -62h-164q-41 112 -86 225q-2 6 -70 183q-12 30 -18 65v-278 q0 -52 43 -52h31v-143h-336v143h43q18 0 28.5 10.5t10.5 28.5v375q0 68 -56 68h-30z" />
<glyph unicode="&#x25fc;" horiz-adv-x="1024" d="M0 0v1024h1024v-1024h-1024z" />
<glyph unicode="&#xfb01;" horiz-adv-x="1341" d="M72 0v264h59q26 0 37.5 14t11.5 54v418h-108v268h104v115q0 67 17.5 130.5t56 122t94.5 102t139 69.5t183 26q84 0 177.5 -23t160.5 -53l-43 -340l-222 25q8 20 7 57t-11 51q-11 16 -33 27.5t-47 11.5q-40 0 -63 -42.5t-23 -108.5v-170h463q36 0 76.5 5.5t63.5 10.5l22 6 v-702q0 -45 12 -60.5t37 -15.5h49v-262h-575v262h28q32 0 44 15t12 53v383q0 13 -8.5 25t-26.5 12h-197v-412q0 -76 54 -76h36v-262h-587z" />
<glyph unicode="&#xfb02;" horiz-adv-x="1341" d="M72 750v270h110v129q0 211 116 323.5t314 112.5q79 0 201.5 -15.5t161.5 -15.5q166 0 223 31v-1259q0 -36 10 -50t35 -14h64v-262h-586v262h39q26 0 34.5 14t8.5 50v931q0 73 -15 97t-71 24q-60 0 -99.5 -50.5t-39.5 -117.5v-190h153l-51 -299q-31 29 -102 29v-418 q0 -38 9.5 -54t37.5 -16h39v-262h-580v264h55q25 0 34 13.5t9 54.5v418h-110z" />
</font>
</defs>
</svg>
